<svg xmlns="http://www.w3.org/2000/svg" width="141" height="138" viewBox="0 0 141 138" fill="none">
  <g clip-path="url(#clip0_353_1648)">
    <path fill-rule="evenodd" clip-rule="evenodd" d="M5.59638 62.5231C50.4091 38.2905 92.6787 55.3174 120.47 84.7235C120.948 85.2276 121.837 85.2024 122.451 84.6635C123.066 84.1247 123.18 83.2767 122.701 82.7727C94.1342 52.5412 50.5704 35.338 4.50247 60.2501C3.78417 60.6369 3.44643 61.4614 3.74784 62.0915C4.04742 62.719 4.87502 62.9121 5.59638 62.5231Z" fill="white"/>
    <path fill-rule="evenodd" clip-rule="evenodd" d="M121.064 83.1957C118.776 82.6373 115.917 81.9047 115.589 81.8311C106.687 79.8346 97.7122 79.3187 88.1381 80.0547C87.3611 80.1135 86.6813 80.7611 86.6209 81.497C86.5606 82.2329 87.1449 82.7821 87.9219 82.7233C97.2063 82.0067 105.911 82.5048 114.545 84.4425C115.049 84.5551 121.473 86.2058 122.814 86.442C123.364 86.5414 123.735 86.4291 123.821 86.395C124.283 86.2296 124.539 85.9499 124.696 85.7055C124.872 85.4287 125.054 84.9217 124.891 84.3056C124.718 83.662 123.998 82.4696 123.844 82.1506C121.544 77.3303 118.496 72.2092 116.801 66.7788C115.185 61.6002 114.798 56.1337 117.72 50.3708C118.077 49.6695 117.8 48.9127 117.107 48.6821C116.414 48.4516 115.561 48.8368 115.204 49.5382C111.939 55.9817 112.273 62.1047 114.079 67.8919C115.765 73.29 118.745 78.3931 121.064 83.1957Z" fill="white"/>
  </g>
  <defs>
    <clipPath id="clip0_353_1648">
      <rect width="90.987" height="107.53" fill="white" transform="translate(52.7712 137.12) rotate(-125.45)"/>
    </clipPath>
  </defs>
</svg>