<svg width="238" height="58" viewBox="0 0 238 58" fill="none" xmlns="http://www.w3.org/2000/svg">
<path d="M71.9954 13.9886H79.0085L88.4006 36.9126H88.7713L98.1634 13.9886H105.176V45.625H99.6772V23.8904H99.3837L90.6404 45.5323H86.5314L77.7882 23.8441H77.4947V45.625H71.9954V13.9886ZM116.04 46.1039C114.537 46.1039 113.183 45.8361 111.978 45.3006C110.783 44.7548 109.836 43.9515 109.135 42.8908C108.445 41.8301 108.1 40.5222 108.1 38.9672C108.1 37.6284 108.348 36.5213 108.842 35.646C109.336 34.7706 110.011 34.0703 110.865 33.5451C111.72 33.0199 112.683 32.6234 113.754 32.3556C114.835 32.0776 115.953 31.8768 117.106 31.7532C118.497 31.609 119.624 31.4803 120.489 31.367C121.354 31.2434 121.982 31.0581 122.374 30.8109C122.775 30.5534 122.976 30.157 122.976 29.6214V29.5288C122.976 28.3651 122.631 27.464 121.941 26.8255C121.251 26.187 120.258 25.8677 118.96 25.8677C117.59 25.8677 116.504 26.1664 115.701 26.7637C114.908 27.361 114.372 28.0664 114.094 28.88L108.873 28.1385C109.285 26.6967 109.964 25.4918 110.912 24.5238C111.859 23.5455 113.018 22.8143 114.387 22.3303C115.757 21.8359 117.271 21.5888 118.929 21.5888C120.072 21.5888 121.21 21.7227 122.343 21.9904C123.476 22.2582 124.511 22.701 125.448 23.3189C126.385 23.9265 127.137 24.7555 127.703 25.8059C128.28 26.8564 128.568 28.1694 128.568 29.745V45.625H123.193V42.3656H123.007C122.667 43.0247 122.188 43.6426 121.571 44.2193C120.963 44.7857 120.196 45.244 119.269 45.5941C118.352 45.9339 117.276 46.1039 116.04 46.1039ZM117.492 41.9949C118.615 41.9949 119.588 41.7734 120.412 41.3306C121.236 40.8775 121.869 40.2802 122.312 39.5387C122.765 38.7972 122.992 37.9888 122.992 37.1135V34.3175C122.817 34.4616 122.518 34.5955 122.096 34.7191C121.684 34.8427 121.22 34.9508 120.705 35.0435C120.191 35.1362 119.681 35.2186 119.176 35.2907C118.672 35.3627 118.234 35.4245 117.863 35.476C117.029 35.5893 116.282 35.7747 115.623 36.0321C114.964 36.2896 114.444 36.65 114.063 37.1135C113.682 37.5666 113.492 38.1536 113.492 38.8745C113.492 39.9043 113.867 40.6818 114.619 41.207C115.371 41.7322 116.329 41.9949 117.492 41.9949ZM137.826 31.7223V45.625H132.234V21.8977H137.578V25.9295H137.856C138.402 24.601 139.272 23.5455 140.467 22.7628C141.672 21.9801 143.16 21.5888 144.931 21.5888C146.569 21.5888 147.995 21.9389 149.21 22.6392C150.436 23.3395 151.383 24.3539 152.053 25.6824C152.732 27.0108 153.067 28.6225 153.057 30.5174V45.625H147.465V31.3825C147.465 29.7965 147.053 28.5556 146.229 27.6596C145.415 26.7637 144.288 26.3157 142.846 26.3157C141.868 26.3157 140.997 26.532 140.235 26.9645C139.484 27.3867 138.891 27.9995 138.459 28.8027C138.037 29.606 137.826 30.5792 137.826 31.7223ZM163.612 46.1039C162.108 46.1039 160.754 45.8361 159.549 45.3006C158.354 44.7548 157.407 43.9515 156.707 42.8908C156.017 41.8301 155.672 40.5222 155.672 38.9672C155.672 37.6284 155.919 36.5213 156.413 35.646C156.908 34.7706 157.582 34.0703 158.437 33.5451C159.292 33.0199 160.254 32.6234 161.325 32.3556C162.407 32.0776 163.524 31.8768 164.678 31.7532C166.068 31.609 167.196 31.4803 168.061 31.367C168.926 31.2434 169.554 31.0581 169.945 30.8109C170.347 30.5534 170.548 30.157 170.548 29.6214V29.5288C170.548 28.3651 170.203 27.464 169.513 26.8255C168.823 26.187 167.829 25.8677 166.531 25.8677C165.162 25.8677 164.075 26.1664 163.272 26.7637C162.479 27.361 161.943 28.0664 161.665 28.88L156.444 28.1385C156.856 26.6967 157.536 25.4918 158.483 24.5238C159.431 23.5455 160.589 22.8143 161.959 22.3303C163.328 21.8359 164.842 21.5888 166.5 21.5888C167.643 21.5888 168.781 21.7227 169.914 21.9904C171.047 22.2582 172.082 22.701 173.019 23.3189C173.956 23.9265 174.708 24.7555 175.275 25.8059C175.851 26.8564 176.14 28.1694 176.14 29.745V45.625H170.764V42.3656H170.578C170.239 43.0247 169.76 43.6426 169.142 44.2193C168.534 44.7857 167.767 45.244 166.84 45.5941C165.924 45.9339 164.847 46.1039 163.612 46.1039ZM165.064 41.9949C166.186 41.9949 167.159 41.7734 167.983 41.3306C168.807 40.8775 169.441 40.2802 169.883 39.5387C170.336 38.7972 170.563 37.9888 170.563 37.1135V34.3175C170.388 34.4616 170.089 34.5955 169.667 34.7191C169.255 34.8427 168.792 34.9508 168.277 35.0435C167.762 35.1362 167.252 35.2186 166.748 35.2907C166.243 35.3627 165.805 35.4245 165.434 35.476C164.6 35.5893 163.854 35.7747 163.195 36.0321C162.536 36.2896 162.015 36.65 161.634 37.1135C161.253 37.5666 161.063 38.1536 161.063 38.8745C161.063 39.9043 161.439 40.6818 162.191 41.207C162.942 41.7322 163.9 41.9949 165.064 41.9949ZM190.124 55.017C188.116 55.017 186.391 54.7441 184.949 54.1983C183.507 53.6628 182.349 52.9419 181.473 52.0357C180.598 51.1294 179.99 50.1254 179.65 49.0234L184.686 47.8031C184.913 48.2665 185.242 48.7248 185.675 49.1779C186.107 49.6413 186.689 50.0224 187.421 50.321C188.162 50.63 189.094 50.7844 190.217 50.7844C191.802 50.7844 193.115 50.3983 194.156 49.6259C195.196 48.8638 195.716 47.6074 195.716 45.8567V41.3615H195.438C195.149 41.9382 194.727 42.5304 194.171 43.138C193.625 43.7456 192.899 44.2553 191.993 44.6673C191.097 45.0792 189.969 45.2852 188.61 45.2852C186.787 45.2852 185.134 44.8578 183.651 44.003C182.179 43.138 181.005 41.8507 180.129 40.1412C179.264 38.4213 178.832 36.269 178.832 33.6841C178.832 31.0787 179.264 28.88 180.129 27.0881C181.005 25.2859 182.184 23.9213 183.667 22.9945C185.15 22.0574 186.803 21.5888 188.625 21.5888C190.016 21.5888 191.159 21.8256 192.055 22.2994C192.961 22.7628 193.682 23.324 194.217 23.9831C194.753 24.6319 195.16 25.2447 195.438 25.8214H195.747V21.8977H201.261V46.0112C201.261 48.04 200.777 49.7186 199.809 51.0471C198.841 52.3755 197.518 53.3693 195.839 54.0284C194.161 54.6875 192.256 55.017 190.124 55.017ZM190.17 40.8981C191.354 40.8981 192.364 40.6097 193.198 40.033C194.032 39.4563 194.665 38.6273 195.098 37.546C195.53 36.4647 195.747 35.1671 195.747 33.6532C195.747 32.16 195.53 30.8521 195.098 29.7296C194.676 28.6071 194.047 27.7369 193.213 27.119C192.389 26.4908 191.375 26.1767 190.17 26.1767C188.924 26.1767 187.884 26.5011 187.05 27.1499C186.216 27.7987 185.587 28.6895 185.165 29.8223C184.743 30.9448 184.532 32.2218 184.532 33.6532C184.532 35.1053 184.743 36.3771 185.165 37.4688C185.598 38.5501 186.231 39.3945 187.065 40.0021C187.91 40.5994 188.945 40.8981 190.17 40.8981ZM205.035 45.625V21.8977H210.627V45.625H205.035ZM207.846 18.5302C206.961 18.5302 206.199 18.2367 205.56 17.6497C204.922 17.0524 204.602 16.3366 204.602 15.5025C204.602 14.658 204.922 13.9423 205.56 13.3553C206.199 12.758 206.961 12.4593 207.846 12.4593C208.742 12.4593 209.504 12.758 210.133 13.3553C210.771 13.9423 211.09 14.658 211.09 15.5025C211.09 16.3366 210.771 17.0524 210.133 17.6497C209.504 18.2367 208.742 18.5302 207.846 18.5302ZM224.924 46.0884C222.545 46.0884 220.491 45.5941 218.76 44.6055C217.041 43.6065 215.717 42.1957 214.79 40.3729C213.864 38.5398 213.4 36.3823 213.4 33.9004C213.4 31.4597 213.864 29.3176 214.79 27.4743C215.728 25.6206 217.036 24.1788 218.714 23.149C220.393 22.1088 222.365 21.5888 224.63 21.5888C226.093 21.5888 227.473 21.8256 228.77 22.2994C230.078 22.7628 231.232 23.4837 232.231 24.462C233.24 25.4403 234.033 26.6864 234.61 28.2003C235.186 29.7038 235.475 31.4957 235.475 33.576V35.2907H216.026V31.5215H230.114C230.104 30.4505 229.872 29.4979 229.419 28.6637C228.966 27.8192 228.333 27.155 227.519 26.671C226.716 26.187 225.779 25.945 224.708 25.945C223.565 25.945 222.561 26.223 221.695 26.7791C220.83 27.3249 220.156 28.0458 219.672 28.9418C219.198 29.8274 218.956 30.8006 218.946 31.8613V35.1516C218.946 36.5316 219.198 37.7159 219.703 38.7045C220.207 39.6829 220.913 40.4347 221.819 40.9599C222.725 41.4748 223.786 41.7322 225.001 41.7322C225.815 41.7322 226.551 41.619 227.21 41.3924C227.869 41.1555 228.441 40.8105 228.925 40.3574C229.409 39.9043 229.774 39.343 230.022 38.6737L235.243 39.2607C234.913 40.6406 234.285 41.8455 233.358 42.8754C232.442 43.8949 231.268 44.6879 229.836 45.2543C228.405 45.8104 226.767 46.0884 224.924 46.0884Z" fill="#325B97"/>
<path d="M40.745 45.9165H46.4242C46.8592 45.9165 47.2459 45.6748 47.4634 45.3123L53.2875 35.1623C53.505 34.7998 53.505 34.3407 53.2875 33.9782L42.0742 13.9198C41.615 13.0982 40.455 13.0982 39.9717 13.8957L36.9267 18.9948C36.7092 19.3815 36.7092 19.8407 36.9267 20.2032L44.805 33.9782C45.0225 34.3407 45.0225 34.7998 44.805 35.1865L39.6575 44.1282C39.2467 44.9015 39.8266 45.9165 40.745 45.9165Z" fill="#325B97"/>
<path d="M23.8282 45.9165H29.5074C29.9424 45.9165 30.3291 45.6748 30.5466 45.3123L36.3707 35.1623C36.5882 34.7998 36.5882 34.3407 36.3707 33.9782L25.1574 13.9198C24.6983 13.0982 23.5383 13.0982 23.055 13.8957L20.0099 18.9948C19.7924 19.3815 19.7924 19.8407 20.0099 20.2032L27.8883 33.9782C28.1058 34.3407 28.1058 34.7998 27.8883 35.1865L22.7408 44.1282C22.3299 44.9015 22.9099 45.9165 23.8282 45.9165Z" fill="#325B97"/>
<path d="M4.34991 45.9165H12.1075C12.5425 45.9165 12.9533 45.6748 13.1708 45.3123L19.0191 34.9449C19.2366 34.5824 19.2366 34.1232 19.0191 33.7365L16.3124 29.0965C15.8533 28.299 14.6933 28.299 14.2341 29.0965L4.34991 45.9165Z" fill="#325B97"/>
</svg>
