<svg width="44" height="44" viewBox="0 0 44 44" fill="none" xmlns="http://www.w3.org/2000/svg">
<rect width="44" height="44" rx="8" fill="#CBF3FF"/>
<path d="M26.19 12H17.81C14.17 12 12 14.17 12 17.81V26.19C12 29.83 14.17 32 17.81 32H26.19C29.83 32 32 29.83 32 26.19V17.81C32 14.17 29.83 12 26.19 12ZM19.97 24.9L17.72 27.15C17.57 27.3 17.38 27.37 17.19 27.37C17 27.37 16.8 27.3 16.66 27.15L15.91 26.4C15.61 26.11 15.61 25.63 15.91 25.34C16.2 25.05 16.67 25.05 16.97 25.34L17.19 25.56L18.91 23.84C19.2 23.55 19.67 23.55 19.97 23.84C20.26 24.13 20.26 24.61 19.97 24.9ZM19.97 17.9L17.72 20.15C17.57 20.3 17.38 20.37 17.19 20.37C17 20.37 16.8 20.3 16.66 20.15L15.91 19.4C15.61 19.11 15.61 18.63 15.91 18.34C16.2 18.05 16.67 18.05 16.97 18.34L17.19 18.56L18.91 16.84C19.2 16.55 19.67 16.55 19.97 16.84C20.26 17.13 20.26 17.61 19.97 17.9ZM27.56 26.62H22.31C21.9 26.62 21.56 26.28 21.56 25.87C21.56 25.46 21.9 25.12 22.31 25.12H27.56C27.98 25.12 28.31 25.46 28.31 25.87C28.31 26.28 27.98 26.62 27.56 26.62ZM27.56 19.62H22.31C21.9 19.62 21.56 19.28 21.56 18.87C21.56 18.46 21.9 18.12 22.31 18.12H27.56C27.98 18.12 28.31 18.46 28.31 18.87C28.31 19.28 27.98 19.62 27.56 19.62Z" fill="#155CB5"/>
</svg>
