<svg width="44" height="44" viewBox="0 0 44 44" fill="none" xmlns="http://www.w3.org/2000/svg">
<rect width="44" height="44" rx="8" fill="#C2FFD0"/>
<path d="M26.19 12H17.81C14.17 12 12 14.17 12 17.81V26.18C12 29.83 14.17 32 17.81 32H26.18C29.82 32 31.99 29.83 31.99 26.19V17.81C32 14.17 29.83 12 26.19 12ZM19.91 26.19C19.91 26.83 19.39 27.35 18.74 27.35C18.1 27.35 17.58 26.83 17.58 26.19V22.93C17.58 22.29 18.1 21.77 18.74 21.77C19.39 21.77 19.91 22.29 19.91 22.93V26.19ZM26.42 26.19C26.42 26.83 25.9 27.35 25.26 27.35C24.61 27.35 24.09 26.83 24.09 26.19V17.81C24.09 17.17 24.61 16.65 25.26 16.65C25.9 16.65 26.42 17.17 26.42 17.81V26.19Z" fill="#05B857"/>
</svg>
