<svg width="131" height="32" viewBox="0 0 131 32" fill="none" xmlns="http://www.w3.org/2000/svg">
<path d="M39.7216 7.54545H43.5909L48.7727 20.1932H48.9773L54.1591 7.54545H58.0284V25H54.9943V13.0085H54.8324L50.0085 24.9489H47.7415L42.9176 12.983H42.7557V25H39.7216V7.54545ZM64.0223 25.2642C63.1927 25.2642 62.4456 25.1165 61.7808 24.821C61.1217 24.5199 60.599 24.0767 60.2126 23.4915C59.8319 22.9062 59.6416 22.1847 59.6416 21.3267C59.6416 20.5881 59.778 19.9773 60.0507 19.4943C60.3234 19.0114 60.6956 18.625 61.1672 18.3352C61.6388 18.0455 62.17 17.8267 62.7609 17.679C63.3575 17.5256 63.974 17.4148 64.6103 17.3466C65.3774 17.267 65.9995 17.196 66.4768 17.1335C66.9541 17.0653 67.3007 16.9631 67.5166 16.8267C67.7382 16.6847 67.849 16.4659 67.849 16.1705V16.1193C67.849 15.4773 67.6586 14.9801 67.278 14.6278C66.8973 14.2756 66.349 14.0994 65.6331 14.0994C64.8774 14.0994 64.278 14.2642 63.8348 14.5938C63.3973 14.9233 63.1018 15.3125 62.9484 15.7614L60.0677 15.3523C60.295 14.5568 60.67 13.892 61.1927 13.358C61.7155 12.8182 62.3547 12.4148 63.1103 12.1477C63.866 11.875 64.7013 11.7386 65.616 11.7386C66.2467 11.7386 66.8745 11.8125 67.4995 11.9602C68.1245 12.108 68.6956 12.3523 69.2126 12.6932C69.7297 13.0284 70.1444 13.4858 70.4569 14.0653C70.7751 14.6449 70.9342 15.3693 70.9342 16.2386V25H67.9683V23.2017H67.866C67.6785 23.5653 67.4143 23.9062 67.0734 24.2244C66.7382 24.5369 66.3149 24.7898 65.8035 24.983C65.2978 25.1705 64.7041 25.2642 64.0223 25.2642ZM64.8234 22.9972C65.4427 22.9972 65.9797 22.875 66.4342 22.6307C66.8888 22.3807 67.2382 22.0511 67.4825 21.642C67.7325 21.233 67.8575 20.7869 67.8575 20.304V18.7614C67.7609 18.8409 67.5961 18.9148 67.3632 18.983C67.1359 19.0511 66.8802 19.1108 66.5961 19.1619C66.312 19.2131 66.0308 19.2585 65.7524 19.2983C65.474 19.3381 65.2325 19.3722 65.028 19.4006C64.5677 19.4631 64.1558 19.5653 63.7922 19.7074C63.4285 19.8494 63.1416 20.0483 62.9314 20.304C62.7211 20.554 62.616 20.8778 62.616 21.2756C62.616 21.8438 62.8234 22.2727 63.2382 22.5625C63.653 22.8523 64.1814 22.9972 64.8234 22.9972ZM76.0417 17.3295V25H72.9565V11.9091H75.9053V14.1335H76.0588C76.3599 13.4006 76.84 12.8182 77.4991 12.3864C78.1639 11.9545 78.9849 11.7386 79.9622 11.7386C80.8656 11.7386 81.6525 11.9318 82.323 12.3182C82.9991 12.7045 83.5218 13.2642 83.8911 13.9972C84.2661 14.7301 84.4508 15.6193 84.4451 16.6648V25H81.3599V17.142C81.3599 16.267 81.1326 15.5824 80.6781 15.0881C80.2292 14.5937 79.607 14.3466 78.8116 14.3466C78.2718 14.3466 77.7917 14.4659 77.3713 14.7045C76.9565 14.9375 76.6298 15.2756 76.3911 15.7188C76.1582 16.1619 76.0417 16.6989 76.0417 17.3295ZM90.2685 25.2642C89.439 25.2642 88.6918 25.1165 88.027 24.821C87.368 24.5199 86.8452 24.0767 86.4589 23.4915C86.0782 22.9062 85.8878 22.1847 85.8878 21.3267C85.8878 20.5881 86.0242 19.9773 86.2969 19.4943C86.5697 19.0114 86.9418 18.625 87.4134 18.3352C87.885 18.0455 88.4162 17.8267 89.0072 17.679C89.6037 17.5256 90.2202 17.4148 90.8566 17.3466C91.6236 17.267 92.2458 17.196 92.7231 17.1335C93.2003 17.0653 93.5469 16.9631 93.7628 16.8267C93.9844 16.6847 94.0952 16.4659 94.0952 16.1705V16.1193C94.0952 15.4773 93.9049 14.9801 93.5242 14.6278C93.1435 14.2756 92.5952 14.0994 91.8793 14.0994C91.1236 14.0994 90.5242 14.2642 90.081 14.5938C89.6435 14.9233 89.3481 15.3125 89.1947 15.7614L86.314 15.3523C86.5412 14.5568 86.9162 13.892 87.439 13.358C87.9617 12.8182 88.6009 12.4148 89.3566 12.1477C90.1123 11.875 90.9475 11.7386 91.8623 11.7386C92.493 11.7386 93.1208 11.8125 93.7458 11.9602C94.3708 12.108 94.9418 12.3523 95.4589 12.6932C95.9759 13.0284 96.3907 13.4858 96.7032 14.0653C97.0214 14.6449 97.1805 15.3693 97.1805 16.2386V25H94.2145V23.2017H94.1123C93.9248 23.5653 93.6606 23.9062 93.3197 24.2244C92.9844 24.5369 92.5611 24.7898 92.0498 24.983C91.5441 25.1705 90.9503 25.2642 90.2685 25.2642ZM91.0697 22.9972C91.689 22.9972 92.2259 22.875 92.6805 22.6307C93.135 22.3807 93.4844 22.0511 93.7287 21.642C93.9787 21.233 94.1037 20.7869 94.1037 20.304V18.7614C94.0072 18.8409 93.8424 18.9148 93.6094 18.983C93.3822 19.0511 93.1265 19.1108 92.8424 19.1619C92.5583 19.2131 92.277 19.2585 91.9986 19.2983C91.7202 19.3381 91.4787 19.3722 91.2742 19.4006C90.814 19.4631 90.402 19.5653 90.0384 19.7074C89.6748 19.8494 89.3878 20.0483 89.1776 20.304C88.9674 20.554 88.8623 20.8778 88.8623 21.2756C88.8623 21.8438 89.0697 22.2727 89.4844 22.5625C89.8992 22.8523 90.4276 22.9972 91.0697 22.9972ZM104.896 30.1818C103.788 30.1818 102.836 30.0313 102.041 29.7301C101.245 29.4347 100.606 29.0369 100.123 28.5369C99.6402 28.0369 99.305 27.483 99.1175 26.875L101.896 26.2017C102.021 26.4574 102.203 26.7102 102.441 26.9602C102.68 27.2159 103.001 27.4261 103.404 27.5909C103.814 27.7614 104.328 27.8466 104.947 27.8466C105.822 27.8466 106.546 27.6335 107.12 27.2074C107.694 26.7869 107.981 26.0938 107.981 25.1278V22.6477H107.828C107.669 22.9659 107.436 23.2926 107.129 23.6278C106.828 23.9631 106.427 24.2443 105.927 24.4716C105.433 24.6989 104.811 24.8125 104.061 24.8125C103.055 24.8125 102.143 24.5767 101.325 24.1051C100.512 23.6278 99.8647 22.9176 99.3817 21.9744C98.9044 21.0256 98.6658 19.8381 98.6658 18.4119C98.6658 16.9744 98.9044 15.7614 99.3817 14.7727C99.8647 13.7784 100.515 13.0256 101.333 12.5142C102.152 11.9972 103.064 11.7386 104.069 11.7386C104.836 11.7386 105.467 11.8693 105.961 12.1307C106.461 12.3864 106.859 12.696 107.154 13.0597C107.45 13.4176 107.674 13.7557 107.828 14.0739H107.998V11.9091H111.041V25.2131C111.041 26.3324 110.774 27.2585 110.24 27.9915C109.706 28.7244 108.975 29.2727 108.049 29.6364C107.123 30 106.072 30.1818 104.896 30.1818ZM104.921 22.392C105.575 22.392 106.132 22.233 106.592 21.9148C107.052 21.5966 107.402 21.1392 107.64 20.5426C107.879 19.946 107.998 19.2301 107.998 18.3949C107.998 17.571 107.879 16.8494 107.64 16.2301C107.407 15.6108 107.061 15.1307 106.6 14.7898C106.146 14.4432 105.586 14.2699 104.921 14.2699C104.234 14.2699 103.66 14.4489 103.2 14.8068C102.74 15.1648 102.393 15.6562 102.16 16.2812C101.927 16.9006 101.811 17.6051 101.811 18.3949C101.811 19.196 101.927 19.8977 102.16 20.5C102.399 21.0966 102.748 21.5625 103.208 21.8977C103.674 22.2273 104.245 22.392 104.921 22.392ZM113.123 25V11.9091H116.208V25H113.123ZM114.674 10.0511C114.185 10.0511 113.765 9.8892 113.412 9.56534C113.06 9.23579 112.884 8.84091 112.884 8.38068C112.884 7.91477 113.06 7.51989 113.412 7.19602C113.765 6.86648 114.185 6.7017 114.674 6.7017C115.168 6.7017 115.589 6.86648 115.935 7.19602C116.287 7.51989 116.464 7.91477 116.464 8.38068C116.464 8.84091 116.287 9.23579 115.935 9.56534C115.589 9.8892 115.168 10.0511 114.674 10.0511ZM124.096 25.2557C122.783 25.2557 121.65 24.983 120.695 24.4375C119.747 23.8864 119.016 23.108 118.505 22.1023C117.994 21.0909 117.738 19.9006 117.738 18.5312C117.738 17.1847 117.994 16.0028 118.505 14.9858C119.022 13.9631 119.744 13.1676 120.67 12.5994C121.596 12.0256 122.684 11.7386 123.934 11.7386C124.741 11.7386 125.502 11.8693 126.218 12.1307C126.94 12.3864 127.576 12.7841 128.127 13.3239C128.684 13.8636 129.122 14.5511 129.44 15.3864C129.758 16.2159 129.917 17.2045 129.917 18.3523V19.2983H119.187V17.2188H126.96C126.954 16.6278 126.826 16.1023 126.576 15.642C126.326 15.1761 125.977 14.8097 125.528 14.5426C125.085 14.2756 124.568 14.142 123.977 14.142C123.346 14.142 122.792 14.2955 122.315 14.6023C121.837 14.9034 121.465 15.3011 121.198 15.7955C120.937 16.2841 120.803 16.821 120.798 17.4062V19.2216C120.798 19.983 120.937 20.6364 121.215 21.1818C121.494 21.7216 121.883 22.1364 122.383 22.4261C122.883 22.7102 123.468 22.8523 124.139 22.8523C124.587 22.8523 124.994 22.7898 125.357 22.6648C125.721 22.5341 126.036 22.3438 126.303 22.0938C126.57 21.8438 126.772 21.5341 126.908 21.1648L129.789 21.4886C129.607 22.25 129.261 22.9148 128.749 23.483C128.244 24.0455 127.596 24.483 126.806 24.7955C126.016 25.1023 125.113 25.2557 124.096 25.2557Z" fill="white"/>
<path d="M22.48 25.3333H25.6133C25.8533 25.3333 26.0667 25.1999 26.1867 24.9999L29.4 19.3999C29.52 19.1999 29.52 18.9466 29.4 18.7466L23.2133 7.67991C22.96 7.22658 22.32 7.22659 22.0533 7.66658L20.3733 10.4799C20.2533 10.6933 20.2533 10.9466 20.3733 11.1466L24.72 18.7466C24.84 18.9466 24.84 19.1999 24.72 19.4132L21.88 24.3466C21.6533 24.7732 21.9733 25.3333 22.48 25.3333Z" fill="white"/>
<path d="M13.1466 25.3333H16.2799C16.5199 25.3333 16.7333 25.1999 16.8533 24.9999L20.0666 19.3999C20.1866 19.1999 20.1866 18.9466 20.0666 18.7466L13.88 7.67991C13.6266 7.22658 12.9866 7.22659 12.72 7.66658L11.04 10.4799C10.92 10.6933 10.92 10.9466 11.04 11.1466L15.3866 18.7466C15.5066 18.9466 15.5066 19.1999 15.3866 19.4132L12.5466 24.3466C12.32 24.7732 12.6399 25.3333 13.1466 25.3333Z" fill="white"/>
<path d="M2.40002 25.3333H6.68005C6.92005 25.3333 7.14672 25.1999 7.26672 24.9999L10.4934 19.2799C10.6134 19.0799 10.6134 18.8266 10.4934 18.6133L9.00004 16.0532C8.74671 15.6132 8.10673 15.6132 7.85339 16.0532L2.40002 25.3333Z" fill="white"/>
</svg>
