<svg width="379" height="378" viewBox="0 0 379 378" fill="none" xmlns="http://www.w3.org/2000/svg">
<g clip-path="url(#clip0_353_1730)">
<rect width="379" height="378" rx="16" fill="#F5F7FF"/>
<g filter="url(#filter0_d_353_1730)">
<rect x="68" y="77" width="244" height="224.737" rx="8.5614" fill="white"/>
<path d="M90.8136 100.264C90.771 99.8661 90.5916 99.556 90.2755 99.3341C89.9623 99.1122 89.5549 99.0012 89.0533 99.0012C88.7006 99.0012 88.3981 99.0544 88.1457 99.1608C87.8934 99.2672 87.7003 99.4116 87.5666 99.594C87.4328 99.7765 87.3644 99.9847 87.3614 100.219C87.3614 100.413 87.4054 100.582 87.4936 100.725C87.5848 100.868 87.7079 100.99 87.863 101.09C88.0181 101.187 88.1898 101.269 88.3783 101.336C88.5668 101.403 88.7568 101.459 88.9484 101.505L89.824 101.724C90.1766 101.806 90.5156 101.917 90.8409 102.057C91.1693 102.197 91.4627 102.373 91.7211 102.586C91.9826 102.798 92.1893 103.055 92.3413 103.356C92.4933 103.657 92.5693 104.01 92.5693 104.414C92.5693 104.962 92.4295 105.444 92.1498 105.86C91.8701 106.274 91.4657 106.597 90.9367 106.831C90.4107 107.062 89.7738 107.178 89.0259 107.178C88.2993 107.178 87.6684 107.066 87.1333 106.841C86.6013 106.616 86.1848 106.287 85.8838 105.855C85.5858 105.424 85.4247 104.898 85.4004 104.278H87.0649C87.0893 104.603 87.1896 104.873 87.3659 105.089C87.5423 105.305 87.7718 105.466 88.0545 105.573C88.3403 105.679 88.6596 105.732 89.0122 105.732C89.3801 105.732 89.7024 105.678 89.979 105.568C90.2587 105.456 90.4776 105.301 90.6357 105.103C90.7938 104.902 90.8744 104.668 90.8774 104.401C90.8744 104.157 90.8029 103.957 90.6631 103.799C90.5232 103.638 90.3271 103.504 90.0748 103.397C89.8255 103.288 89.5336 103.191 89.1992 103.106L88.1366 102.832C87.3674 102.634 86.7594 102.335 86.3125 101.934C85.8686 101.529 85.6466 100.993 85.6466 100.324C85.6466 99.7734 85.7956 99.2915 86.0936 98.8781C86.3946 98.4646 86.8035 98.1438 87.3203 97.9158C87.8372 97.6847 88.4224 97.5692 89.0761 97.5692C89.7388 97.5692 90.3195 97.6847 90.8181 97.9158C91.3198 98.1438 91.7135 98.4615 91.9993 98.8689C92.2851 99.2733 92.4325 99.7384 92.4417 100.264H90.8136ZM96.4823 107.173C95.783 107.173 95.1826 107.02 94.6809 106.713C94.1823 106.406 93.7977 105.982 93.5272 105.44C93.2596 104.896 93.1258 104.27 93.1258 103.562C93.1258 102.85 93.2627 102.222 93.5363 101.678C93.8099 101.131 94.196 100.705 94.6946 100.401C95.1963 100.094 95.7891 99.9406 96.4732 99.9406C97.0417 99.9406 97.5449 100.046 97.9827 100.255C98.4235 100.462 98.7747 100.755 99.0361 101.135C99.2976 101.512 99.4466 101.953 99.4831 102.458H97.9052C97.8413 102.121 97.6893 101.839 97.4491 101.614C97.212 101.386 96.8943 101.272 96.496 101.272C96.1585 101.272 95.8621 101.363 95.6067 101.546C95.3513 101.725 95.1522 101.984 95.0093 102.321C94.8694 102.659 94.7995 103.063 94.7995 103.534C94.7995 104.012 94.8694 104.422 95.0093 104.766C95.1491 105.106 95.3452 105.369 95.5976 105.554C95.853 105.737 96.1524 105.828 96.496 105.828C96.7392 105.828 96.9566 105.783 97.1481 105.691C97.3427 105.597 97.5054 105.462 97.6361 105.285C97.7668 105.109 97.8565 104.895 97.9052 104.642H99.4831C99.4435 105.138 99.2976 105.577 99.0453 105.96C98.7929 106.34 98.4494 106.638 98.0146 106.854C97.5798 107.067 97.0691 107.173 96.4823 107.173ZM101.912 102.932V107.037H100.261V97.6969H101.875V101.222H101.957C102.121 100.827 102.375 100.515 102.719 100.287C103.065 100.056 103.506 99.9406 104.041 99.9406C104.528 99.9406 104.952 100.042 105.314 100.246C105.675 100.45 105.955 100.748 106.153 101.14C106.353 101.532 106.454 102.011 106.454 102.577V107.037H104.803V102.832C104.803 102.361 104.681 101.994 104.438 101.733C104.198 101.468 103.86 101.336 103.426 101.336C103.134 101.336 102.872 101.4 102.641 101.528C102.413 101.652 102.234 101.833 102.103 102.07C101.975 102.307 101.912 102.595 101.912 102.932ZM110.66 107.173C109.957 107.173 109.351 107.028 108.84 106.736C108.332 106.441 107.942 106.024 107.668 105.486C107.394 104.945 107.258 104.308 107.258 103.575C107.258 102.855 107.394 102.222 107.668 101.678C107.945 101.131 108.331 100.705 108.826 100.401C109.322 100.094 109.904 99.9406 110.573 99.9406C111.005 99.9406 111.412 100.011 111.795 100.15C112.181 100.287 112.522 100.5 112.817 100.789C113.115 101.078 113.349 101.446 113.519 101.892C113.689 102.336 113.775 102.865 113.775 103.48V103.986H108.033V102.873H112.192C112.189 102.557 112.121 102.276 111.987 102.029C111.853 101.78 111.666 101.584 111.426 101.441C111.189 101.298 110.912 101.227 110.596 101.227C110.258 101.227 109.962 101.309 109.707 101.473C109.451 101.634 109.252 101.847 109.109 102.111C108.969 102.373 108.898 102.66 108.895 102.973V103.945C108.895 104.352 108.969 104.702 109.118 104.994C109.267 105.282 109.476 105.504 109.743 105.659C110.011 105.811 110.324 105.887 110.683 105.887C110.923 105.887 111.14 105.854 111.335 105.787C111.529 105.717 111.698 105.615 111.841 105.482C111.984 105.348 112.092 105.182 112.165 104.984L113.706 105.158C113.609 105.565 113.423 105.921 113.15 106.225C112.879 106.526 112.533 106.76 112.11 106.927C111.687 107.091 111.204 107.173 110.66 107.173ZM117.193 107.16C116.642 107.16 116.15 107.018 115.715 106.736C115.28 106.453 114.937 106.042 114.684 105.504C114.432 104.966 114.306 104.313 114.306 103.543C114.306 102.765 114.434 102.108 114.689 101.573C114.947 101.035 115.296 100.629 115.733 100.356C116.171 100.079 116.659 99.9406 117.197 99.9406C117.608 99.9406 117.945 100.011 118.21 100.15C118.474 100.287 118.684 100.453 118.839 100.647C118.994 100.839 119.114 101.02 119.199 101.19H119.268V97.6969H120.923V107.037H119.3V105.933H119.199C119.114 106.103 118.991 106.284 118.83 106.476C118.669 106.664 118.456 106.825 118.191 106.959C117.927 107.093 117.594 107.16 117.193 107.16ZM117.653 105.805C118.003 105.805 118.301 105.711 118.547 105.523C118.793 105.331 118.98 105.065 119.108 104.724C119.236 104.384 119.3 103.987 119.3 103.534C119.3 103.081 119.236 102.688 119.108 102.353C118.983 102.019 118.798 101.759 118.552 101.573C118.308 101.388 118.009 101.295 117.653 101.295C117.285 101.295 116.978 101.391 116.732 101.582C116.486 101.774 116.3 102.038 116.176 102.376C116.051 102.713 115.989 103.099 115.989 103.534C115.989 103.972 116.051 104.363 116.176 104.706C116.303 105.047 116.49 105.316 116.737 105.513C116.986 105.708 117.291 105.805 117.653 105.805ZM126.569 104.091V100.032H128.22V107.037H126.619V105.792H126.546C126.388 106.184 126.128 106.505 125.766 106.754C125.408 107.003 124.965 107.128 124.439 107.128C123.98 107.128 123.574 107.026 123.222 106.822C122.872 106.616 122.598 106.316 122.401 105.924C122.203 105.529 122.104 105.051 122.104 104.492V100.032H123.755V104.237C123.755 104.68 123.877 105.033 124.12 105.295C124.363 105.556 124.683 105.687 125.078 105.687C125.321 105.687 125.557 105.627 125.785 105.509C126.013 105.39 126.2 105.214 126.346 104.98C126.495 104.743 126.569 104.446 126.569 104.091ZM130.99 97.6969V107.037H129.34V97.6969H130.99ZM135.211 107.173C134.509 107.173 133.902 107.028 133.392 106.736C132.884 106.441 132.493 106.024 132.22 105.486C131.946 104.945 131.809 104.308 131.809 103.575C131.809 102.855 131.946 102.222 132.22 101.678C132.496 101.131 132.882 100.705 133.378 100.401C133.874 100.094 134.456 99.9406 135.125 99.9406C135.556 99.9406 135.964 100.011 136.347 100.15C136.733 100.287 137.073 100.5 137.368 100.789C137.666 101.078 137.9 101.446 138.071 101.892C138.241 102.336 138.326 102.865 138.326 103.48V103.986H132.584V102.873H136.744C136.741 102.557 136.672 102.276 136.538 102.029C136.405 101.78 136.218 101.584 135.977 101.441C135.74 101.298 135.464 101.227 135.147 101.227C134.81 101.227 134.514 101.309 134.258 101.473C134.003 101.634 133.804 101.847 133.661 102.111C133.521 102.373 133.449 102.66 133.446 102.973V103.945C133.446 104.352 133.521 104.702 133.67 104.994C133.819 105.282 134.027 105.504 134.295 105.659C134.562 105.811 134.875 105.887 135.234 105.887C135.474 105.887 135.692 105.854 135.886 105.787C136.081 105.717 136.249 105.615 136.392 105.482C136.535 105.348 136.643 105.182 136.716 104.984L138.258 105.158C138.16 105.565 137.975 105.921 137.701 106.225C137.431 106.526 137.084 106.76 136.661 106.927C136.239 107.091 135.755 107.173 135.211 107.173Z" fill="#232323"/>
<path d="M90.4615 166.277C91.0169 166.281 91.5641 166.383 92.1033 166.581C92.6424 166.78 93.1289 167.104 93.5626 167.554C94.0004 168.004 94.349 168.612 94.6084 169.379C94.8719 170.141 95.0057 171.089 95.0098 172.224C95.0098 173.315 94.9003 174.286 94.6814 175.137C94.4625 175.984 94.1484 176.699 93.7389 177.283C93.3336 177.867 92.841 178.311 92.2614 178.615C91.6817 178.919 91.029 179.071 90.3034 179.071C89.5616 179.071 88.9029 178.925 88.3272 178.633C87.7516 178.341 87.2834 177.938 86.9226 177.423C86.5619 176.904 86.3369 176.308 86.2477 175.635H88.1023C88.2239 176.17 88.4712 176.604 88.8441 176.937C89.2211 177.265 89.7075 177.429 90.3034 177.429C91.2155 177.429 91.9269 177.032 92.4377 176.237C92.9485 175.439 93.2059 174.324 93.2099 172.893H93.1126C92.9018 173.242 92.6384 173.542 92.3222 173.793C92.01 174.044 91.6594 174.239 91.2702 174.377C90.8811 174.515 90.4656 174.583 90.0237 174.583C89.3062 174.583 88.6536 174.407 88.0658 174.054C87.478 173.702 87.0098 173.217 86.6612 172.601C86.3126 171.985 86.1383 171.282 86.1383 170.491C86.1383 169.705 86.3166 168.991 86.6733 168.351C87.0341 167.71 87.5368 167.204 88.1813 166.831C88.8299 166.454 89.59 166.269 90.4615 166.277ZM90.4676 167.858C89.9933 167.858 89.5657 167.976 89.1846 168.211C88.8076 168.442 88.5097 168.756 88.2908 169.154C88.0719 169.547 87.9624 169.985 87.9624 170.467C87.9624 170.949 88.0678 171.387 88.2786 171.78C88.4934 172.169 88.7853 172.48 89.1542 172.711C89.5271 172.938 89.9528 173.051 90.4311 173.051C90.7878 173.051 91.1202 172.982 91.4283 172.844C91.7364 172.707 92.006 172.516 92.237 172.273C92.4681 172.026 92.6485 171.746 92.7782 171.434C92.9079 171.122 92.9728 170.793 92.9728 170.449C92.9728 169.991 92.8633 169.565 92.6444 169.172C92.4296 168.779 92.1337 168.462 91.7567 168.223C91.3797 167.98 90.95 167.858 90.4676 167.858ZM97.658 177.356C97.3256 177.356 97.0398 177.239 96.8007 177.004C96.5615 176.764 96.4419 176.477 96.4419 176.14C96.4419 175.808 96.5615 175.524 96.8007 175.289C97.0398 175.05 97.3256 174.93 97.658 174.93C97.9904 174.93 98.2762 175.05 98.5154 175.289C98.7545 175.524 98.8741 175.808 98.8741 176.14C98.8741 176.363 98.8174 176.568 98.7039 176.754C98.5944 176.937 98.4485 177.083 98.2661 177.192C98.0837 177.301 97.881 177.356 97.658 177.356ZM97.658 171.118C97.3256 171.118 97.0398 171 96.8007 170.765C96.5615 170.526 96.4419 170.238 96.4419 169.901C96.4419 169.569 96.5615 169.285 96.8007 169.05C97.0398 168.811 97.3256 168.691 97.658 168.691C97.9904 168.691 98.2762 168.811 98.5154 169.05C98.7545 169.285 98.8741 169.569 98.8741 169.901C98.8741 170.124 98.8174 170.329 98.7039 170.516C98.5944 170.698 98.4485 170.844 98.2661 170.953C98.0837 171.063 97.881 171.118 97.658 171.118ZM104.85 179.107C103.889 179.103 103.068 178.85 102.387 178.347C101.706 177.845 101.185 177.113 100.825 176.152C100.464 175.192 100.283 174.034 100.283 172.68C100.283 171.33 100.464 170.177 100.825 169.22C101.189 168.264 101.712 167.534 102.393 167.031C103.079 166.529 103.897 166.277 104.85 166.277C105.803 166.277 106.619 166.531 107.3 167.037C107.981 167.54 108.502 168.27 108.863 169.226C109.228 170.179 109.41 171.33 109.41 172.68C109.41 174.038 109.23 175.198 108.869 176.158C108.508 177.115 107.988 177.847 107.307 178.353C106.625 178.856 105.807 179.107 104.85 179.107ZM104.85 177.484C105.693 177.484 106.352 177.072 106.826 176.25C107.304 175.427 107.544 174.237 107.544 172.68C107.544 171.647 107.434 170.773 107.215 170.06C107 169.342 106.69 168.799 106.285 168.43C105.884 168.057 105.405 167.871 104.85 167.871C104.011 167.871 103.352 168.284 102.874 169.111C102.395 169.938 102.154 171.128 102.15 172.68C102.15 173.718 102.258 174.596 102.472 175.313C102.691 176.027 103.001 176.568 103.403 176.937C103.804 177.301 104.287 177.484 104.85 177.484ZM115.132 179.107C114.172 179.103 113.351 178.85 112.67 178.347C111.989 177.845 111.468 177.113 111.107 176.152C110.746 175.192 110.566 174.034 110.566 172.68C110.566 171.33 110.746 170.177 111.107 169.22C111.472 168.264 111.995 167.534 112.676 167.031C113.361 166.529 114.18 166.277 115.132 166.277C116.085 166.277 116.902 166.531 117.583 167.037C118.264 167.54 118.785 168.27 119.146 169.226C119.51 170.179 119.693 171.33 119.693 172.68C119.693 174.038 119.512 175.198 119.152 176.158C118.791 177.115 118.27 177.847 117.589 178.353C116.908 178.856 116.089 179.107 115.132 179.107ZM115.132 177.484C115.976 177.484 116.634 177.072 117.109 176.25C117.587 175.427 117.826 174.237 117.826 172.68C117.826 171.647 117.717 170.773 117.498 170.06C117.283 169.342 116.973 168.799 116.567 168.43C116.166 168.057 115.688 167.871 115.132 167.871C114.293 167.871 113.635 168.284 113.156 169.111C112.678 169.938 112.437 171.128 112.433 172.68C112.433 173.718 112.54 174.596 112.755 175.313C112.974 176.027 113.284 176.568 113.685 176.937C114.086 177.301 114.569 177.484 115.132 177.484Z" fill="#232323"/>
<path d="M91.0453 209.968V222.421H89.1603V211.853H89.0873L86.1079 213.799V211.999L89.215 209.968H91.0453ZM98.3679 209.968V222.421H96.483V211.853H96.41L93.4305 213.799V211.999L96.5377 209.968H98.3679ZM102.188 220.877C101.856 220.877 101.57 220.759 101.331 220.524C101.092 220.285 100.972 219.997 100.972 219.66C100.972 219.328 101.092 219.044 101.331 218.809C101.57 218.57 101.856 218.45 102.188 218.45C102.521 218.45 102.806 218.57 103.046 218.809C103.285 219.044 103.404 219.328 103.404 219.66C103.404 219.883 103.348 220.088 103.234 220.275C103.125 220.457 102.979 220.603 102.796 220.712C102.614 220.822 102.411 220.877 102.188 220.877ZM102.188 214.638C101.856 214.638 101.57 214.52 101.331 214.285C101.092 214.046 100.972 213.758 100.972 213.422C100.972 213.089 101.092 212.806 101.331 212.571C101.57 212.331 101.856 212.212 102.188 212.212C102.521 212.212 102.806 212.331 103.046 212.571C103.285 212.806 103.404 213.089 103.404 213.422C103.404 213.645 103.348 213.849 103.234 214.036C103.125 214.218 102.979 214.364 102.796 214.474C102.614 214.583 102.411 214.638 102.188 214.638ZM109.38 222.628C108.419 222.624 107.599 222.37 106.918 221.868C106.237 221.365 105.716 220.633 105.355 219.673C104.994 218.712 104.814 217.555 104.814 216.201C104.814 214.851 104.994 213.697 105.355 212.741C105.72 211.784 106.243 211.054 106.924 210.552C107.609 210.049 108.428 209.798 109.38 209.798C110.333 209.798 111.15 210.051 111.831 210.558C112.512 211.061 113.033 211.79 113.393 212.747C113.758 213.699 113.941 214.851 113.941 216.201C113.941 217.559 113.76 218.718 113.399 219.679C113.039 220.635 112.518 221.367 111.837 221.874C111.156 222.376 110.337 222.628 109.38 222.628ZM109.38 221.004C110.223 221.004 110.882 220.593 111.356 219.77C111.835 218.947 112.074 217.757 112.074 216.201C112.074 215.167 111.964 214.293 111.745 213.58C111.531 212.862 111.221 212.319 110.815 211.95C110.414 211.577 109.936 211.391 109.38 211.391C108.541 211.391 107.882 211.804 107.404 212.631C106.926 213.458 106.684 214.648 106.68 216.201C106.68 217.238 106.788 218.116 107.003 218.834C107.222 219.547 107.532 220.088 107.933 220.457C108.334 220.822 108.817 221.004 109.38 221.004ZM119.663 222.628C118.702 222.624 117.881 222.37 117.2 221.868C116.519 221.365 115.998 220.633 115.637 219.673C115.276 218.712 115.096 217.555 115.096 216.201C115.096 214.851 115.276 213.697 115.637 212.741C116.002 211.784 116.525 211.054 117.206 210.552C117.891 210.049 118.71 209.798 119.663 209.798C120.615 209.798 121.432 210.051 122.113 210.558C122.794 211.061 123.315 211.79 123.676 212.747C124.041 213.699 124.223 214.851 124.223 216.201C124.223 217.559 124.043 218.718 123.682 219.679C123.321 220.635 122.8 221.367 122.119 221.874C121.438 222.376 120.619 222.628 119.663 222.628ZM119.663 221.004C120.506 221.004 121.164 220.593 121.639 219.77C122.117 218.947 122.356 217.757 122.356 216.201C122.356 215.167 122.247 214.293 122.028 213.58C121.813 212.862 121.503 212.319 121.098 211.95C120.696 211.577 120.218 211.391 119.663 211.391C118.823 211.391 118.165 211.804 117.686 212.631C117.208 213.458 116.967 214.648 116.963 216.201C116.963 217.238 117.07 218.116 117.285 218.834C117.504 219.547 117.814 220.088 118.215 220.457C118.617 220.822 119.099 221.004 119.663 221.004Z" fill="#232323"/>
<rect x="167.577" y="176.083" width="104.877" height="8.5614" rx="4.2807" fill="#E2E2E2"/>
<rect x="167.577" y="160.387" width="54.9357" height="8.5614" rx="4.2807" fill="#E2E2E2"/>
<rect x="167.271" y="219.604" width="104.877" height="8.5614" rx="4.2807" fill="#E2E2E2"/>
<rect x="167.271" y="203.908" width="54.9357" height="8.5614" rx="4.2807" fill="#E2E2E2"/>
<rect x="147.193" y="156.107" width="3.56725" height="32.1053" fill="#0984E3"/>
<rect x="146.887" y="199.627" width="3.56725" height="32.1053" fill="#F39C12"/>
<rect x="85.1228" y="248.942" width="209.754" height="35.6725" rx="8.5614" fill="#0984E3"/>
<path d="M148.117 263.055L150.428 269.816H150.521L152.832 263.055H154.186L151.198 271.357H149.751L146.763 263.055H148.117ZM154.773 271.357V265.13H155.986V271.357H154.773ZM155.386 264.17C155.175 264.17 154.994 264.099 154.842 263.959C154.694 263.816 154.619 263.645 154.619 263.448C154.619 263.248 154.694 263.078 154.842 262.937C154.994 262.794 155.175 262.722 155.386 262.722C155.596 262.722 155.776 262.794 155.925 262.937C156.076 263.078 156.152 263.248 156.152 263.448C156.152 263.645 156.076 263.816 155.925 263.959C155.776 264.099 155.596 264.17 155.386 264.17ZM159.786 271.482C159.173 271.482 158.644 271.351 158.201 271.089C157.76 270.824 157.42 270.453 157.179 269.975C156.942 269.493 156.823 268.93 156.823 268.284C156.823 267.646 156.942 267.084 157.179 266.598C157.42 266.111 157.755 265.732 158.185 265.459C158.617 265.186 159.123 265.049 159.701 265.049C160.052 265.049 160.393 265.107 160.722 265.224C161.052 265.34 161.348 265.522 161.61 265.771C161.872 266.019 162.079 266.342 162.23 266.74C162.382 267.134 162.457 267.614 162.457 268.179V268.608H157.508V267.7H161.27C161.27 267.381 161.205 267.099 161.075 266.853C160.945 266.605 160.763 266.409 160.528 266.265C160.295 266.122 160.022 266.051 159.709 266.051C159.368 266.051 159.071 266.134 158.817 266.302C158.566 266.467 158.371 266.683 158.233 266.95C158.098 267.215 158.031 267.503 158.031 267.814V268.523C158.031 268.939 158.104 269.293 158.25 269.585C158.398 269.877 158.605 270.1 158.87 270.254C159.135 270.406 159.444 270.481 159.798 270.481C160.028 270.481 160.237 270.449 160.426 270.384C160.616 270.316 160.779 270.216 160.917 270.084C161.055 269.952 161.16 269.788 161.233 269.593L162.38 269.8C162.288 270.138 162.124 270.434 161.886 270.688C161.651 270.939 161.355 271.135 160.998 271.276C160.644 271.414 160.24 271.482 159.786 271.482ZM164.627 271.357L162.795 265.13H164.048L165.268 269.703H165.329L166.553 265.13H167.805L169.021 269.683H169.082L170.294 265.13H171.547L169.719 271.357H168.482L167.218 266.861H167.124L165.86 271.357H164.627ZM176.503 271.495C176.108 271.495 175.751 271.422 175.433 271.276C175.114 271.127 174.861 270.912 174.675 270.631C174.491 270.35 174.399 270.006 174.399 269.598C174.399 269.246 174.466 268.957 174.602 268.73C174.737 268.503 174.919 268.323 175.149 268.191C175.379 268.058 175.635 267.958 175.919 267.891C176.203 267.823 176.492 267.772 176.787 267.737C177.159 267.694 177.462 267.658 177.695 267.631C177.927 267.602 178.096 267.554 178.201 267.49C178.307 267.425 178.359 267.319 178.359 267.173V267.145C178.359 266.791 178.259 266.517 178.059 266.322C177.862 266.128 177.568 266.03 177.176 266.03C176.768 266.03 176.446 266.121 176.211 266.302C175.979 266.48 175.818 266.679 175.729 266.898L174.589 266.638C174.725 266.26 174.922 265.955 175.181 265.722C175.443 265.487 175.745 265.317 176.085 265.211C176.426 265.103 176.784 265.049 177.159 265.049C177.408 265.049 177.672 265.079 177.95 265.138C178.231 265.195 178.493 265.301 178.736 265.455C178.982 265.609 179.184 265.829 179.34 266.115C179.497 266.399 179.575 266.768 179.575 267.222V271.357H178.392V270.506H178.343C178.265 270.662 178.147 270.816 177.99 270.968C177.834 271.119 177.632 271.245 177.386 271.345C177.141 271.445 176.846 271.495 176.503 271.495ZM176.766 270.522C177.101 270.522 177.388 270.456 177.626 270.323C177.866 270.191 178.049 270.018 178.173 269.804C178.3 269.588 178.363 269.357 178.363 269.111V268.308C178.32 268.352 178.236 268.392 178.112 268.43C177.99 268.465 177.851 268.496 177.695 268.523C177.538 268.548 177.385 268.571 177.236 268.592C177.088 268.611 176.964 268.627 176.864 268.641C176.628 268.671 176.414 268.721 176.219 268.791C176.027 268.861 175.873 268.962 175.757 269.095C175.643 269.225 175.587 269.398 175.587 269.614C175.587 269.914 175.697 270.141 175.919 270.295C176.141 270.446 176.423 270.522 176.766 270.522ZM181.888 263.055V271.357H180.676V263.055H181.888ZM184.217 263.055V271.357H183.005V263.055H184.217ZM192.507 266.65L191.409 266.845C191.363 266.705 191.29 266.571 191.19 266.444C191.093 266.317 190.96 266.213 190.793 266.132C190.625 266.051 190.416 266.01 190.164 266.01C189.821 266.01 189.535 266.087 189.305 266.241C189.075 266.392 188.96 266.588 188.96 266.829C188.96 267.037 189.037 267.204 189.191 267.331C189.345 267.459 189.594 267.563 189.937 267.644L190.926 267.871C191.499 268.003 191.926 268.207 192.207 268.483C192.488 268.758 192.629 269.116 192.629 269.557C192.629 269.93 192.521 270.262 192.305 270.554C192.091 270.843 191.792 271.07 191.409 271.235C191.028 271.4 190.586 271.482 190.083 271.482C189.386 271.482 188.817 271.334 188.377 271.037C187.936 270.737 187.666 270.311 187.566 269.76L188.737 269.581C188.81 269.887 188.96 270.118 189.187 270.274C189.414 270.429 189.71 270.506 190.075 270.506C190.472 270.506 190.79 270.423 191.028 270.258C191.265 270.091 191.384 269.887 191.384 269.646C191.384 269.452 191.311 269.288 191.165 269.156C191.022 269.023 190.802 268.923 190.505 268.856L189.451 268.625C188.87 268.492 188.44 268.281 188.162 267.992C187.886 267.703 187.748 267.337 187.748 266.894C187.748 266.526 187.851 266.205 188.056 265.929C188.262 265.653 188.545 265.438 188.908 265.284C189.27 265.128 189.685 265.049 190.152 265.049C190.825 265.049 191.355 265.195 191.741 265.487C192.128 265.776 192.383 266.164 192.507 266.65ZM196.071 271.482C195.468 271.482 194.949 271.346 194.514 271.073C194.082 270.797 193.749 270.418 193.517 269.934C193.284 269.45 193.168 268.896 193.168 268.272C193.168 267.64 193.287 267.082 193.525 266.598C193.763 266.111 194.098 265.732 194.53 265.459C194.963 265.186 195.472 265.049 196.058 265.049C196.531 265.049 196.953 265.137 197.323 265.313C197.693 265.486 197.992 265.729 198.219 266.042C198.449 266.356 198.585 266.722 198.628 267.141H197.449C197.384 266.849 197.235 266.598 197.003 266.387C196.773 266.176 196.465 266.071 196.079 266.071C195.741 266.071 195.445 266.16 195.191 266.338C194.94 266.514 194.744 266.765 194.603 267.092C194.463 267.417 194.392 267.8 194.392 268.244C194.392 268.698 194.461 269.089 194.599 269.419C194.737 269.749 194.931 270.004 195.183 270.185C195.437 270.366 195.735 270.457 196.079 270.457C196.308 270.457 196.516 270.415 196.703 270.331C196.892 270.245 197.05 270.122 197.177 269.962C197.307 269.803 197.397 269.611 197.449 269.387H198.628C198.585 269.789 198.454 270.149 198.235 270.465C198.016 270.781 197.723 271.03 197.356 271.211C196.991 271.392 196.562 271.482 196.071 271.482ZM200.623 267.66V271.357H199.411V263.055H200.607V266.144H200.684C200.83 265.809 201.053 265.542 201.353 265.345C201.653 265.148 202.044 265.049 202.528 265.049C202.955 265.049 203.328 265.137 203.647 265.313C203.969 265.488 204.217 265.751 204.393 266.099C204.571 266.445 204.66 266.877 204.66 267.396V271.357H203.448V267.542C203.448 267.086 203.331 266.732 203.096 266.48C202.861 266.226 202.534 266.099 202.115 266.099C201.828 266.099 201.572 266.16 201.345 266.282C201.12 266.403 200.943 266.582 200.814 266.817C200.687 267.049 200.623 267.33 200.623 267.66ZM208.448 271.482C207.834 271.482 207.306 271.351 206.863 271.089C206.422 270.824 206.082 270.453 205.841 269.975C205.603 269.493 205.485 268.93 205.485 268.284C205.485 267.646 205.603 267.084 205.841 266.598C206.082 266.111 206.417 265.732 206.847 265.459C207.279 265.186 207.784 265.049 208.363 265.049C208.714 265.049 209.054 265.107 209.384 265.224C209.714 265.34 210.01 265.522 210.272 265.771C210.534 266.019 210.741 266.342 210.892 266.74C211.043 267.134 211.119 267.614 211.119 268.179V268.608L206.17 268.608V267.7H209.931C209.931 267.381 209.867 267.099 209.737 266.853C209.607 266.605 209.425 266.409 209.19 266.265C208.957 266.122 208.684 266.051 208.371 266.051C208.03 266.051 207.733 266.134 207.479 266.302C207.228 266.467 207.033 266.683 206.895 266.95C206.76 267.215 206.693 267.503 206.693 267.814V268.523C206.693 268.939 206.765 269.293 206.911 269.585C207.06 269.877 207.267 270.1 207.532 270.254C207.796 270.406 208.106 270.481 208.46 270.481C208.69 270.481 208.899 270.449 209.088 270.384C209.277 270.316 209.441 270.216 209.579 270.084C209.717 269.952 209.822 269.788 209.895 269.593L211.042 269.8C210.95 270.138 210.785 270.434 210.548 270.688C210.312 270.939 210.017 271.135 209.66 271.276C209.306 271.414 208.902 271.482 208.448 271.482ZM214.281 271.478C213.778 271.478 213.33 271.35 212.935 271.093C212.543 270.834 212.235 270.465 212.011 269.987C211.789 269.506 211.679 268.929 211.679 268.256C211.679 267.583 211.791 267.007 212.015 266.529C212.242 266.051 212.553 265.684 212.947 265.43C213.342 265.176 213.789 265.049 214.289 265.049C214.676 265.049 214.986 265.114 215.222 265.244C215.459 265.371 215.643 265.519 215.773 265.69C215.905 265.86 216.008 266.01 216.081 266.14H216.154V263.055H217.366V271.357H216.182V270.388H216.081C216.008 270.52 215.903 270.672 215.765 270.842C215.63 271.012 215.443 271.161 215.205 271.288C214.968 271.415 214.659 271.478 214.281 271.478ZM214.549 270.445C214.897 270.445 215.192 270.353 215.432 270.169C215.676 269.983 215.859 269.725 215.984 269.395C216.111 269.065 216.174 268.681 216.174 268.244C216.174 267.811 216.112 267.433 215.988 267.109C215.863 266.784 215.681 266.532 215.441 266.35C215.2 266.169 214.903 266.079 214.549 266.079C214.184 266.079 213.88 266.173 213.637 266.363C213.393 266.552 213.21 266.81 213.085 267.137C212.964 267.464 212.903 267.833 212.903 268.244C212.903 268.66 212.965 269.034 213.089 269.366C213.214 269.699 213.397 269.962 213.641 270.157C213.887 270.349 214.189 270.445 214.549 270.445ZM222.526 268.775V265.13H223.743V271.357H222.551V270.279H222.486C222.343 270.611 222.113 270.888 221.797 271.11C221.483 271.328 221.093 271.438 220.625 271.438C220.225 271.438 219.871 271.35 219.563 271.174C219.258 270.996 219.017 270.733 218.842 270.384C218.669 270.035 218.582 269.604 218.582 269.091V265.13H219.794V268.945C219.794 269.369 219.912 269.707 220.147 269.958C220.382 270.21 220.687 270.335 221.063 270.335C221.29 270.335 221.516 270.279 221.74 270.165C221.967 270.052 222.155 269.88 222.304 269.65C222.455 269.42 222.529 269.129 222.526 268.775ZM226.07 263.055V271.357H224.857V263.055H226.07ZM229.87 271.482C229.257 271.482 228.728 271.351 228.285 271.089C227.845 270.824 227.504 270.453 227.263 269.975C227.026 269.493 226.907 268.93 226.907 268.284C226.907 267.646 227.026 267.084 227.263 266.598C227.504 266.111 227.839 265.732 228.269 265.459C228.701 265.186 229.207 265.049 229.785 265.049C230.136 265.049 230.477 265.107 230.806 265.224C231.136 265.34 231.432 265.522 231.694 265.771C231.956 266.019 232.163 266.342 232.314 266.74C232.466 267.134 232.541 267.614 232.541 268.179V268.608H227.592V267.7H231.354C231.354 267.381 231.289 267.099 231.159 266.853C231.029 266.605 230.847 266.409 230.612 266.265C230.379 266.122 230.106 266.051 229.793 266.051C229.452 266.051 229.155 266.134 228.901 266.302C228.65 266.467 228.455 266.683 228.317 266.95C228.182 267.215 228.115 267.503 228.115 267.814V268.523C228.115 268.939 228.188 269.293 228.334 269.585C228.482 269.877 228.689 270.1 228.954 270.254C229.219 270.406 229.528 270.481 229.882 270.481C230.112 270.481 230.321 270.449 230.51 270.384C230.7 270.316 230.863 270.216 231.001 270.084C231.139 269.952 231.244 269.788 231.317 269.593L232.464 269.8C232.372 270.138 232.208 270.434 231.97 270.688C231.735 270.939 231.439 271.135 231.082 271.276C230.728 271.414 230.324 271.482 229.87 271.482Z" fill="white"/>
<rect x="218.181" y="94.4795" width="71.345" height="16.4094" rx="3.92398" stroke="#232323" stroke-opacity="0.16" stroke-width="0.71345"/>
<rect x="226.386" y="98.4036" width="54.9357" height="8.5614" rx="4.2807" fill="#E2E2E2"/>
<rect x="84.8167" y="128.996" width="54.9357" height="8.5614" rx="4.2807" fill="#E2E2E2"/>
</g>
<path fill-rule="evenodd" clip-rule="evenodd" d="M328.243 327.023C325.272 324.581 322.866 321.673 321.057 318.285C320.695 317.61 319.853 317.353 319.172 317.715C318.497 318.076 318.239 318.918 318.601 319.6C320.591 323.308 323.22 326.494 326.476 329.172C327.067 329.659 327.951 329.576 328.438 328.984C328.925 328.386 328.834 327.51 328.243 327.023Z" fill="#394792"/>
<path fill-rule="evenodd" clip-rule="evenodd" d="M326.659 317.513C326.812 320.323 326.951 323.134 327.125 325.944C327.174 326.71 327.834 327.294 328.6 327.245C329.365 327.196 329.949 326.536 329.901 325.77C329.727 322.967 329.587 320.163 329.434 317.353C329.393 316.59 328.732 316.002 327.967 316.045C327.201 316.088 326.61 316.746 326.659 317.513Z" fill="#394792"/>
<path fill-rule="evenodd" clip-rule="evenodd" d="M336.987 318.083C335.206 320.769 333.189 323.245 331.157 325.75C330.67 326.348 330.761 327.224 331.359 327.704C331.957 328.191 332.834 328.101 333.314 327.503C335.401 324.936 337.474 322.383 339.31 319.621C339.735 318.981 339.554 318.118 338.914 317.694C338.281 317.27 337.411 317.443 336.987 318.083Z" fill="#394792"/>
<path fill-rule="evenodd" clip-rule="evenodd" d="M343.885 328.066C339.057 328.282 333.93 328.289 329.102 327.983C328.337 327.941 327.676 328.518 327.628 329.29C327.579 330.056 328.163 330.717 328.928 330.765C333.854 331.071 339.085 331.064 344.01 330.849C344.775 330.814 345.374 330.16 345.339 329.395C345.304 328.63 344.65 328.031 343.885 328.066Z" fill="#394792"/>
<path fill-rule="evenodd" clip-rule="evenodd" d="M326.472 328.949C329.45 332.595 332.531 336.17 335.293 339.983C335.745 340.602 336.615 340.741 337.241 340.289C337.86 339.836 337.999 338.967 337.547 338.348C334.751 334.494 331.634 330.876 328.622 327.189C328.135 326.598 327.258 326.508 326.667 326.995C326.069 327.482 325.985 328.358 326.472 328.949Z" fill="#394792"/>
<path fill-rule="evenodd" clip-rule="evenodd" d="M327.374 330.007C328.153 333.805 328.369 337.437 328.424 341.284C328.431 342.049 329.064 342.661 329.83 342.654C330.602 342.64 331.214 342.014 331.2 341.242C331.144 337.214 330.915 333.423 330.101 329.444C329.941 328.692 329.211 328.205 328.452 328.365C327.701 328.518 327.214 329.256 327.374 330.007Z" fill="#394792"/>
<path fill-rule="evenodd" clip-rule="evenodd" d="M327.5 329.701C325.246 334.209 324.084 339.218 321.67 343.628C321.301 344.296 321.552 345.145 322.226 345.513C322.901 345.882 323.743 345.632 324.112 344.964C326.54 340.526 327.715 335.489 329.99 330.946C330.331 330.258 330.053 329.423 329.371 329.075C328.682 328.734 327.847 329.013 327.5 329.701Z" fill="#394792"/>
<path fill-rule="evenodd" clip-rule="evenodd" d="M328.74 328.678C324.253 329.471 319.773 329.833 315.258 330.369C314.493 330.459 313.95 331.148 314.041 331.913C314.131 332.678 314.82 333.221 315.585 333.13C320.149 332.595 324.684 332.219 329.227 331.419C329.978 331.28 330.486 330.556 330.354 329.805C330.215 329.047 329.498 328.539 328.74 328.678Z" fill="#394792"/>
<path fill-rule="evenodd" clip-rule="evenodd" d="M331.862 326.564C330.937 326.522 330.06 326.459 329.156 326.327C328.391 326.216 327.688 326.745 327.577 327.503C327.466 328.261 327.994 328.971 328.752 329.082C329.754 329.228 330.721 329.298 331.737 329.339C332.502 329.374 333.156 328.783 333.184 328.011C333.219 327.246 332.627 326.599 331.862 326.564Z" fill="#394792"/>
<path fill-rule="evenodd" clip-rule="evenodd" d="M49.8831 52.912C49.8027 52.4353 49.7422 51.9639 49.7031 51.4924C49.6442 50.7853 49.6806 50.0728 49.6597 49.3656C49.6506 49.0656 49.6147 48.2835 49.6292 48.171C49.7604 47.1906 50.5517 47.0406 50.7831 47.0138C50.8951 46.9977 52.0447 46.8692 52.2927 48.1442C52.597 49.7032 52.6945 51.2728 52.5868 52.8103C52.8381 54.1174 53.2677 55.4192 53.8351 56.5978C56.0926 61.2853 60.3943 61.7406 65.055 61.6978C65.7718 61.687 66.367 62.2495 66.4045 62.962C66.442 63.6799 65.9085 64.3013 65.1949 64.3656C62.5897 64.6174 57.9675 66.7067 56.3695 68.8817C56.0352 69.3371 55.8408 70.4353 55.5836 71.5121C55.2247 73.0067 54.7977 74.4853 54.3193 75.1067C54.2476 75.2031 53.3749 76.1889 53.1145 76.3335C52.4888 76.6764 51.9879 76.4781 51.7035 76.296C51.419 76.1138 51.097 75.7549 50.9685 75.1603C50.834 74.5388 50.9476 73.2638 50.9267 72.9906C50.8506 71.9995 50.6524 70.0549 50.2479 68.3835C50.0299 67.4835 49.7974 66.6531 49.4127 66.2406C47.9888 64.7138 45.712 64.9388 43.7947 65.1906C43.5745 65.2174 43.3544 65.2496 43.1347 65.2764C42.3542 65.5067 41.5254 65.6781 40.6495 65.7799C39.3268 65.9353 39.1093 64.7192 39.0976 64.6388C39.0729 64.462 38.9813 63.5513 39.9783 63.1871C40.087 63.1496 40.8895 62.9728 41.1986 62.9031C41.6293 62.8067 42.0649 62.7317 42.502 62.6621C47.0175 61.2585 49.4701 57.3156 49.8831 52.912ZM51.4329 57.7817C53.1376 61.3067 55.7245 63.0103 58.7909 63.7817H58.7904C56.8758 64.7835 55.1342 66.0371 54.2111 67.296C53.8608 67.7728 53.5393 68.7317 53.2495 69.8085C53.0926 68.8067 52.8804 67.7406 52.6002 66.8299C52.2815 65.7906 51.8524 64.9282 51.3734 64.4139C50.4488 63.4228 49.2884 62.871 48.0408 62.5978C49.5343 61.2746 50.6668 59.6246 51.4329 57.7817Z" fill="#394792"/>
</g>
<defs>
<filter id="filter0_d_353_1730" x="32.3275" y="41.3275" width="358.152" height="338.889" filterUnits="userSpaceOnUse" color-interpolation-filters="sRGB">
<feFlood flood-opacity="0" result="BackgroundImageFix"/>
<feColorMatrix in="SourceAlpha" type="matrix" values="0 0 0 0 0 0 0 0 0 0 0 0 0 0 0 0 0 0 127 0" result="hardAlpha"/>
<feOffset dx="21.4035" dy="21.4035"/>
<feGaussianBlur stdDeviation="28.538"/>
<feComposite in2="hardAlpha" operator="out"/>
<feColorMatrix type="matrix" values="0 0 0 0 0.0726736 0 0 0 0 0.176881 0 0 0 0 0.379167 0 0 0 0.1 0"/>
<feBlend mode="normal" in2="BackgroundImageFix" result="effect1_dropShadow_353_1730"/>
<feBlend mode="normal" in="SourceGraphic" in2="effect1_dropShadow_353_1730" result="shape"/>
</filter>
<clipPath id="clip0_353_1730">
<rect width="379" height="378" rx="16" fill="white"/>
</clipPath>
</defs>
</svg>
