<svg width="379" height="378" viewBox="0 0 379 378" fill="none" xmlns="http://www.w3.org/2000/svg">
<g clip-path="url(#clip0_353_1659)">
<rect width="379" height="378" rx="16" fill="#F5F7FF"/>
<g filter="url(#filter0_d_353_1659)">
<g clip-path="url(#clip1_353_1659)">
<rect x="112.637" y="199.37" width="235.363" height="97.7237" rx="8.25834" fill="white"/>
<path d="M135.115 218.877V227.887H133.483V218.877H135.115ZM137.847 223.928V227.887H136.255V221.13H137.777V222.278H137.856C138.012 221.9 138.259 221.599 138.6 221.376C138.943 221.153 139.366 221.042 139.871 221.042C140.337 221.042 140.743 221.142 141.089 221.341C141.438 221.54 141.708 221.829 141.899 222.208C142.092 222.586 142.188 223.045 142.185 223.584V227.887H140.592V223.831C140.592 223.379 140.475 223.026 140.24 222.771C140.009 222.515 139.688 222.388 139.277 222.388C138.998 222.388 138.751 222.449 138.534 222.573C138.32 222.693 138.151 222.867 138.028 223.096C137.907 223.325 137.847 223.602 137.847 223.928ZM146.62 221.13V222.361H142.736V221.13H146.62ZM143.695 219.511H145.287V225.854C145.287 226.068 145.32 226.233 145.384 226.347C145.451 226.458 145.539 226.535 145.648 226.576C145.756 226.617 145.877 226.637 146.009 226.637C146.108 226.637 146.199 226.63 146.281 226.615C146.366 226.601 146.431 226.587 146.475 226.576L146.743 227.821C146.658 227.85 146.537 227.882 146.378 227.917C146.223 227.953 146.032 227.973 145.806 227.979C145.407 227.991 145.048 227.931 144.729 227.799C144.409 227.664 144.155 227.455 143.968 227.174C143.783 226.892 143.692 226.541 143.695 226.118V219.511ZM150.313 228.019C149.636 228.019 149.051 227.878 148.558 227.596C148.068 227.312 147.691 226.91 147.427 226.391C147.164 225.869 147.032 225.255 147.032 224.548C147.032 223.853 147.164 223.243 147.427 222.718C147.694 222.19 148.067 221.779 148.545 221.486C149.023 221.19 149.584 221.042 150.23 221.042C150.646 221.042 151.039 221.109 151.409 221.244C151.781 221.376 152.109 221.581 152.394 221.86C152.681 222.139 152.907 222.493 153.071 222.925C153.236 223.353 153.318 223.863 153.318 224.455V224.944H147.779V223.87H151.791C151.788 223.565 151.722 223.294 151.593 223.057C151.464 222.816 151.284 222.627 151.052 222.489C150.824 222.351 150.557 222.282 150.252 222.282C149.926 222.282 149.64 222.361 149.394 222.52C149.147 222.675 148.955 222.881 148.818 223.136C148.683 223.388 148.614 223.665 148.611 223.967V224.904C148.611 225.297 148.683 225.634 148.826 225.916C148.97 226.194 149.171 226.409 149.429 226.558C149.687 226.705 149.989 226.778 150.335 226.778C150.567 226.778 150.777 226.746 150.964 226.681C151.152 226.614 151.315 226.516 151.453 226.387C151.59 226.258 151.694 226.098 151.765 225.907L153.252 226.074C153.158 226.467 152.979 226.81 152.715 227.104C152.454 227.394 152.12 227.62 151.712 227.781C151.304 227.939 150.838 228.019 150.313 228.019ZM154.107 227.887V221.13H155.652V222.256H155.722C155.845 221.866 156.056 221.565 156.355 221.354C156.657 221.14 157.002 221.033 157.389 221.033C157.477 221.033 157.575 221.037 157.684 221.046C157.795 221.052 157.888 221.062 157.961 221.077V222.542C157.894 222.518 157.786 222.498 157.64 222.48C157.496 222.46 157.357 222.449 157.222 222.449C156.932 222.449 156.671 222.513 156.439 222.639C156.21 222.762 156.03 222.933 155.898 223.153C155.766 223.373 155.7 223.627 155.7 223.914V227.887H154.107ZM160.054 223.928V227.887H158.461V221.13H159.984V222.278H160.063C160.218 221.9 160.466 221.599 160.806 221.376C161.149 221.153 161.573 221.042 162.077 221.042C162.544 221.042 162.95 221.142 163.296 221.341C163.645 221.54 163.915 221.829 164.105 222.208C164.299 222.586 164.394 223.045 164.391 223.584V227.887H162.799V223.831C162.799 223.379 162.682 223.026 162.447 222.771C162.215 222.515 161.894 222.388 161.484 222.388C161.205 222.388 160.957 222.449 160.74 222.573C160.526 222.693 160.357 222.867 160.234 223.096C160.114 223.325 160.054 223.602 160.054 223.928ZM167.397 228.023C166.969 228.023 166.583 227.947 166.24 227.794C165.9 227.639 165.63 227.41 165.431 227.108C165.234 226.806 165.136 226.433 165.136 225.991C165.136 225.609 165.206 225.294 165.347 225.045C165.488 224.796 165.68 224.596 165.923 224.447C166.167 224.297 166.441 224.184 166.746 224.108C167.054 224.029 167.372 223.972 167.701 223.936C168.096 223.895 168.418 223.859 168.664 223.826C168.91 223.791 169.089 223.738 169.201 223.668C169.315 223.595 169.372 223.482 169.372 223.329V223.303C169.372 222.971 169.274 222.715 169.077 222.533C168.881 222.351 168.598 222.26 168.228 222.26C167.838 222.26 167.529 222.345 167.3 222.515C167.074 222.686 166.922 222.886 166.843 223.118L165.356 222.907C165.473 222.496 165.667 222.153 165.937 221.878C166.206 221.599 166.536 221.391 166.926 221.253C167.316 221.112 167.747 221.042 168.22 221.042C168.545 221.042 168.869 221.08 169.192 221.156C169.514 221.232 169.809 221.359 170.076 221.534C170.343 221.708 170.557 221.944 170.718 222.243C170.882 222.542 170.965 222.916 170.965 223.364V227.887H169.434V226.958H169.381C169.284 227.146 169.148 227.322 168.972 227.486C168.799 227.648 168.58 227.778 168.316 227.878C168.055 227.975 167.749 228.023 167.397 228.023ZM167.811 226.853C168.13 226.853 168.407 226.79 168.642 226.664C168.877 226.535 169.057 226.365 169.183 226.153C169.312 225.942 169.377 225.712 169.377 225.463V224.667C169.327 224.708 169.242 224.746 169.121 224.781C169.004 224.816 168.872 224.847 168.726 224.873C168.579 224.9 168.434 224.923 168.29 224.944C168.146 224.964 168.022 224.982 167.916 224.996C167.679 225.029 167.466 225.082 167.278 225.155C167.091 225.228 166.942 225.331 166.834 225.463C166.725 225.592 166.671 225.759 166.671 225.964C166.671 226.258 166.778 226.479 166.992 226.628C167.206 226.778 167.479 226.853 167.811 226.853ZM173.601 218.877V227.887H172.008V218.877H173.601ZM178.423 227.887H176.681L179.853 218.877H181.868L185.044 227.887H183.302L180.896 220.725H180.825L178.423 227.887ZM178.481 224.354H183.232V225.665H178.481V224.354ZM188.553 221.13V222.361H184.669V221.13H188.553ZM185.628 219.511H187.22V225.854C187.22 226.068 187.253 226.233 187.317 226.347C187.385 226.458 187.473 226.535 187.581 226.576C187.69 226.617 187.81 226.637 187.942 226.637C188.042 226.637 188.133 226.63 188.215 226.615C188.3 226.601 188.364 226.587 188.408 226.576L188.677 227.821C188.591 227.85 188.47 227.882 188.311 227.917C188.156 227.953 187.965 227.973 187.74 227.979C187.341 227.991 186.981 227.931 186.662 227.799C186.342 227.664 186.088 227.455 185.901 227.174C185.716 226.892 185.625 226.541 185.628 226.118V219.511ZM192.702 221.13V222.361H188.817V221.13H192.702ZM189.776 219.511H191.369V225.854C191.369 226.068 191.401 226.233 191.466 226.347C191.533 226.458 191.621 226.535 191.73 226.576C191.838 226.617 191.958 226.637 192.09 226.637C192.19 226.637 192.281 226.63 192.363 226.615C192.448 226.601 192.513 226.587 192.557 226.576L192.825 227.821C192.74 227.85 192.618 227.882 192.46 227.917C192.304 227.953 192.114 227.973 191.888 227.979C191.489 227.991 191.13 227.931 190.81 227.799C190.49 227.664 190.237 227.455 190.049 227.174C189.864 226.892 189.773 226.541 189.776 226.118V219.511ZM196.395 228.019C195.717 228.019 195.132 227.878 194.64 227.596C194.15 227.312 193.773 226.91 193.509 226.391C193.245 225.869 193.113 225.255 193.113 224.548C193.113 223.853 193.245 223.243 193.509 222.718C193.776 222.19 194.148 221.779 194.626 221.486C195.104 221.19 195.666 221.042 196.311 221.042C196.728 221.042 197.121 221.109 197.49 221.244C197.863 221.376 198.191 221.581 198.475 221.86C198.763 222.139 198.989 222.493 199.153 222.925C199.317 223.353 199.399 223.863 199.399 224.455V224.944H193.861V223.87H197.873C197.87 223.565 197.804 223.294 197.675 223.057C197.546 222.816 197.365 222.627 197.134 222.489C196.905 222.351 196.638 222.282 196.333 222.282C196.008 222.282 195.722 222.361 195.475 222.52C195.229 222.675 195.037 222.881 194.899 223.136C194.764 223.388 194.695 223.665 194.692 223.967V224.904C194.692 225.297 194.764 225.634 194.908 225.916C195.052 226.194 195.253 226.409 195.511 226.558C195.769 226.705 196.071 226.778 196.417 226.778C196.648 226.778 196.858 226.746 197.046 226.681C197.234 226.614 197.396 226.516 197.534 226.387C197.672 226.258 197.776 226.098 197.846 225.907L199.333 226.074C199.239 226.467 199.061 226.81 198.797 227.104C198.536 227.394 198.201 227.62 197.794 227.781C197.386 227.939 196.92 228.019 196.395 228.019ZM201.781 223.928V227.887H200.189V221.13H201.711V222.278H201.79C201.946 221.9 202.193 221.599 202.534 221.376C202.877 221.153 203.301 221.042 203.805 221.042C204.271 221.042 204.677 221.142 205.024 221.341C205.372 221.54 205.642 221.829 205.833 222.208C206.026 222.586 206.122 223.045 206.119 223.584V227.887H204.526V223.831C204.526 223.379 204.409 223.026 204.175 222.771C203.943 222.515 203.622 222.388 203.211 222.388C202.933 222.388 202.685 222.449 202.468 222.573C202.254 222.693 202.085 222.867 201.962 223.096C201.842 223.325 201.781 223.602 201.781 223.928ZM209.688 228.005C209.157 228.005 208.682 227.869 208.262 227.596C207.843 227.324 207.512 226.928 207.268 226.409C207.025 225.889 206.903 225.259 206.903 224.517C206.903 223.766 207.026 223.133 207.273 222.617C207.522 222.098 207.858 221.706 208.28 221.442C208.702 221.175 209.173 221.042 209.692 221.042C210.088 221.042 210.413 221.109 210.669 221.244C210.924 221.376 211.126 221.536 211.276 221.724C211.425 221.908 211.541 222.083 211.623 222.247H211.689V218.877H213.286V227.887H211.72V226.822H211.623C211.541 226.986 211.422 227.161 211.267 227.346C211.111 227.527 210.906 227.683 210.651 227.812C210.396 227.941 210.075 228.005 209.688 228.005ZM210.132 226.699C210.469 226.699 210.757 226.608 210.994 226.426C211.232 226.241 211.412 225.985 211.535 225.656C211.658 225.328 211.72 224.945 211.72 224.508C211.72 224.071 211.658 223.691 211.535 223.369C211.415 223.046 211.236 222.796 210.999 222.617C210.764 222.438 210.475 222.348 210.132 222.348C209.777 222.348 209.481 222.441 209.243 222.625C209.006 222.81 208.827 223.065 208.707 223.391C208.586 223.716 208.526 224.089 208.526 224.508C208.526 224.93 208.586 225.307 208.707 225.639C208.83 225.967 209.01 226.227 209.248 226.417C209.488 226.605 209.783 226.699 210.132 226.699ZM216.37 228.023C215.942 228.023 215.556 227.947 215.213 227.794C214.873 227.639 214.603 227.41 214.403 227.108C214.207 226.806 214.109 226.433 214.109 225.991C214.109 225.609 214.179 225.294 214.32 225.045C214.461 224.796 214.653 224.596 214.896 224.447C215.14 224.297 215.414 224.184 215.719 224.108C216.027 224.029 216.345 223.972 216.673 223.936C217.069 223.895 217.39 223.859 217.637 223.826C217.883 223.791 218.062 223.738 218.173 223.668C218.288 223.595 218.345 223.482 218.345 223.329V223.303C218.345 222.971 218.247 222.715 218.05 222.533C217.854 222.351 217.571 222.26 217.201 222.26C216.811 222.26 216.502 222.345 216.273 222.515C216.047 222.686 215.895 222.886 215.816 223.118L214.329 222.907C214.446 222.496 214.64 222.153 214.909 221.878C215.179 221.599 215.509 221.391 215.899 221.253C216.289 221.112 216.72 221.042 217.192 221.042C217.518 221.042 217.842 221.08 218.165 221.156C218.487 221.232 218.782 221.359 219.049 221.534C219.316 221.708 219.53 221.944 219.691 222.243C219.855 222.542 219.937 222.916 219.937 223.364V227.887H218.407V226.958H218.354C218.257 227.146 218.121 227.322 217.945 227.486C217.772 227.648 217.553 227.778 217.289 227.878C217.028 227.975 216.722 228.023 216.37 228.023ZM216.783 226.853C217.103 226.853 217.38 226.79 217.615 226.664C217.849 226.535 218.03 226.365 218.156 226.153C218.285 225.942 218.349 225.712 218.349 225.463V224.667C218.3 224.708 218.214 224.746 218.094 224.781C217.977 224.816 217.845 224.847 217.698 224.873C217.552 224.9 217.407 224.923 217.263 224.944C217.119 224.964 216.994 224.982 216.889 224.996C216.651 225.029 216.439 225.082 216.251 225.155C216.063 225.228 215.915 225.331 215.807 225.463C215.698 225.592 215.644 225.759 215.644 225.964C215.644 226.258 215.751 226.479 215.965 226.628C216.179 226.778 216.452 226.853 216.783 226.853ZM222.574 223.928V227.887H220.981V221.13H222.503V222.278H222.582C222.738 221.9 222.986 221.599 223.326 221.376C223.669 221.153 224.093 221.042 224.597 221.042C225.063 221.042 225.47 221.142 225.816 221.341C226.165 221.54 226.434 221.829 226.625 222.208C226.819 222.586 226.914 223.045 226.911 223.584V227.887H225.319V223.831C225.319 223.379 225.201 223.026 224.967 222.771C224.735 222.515 224.414 222.388 224.003 222.388C223.725 222.388 223.477 222.449 223.26 222.573C223.046 222.693 222.877 222.867 222.754 223.096C222.634 223.325 222.574 223.602 222.574 223.928ZM230.92 228.019C230.245 228.019 229.666 227.87 229.182 227.574C228.701 227.278 228.33 226.869 228.069 226.347C227.811 225.822 227.682 225.218 227.682 224.535C227.682 223.848 227.814 223.243 228.078 222.718C228.342 222.19 228.714 221.779 229.195 221.486C229.679 221.19 230.251 221.042 230.911 221.042C231.459 221.042 231.945 221.143 232.367 221.345C232.792 221.545 233.131 221.828 233.383 222.194C233.635 222.558 233.779 222.983 233.814 223.47H232.292C232.231 223.145 232.084 222.873 231.852 222.656C231.624 222.436 231.317 222.326 230.933 222.326C230.607 222.326 230.321 222.414 230.075 222.59C229.829 222.763 229.637 223.013 229.499 223.338C229.364 223.664 229.296 224.054 229.296 224.508C229.296 224.969 229.364 225.365 229.499 225.696C229.634 226.024 229.823 226.278 230.066 226.457C230.313 226.633 230.602 226.721 230.933 226.721C231.168 226.721 231.377 226.677 231.562 226.589C231.75 226.498 231.907 226.367 232.033 226.197C232.159 226.027 232.245 225.821 232.292 225.577H233.814C233.776 226.055 233.635 226.479 233.392 226.848C233.149 227.215 232.817 227.502 232.398 227.711C231.978 227.916 231.486 228.019 230.92 228.019ZM237.556 228.019C236.878 228.019 236.293 227.878 235.8 227.596C235.311 227.312 234.934 226.91 234.67 226.391C234.406 225.869 234.274 225.255 234.274 224.548C234.274 223.853 234.406 223.243 234.67 222.718C234.937 222.19 235.309 221.779 235.787 221.486C236.265 221.19 236.827 221.042 237.472 221.042C237.889 221.042 238.282 221.109 238.651 221.244C239.023 221.376 239.352 221.581 239.636 221.86C239.924 222.139 240.15 222.493 240.314 222.925C240.478 223.353 240.56 223.863 240.56 224.455V224.944H235.022V223.87H239.034C239.031 223.565 238.965 223.294 238.836 223.057C238.707 222.816 238.526 222.627 238.295 222.489C238.066 222.351 237.799 222.282 237.494 222.282C237.169 222.282 236.883 222.361 236.636 222.52C236.39 222.675 236.198 222.881 236.06 223.136C235.925 223.388 235.856 223.665 235.853 223.967V224.904C235.853 225.297 235.925 225.634 236.069 225.916C236.213 226.194 236.413 226.409 236.671 226.558C236.93 226.705 237.232 226.778 237.578 226.778C237.809 226.778 238.019 226.746 238.207 226.681C238.394 226.614 238.557 226.516 238.695 226.387C238.833 226.258 238.937 226.098 239.007 225.907L240.494 226.074C240.4 226.467 240.221 226.81 239.958 227.104C239.697 227.394 239.362 227.62 238.955 227.781C238.547 227.939 238.081 228.019 237.556 228.019Z" fill="#232323"/>
<path d="M134.012 270.829V267.945L142.507 254.523H144.912V258.629H143.446L137.727 267.691V267.847H149.585V270.829H134.012ZM143.563 274.543V269.949L143.602 268.659V254.523H147.023V274.543H143.563ZM159.343 254.523V274.543H155.717V258.052H155.599L150.917 261.043V257.72L155.893 254.523H159.343Z" fill="#232323"/>
<rect x="112.637" y="199.37" width="3.44098" height="97.7237" fill="#4644B5"/>
<path d="M304.183 267.698C302.898 267.698 301.595 267.202 300.622 266.23L297.484 263.128C296.713 262.357 295.648 261.935 294.566 261.935H293.171C289.372 261.935 286.288 258.87 286.288 255.107V235.084C286.288 231.321 289.372 228.256 293.171 228.256H315.195C318.994 228.256 322.077 231.321 322.077 235.084V255.107C322.077 258.87 318.994 261.935 315.195 261.935H313.8C312.717 261.935 311.653 262.375 310.882 263.128L307.743 266.23C306.771 267.202 305.467 267.698 304.183 267.698ZM293.171 230.991C290.895 230.991 289.041 232.826 289.041 235.065V255.089C289.041 257.347 290.895 259.163 293.171 259.163H294.566C296.383 259.163 298.144 259.898 299.429 261.164L302.568 264.266C303.467 265.147 304.917 265.147 305.816 264.266L308.955 261.164C310.239 259.898 312.001 259.163 313.818 259.163H315.195C317.471 259.163 319.324 257.328 319.324 255.089V235.065C319.324 232.808 317.471 230.991 315.195 230.991H293.171Z" fill="#C6D1DF"/>
<path d="M304.183 245.674C301.063 245.674 298.53 243.141 298.53 240.021C298.53 236.901 301.063 234.368 304.183 234.368C307.303 234.368 309.836 236.901 309.836 240.021C309.836 243.141 307.303 245.674 304.183 245.674ZM304.183 237.121C302.586 237.121 301.283 238.424 301.283 240.021C301.283 241.618 302.586 242.921 304.183 242.921C305.779 242.921 307.083 241.618 307.083 240.021C307.083 238.424 305.779 237.121 304.183 237.121Z" fill="#C6D1DF"/>
<path d="M311.524 256.062C310.772 256.062 310.148 255.438 310.148 254.685C310.148 252.153 307.468 250.079 304.183 250.079C300.897 250.079 298.218 252.153 298.218 254.685C298.218 255.438 297.594 256.062 296.841 256.062C296.089 256.062 295.465 255.438 295.465 254.685C295.465 250.629 299.374 247.326 304.183 247.326C308.991 247.326 312.901 250.629 312.901 254.685C312.901 255.438 312.277 256.062 311.524 256.062Z" fill="#C6D1DF"/>
</g>
</g>
<g filter="url(#filter1_d_353_1659)">
<g clip-path="url(#clip2_353_1659)">
<rect x="74.2859" y="138.898" width="235.363" height="97.7237" rx="8.25834" fill="white"/>
<path d="M96.7641 158.406V167.415H95.1321V158.406H96.7641ZM99.496 163.456V167.415H97.9036V160.658H99.4257V161.806H99.5048C99.6603 161.428 99.9081 161.127 100.248 160.904C100.591 160.682 101.015 160.57 101.52 160.57C101.986 160.57 102.392 160.67 102.738 160.869C103.087 161.069 103.357 161.358 103.547 161.736C103.741 162.114 103.836 162.573 103.833 163.113V167.415H102.241V163.359C102.241 162.907 102.124 162.554 101.889 162.299C101.657 162.044 101.336 161.916 100.926 161.916C100.647 161.916 100.399 161.978 100.182 162.101C99.9682 162.221 99.7996 162.396 99.6764 162.624C99.5562 162.853 99.496 163.13 99.496 163.456ZM108.269 160.658V161.89H104.385V160.658H108.269ZM105.344 159.039H106.936V165.383C106.936 165.597 106.968 165.761 107.033 165.875C107.1 165.987 107.188 166.063 107.297 166.104C107.405 166.145 107.525 166.166 107.657 166.166C107.757 166.166 107.848 166.158 107.93 166.144C108.015 166.129 108.08 166.116 108.124 166.104L108.392 167.349C108.307 167.378 108.185 167.411 108.027 167.446C107.871 167.481 107.681 167.501 107.455 167.507C107.056 167.519 106.697 167.459 106.377 167.327C106.058 167.192 105.804 166.984 105.616 166.702C105.431 166.421 105.341 166.069 105.344 165.647V159.039ZM111.962 167.547C111.284 167.547 110.699 167.406 110.207 167.125C109.717 166.84 109.34 166.438 109.076 165.919C108.812 165.397 108.68 164.783 108.68 164.076C108.68 163.381 108.812 162.771 109.076 162.246C109.343 161.718 109.715 161.308 110.194 161.014C110.672 160.718 111.233 160.57 111.878 160.57C112.295 160.57 112.688 160.638 113.057 160.772C113.43 160.904 113.758 161.11 114.043 161.388C114.33 161.667 114.556 162.022 114.72 162.453C114.884 162.881 114.966 163.391 114.966 163.984V164.472H109.428V163.399H113.44C113.437 163.094 113.371 162.822 113.242 162.585C113.113 162.344 112.933 162.155 112.701 162.017C112.472 161.88 112.205 161.811 111.9 161.811C111.575 161.811 111.289 161.89 111.043 162.048C110.796 162.204 110.604 162.409 110.466 162.664C110.331 162.916 110.262 163.193 110.259 163.495V164.432C110.259 164.825 110.331 165.163 110.475 165.444C110.619 165.723 110.82 165.937 111.078 166.086C111.336 166.233 111.638 166.306 111.984 166.306C112.216 166.306 112.425 166.274 112.613 166.21C112.801 166.142 112.963 166.044 113.101 165.915C113.239 165.786 113.343 165.626 113.414 165.435L114.9 165.603C114.807 165.996 114.628 166.339 114.364 166.632C114.103 166.922 113.768 167.148 113.361 167.309C112.953 167.468 112.487 167.547 111.962 167.547ZM115.756 167.415V160.658H117.3V161.784H117.371C117.494 161.394 117.705 161.094 118.004 160.882C118.306 160.668 118.651 160.561 119.038 160.561C119.126 160.561 119.224 160.566 119.333 160.575C119.444 160.58 119.536 160.591 119.61 160.605V162.07C119.542 162.047 119.435 162.026 119.289 162.009C119.145 161.988 119.006 161.978 118.871 161.978C118.58 161.978 118.319 162.041 118.088 162.167C117.859 162.29 117.679 162.462 117.547 162.682C117.415 162.902 117.349 163.155 117.349 163.443V167.415H115.756ZM121.703 163.456V167.415H120.11V160.658H121.632V161.806H121.711C121.867 161.428 122.115 161.127 122.455 160.904C122.798 160.682 123.222 160.57 123.726 160.57C124.192 160.57 124.599 160.67 124.945 160.869C125.294 161.069 125.563 161.358 125.754 161.736C125.948 162.114 126.043 162.573 126.04 163.113V167.415H124.448V163.359C124.448 162.907 124.33 162.554 124.096 162.299C123.864 162.044 123.543 161.916 123.132 161.916C122.854 161.916 122.606 161.978 122.389 162.101C122.175 162.221 122.006 162.396 121.883 162.624C121.763 162.853 121.703 163.13 121.703 163.456ZM129.046 167.551C128.618 167.551 128.232 167.475 127.889 167.323C127.549 167.167 127.279 166.938 127.079 166.636C126.883 166.334 126.785 165.962 126.785 165.519C126.785 165.138 126.855 164.822 126.996 164.573C127.137 164.324 127.329 164.124 127.572 163.975C127.815 163.825 128.09 163.712 128.395 163.636C128.703 163.557 129.021 163.5 129.349 163.465C129.745 163.424 130.066 163.387 130.313 163.355C130.559 163.319 130.738 163.267 130.849 163.196C130.964 163.123 131.021 163.01 131.021 162.858V162.831C131.021 162.5 130.923 162.243 130.726 162.061C130.53 161.88 130.247 161.789 129.877 161.789C129.487 161.789 129.178 161.874 128.949 162.044C128.723 162.214 128.571 162.415 128.491 162.646L127.005 162.435C127.122 162.025 127.315 161.682 127.585 161.406C127.855 161.127 128.185 160.919 128.575 160.781C128.965 160.64 129.396 160.57 129.868 160.57C130.194 160.57 130.518 160.608 130.841 160.684C131.163 160.761 131.458 160.887 131.725 161.063C131.992 161.236 132.206 161.472 132.367 161.771C132.531 162.07 132.613 162.444 132.613 162.893V167.415H131.082V166.487H131.03C130.933 166.674 130.797 166.85 130.621 167.015C130.448 167.176 130.229 167.306 129.965 167.406C129.704 167.503 129.398 167.551 129.046 167.551ZM129.459 166.381C129.779 166.381 130.056 166.318 130.291 166.192C130.525 166.063 130.706 165.893 130.832 165.682C130.961 165.471 131.025 165.24 131.025 164.991V164.195C130.975 164.236 130.89 164.274 130.77 164.309C130.653 164.344 130.521 164.375 130.374 164.402C130.228 164.428 130.082 164.451 129.939 164.472C129.795 164.493 129.67 164.51 129.565 164.525C129.327 164.557 129.115 164.61 128.927 164.683C128.739 164.756 128.591 164.859 128.483 164.991C128.374 165.12 128.32 165.287 128.32 165.493C128.32 165.786 128.427 166.007 128.641 166.157C128.855 166.306 129.128 166.381 129.459 166.381ZM135.25 158.406V167.415H133.657V158.406H135.25ZM140.072 167.415H138.33L141.502 158.406H143.517L146.693 167.415H144.951L142.544 160.253H142.474L140.072 167.415ZM140.129 163.883H144.88V165.193H140.129V163.883ZM150.202 160.658V161.89H146.318V160.658H150.202ZM147.277 159.039H148.869V165.383C148.869 165.597 148.901 165.761 148.966 165.875C149.033 165.987 149.121 166.063 149.23 166.104C149.338 166.145 149.459 166.166 149.591 166.166C149.69 166.166 149.781 166.158 149.863 166.144C149.948 166.129 150.013 166.116 150.057 166.104L150.325 167.349C150.24 167.378 150.118 167.411 149.96 167.446C149.805 167.481 149.614 167.501 149.388 167.507C148.989 167.519 148.63 167.459 148.31 167.327C147.991 167.192 147.737 166.984 147.549 166.702C147.365 166.421 147.274 166.069 147.277 165.647V159.039ZM154.35 160.658V161.89H150.466V160.658H154.35ZM151.425 159.039H153.017V165.383C153.017 165.597 153.05 165.761 153.114 165.875C153.182 165.987 153.27 166.063 153.378 166.104C153.487 166.145 153.607 166.166 153.739 166.166C153.839 166.166 153.93 166.158 154.012 166.144C154.097 166.129 154.161 166.116 154.205 166.104L154.474 167.349C154.389 167.378 154.267 167.411 154.108 167.446C153.953 167.481 153.762 167.501 153.537 167.507C153.138 167.519 152.778 167.459 152.459 167.327C152.139 167.192 151.885 166.984 151.698 166.702C151.513 166.421 151.422 166.069 151.425 165.647V159.039ZM158.043 167.547C157.366 167.547 156.781 167.406 156.288 167.125C155.799 166.84 155.422 166.438 155.158 165.919C154.894 165.397 154.762 164.783 154.762 164.076C154.762 163.381 154.894 162.771 155.158 162.246C155.425 161.718 155.797 161.308 156.275 161.014C156.753 160.718 157.315 160.57 157.96 160.57C158.376 160.57 158.769 160.638 159.139 160.772C159.511 160.904 159.84 161.11 160.124 161.388C160.412 161.667 160.637 162.022 160.802 162.453C160.966 162.881 161.048 163.391 161.048 163.984V164.472H155.51V163.399H159.522C159.519 163.094 159.453 162.822 159.324 162.585C159.195 162.344 159.014 162.155 158.782 162.017C158.554 161.88 158.287 161.811 157.982 161.811C157.656 161.811 157.37 161.89 157.124 162.048C156.878 162.204 156.686 162.409 156.548 162.664C156.413 162.916 156.344 163.193 156.341 163.495V164.432C156.341 164.825 156.413 165.163 156.557 165.444C156.7 165.723 156.901 165.937 157.159 166.086C157.417 166.233 157.719 166.306 158.065 166.306C158.297 166.306 158.507 166.274 158.695 166.21C158.882 166.142 159.045 166.044 159.183 165.915C159.321 165.786 159.425 165.626 159.495 165.435L160.982 165.603C160.888 165.996 160.709 166.339 160.445 166.632C160.184 166.922 159.85 167.148 159.442 167.309C159.035 167.468 158.568 167.547 158.043 167.547ZM163.43 163.456V167.415H161.838V160.658H163.36V161.806H163.439C163.594 161.428 163.842 161.127 164.182 160.904C164.525 160.682 164.949 160.57 165.454 160.57C165.92 160.57 166.326 160.67 166.672 160.869C167.021 161.069 167.291 161.358 167.482 161.736C167.675 162.114 167.77 162.573 167.768 163.113V167.415H166.175V163.359C166.175 162.907 166.058 162.554 165.823 162.299C165.592 162.044 165.27 161.916 164.86 161.916C164.581 161.916 164.333 161.978 164.116 162.101C163.902 162.221 163.734 162.396 163.61 162.624C163.49 162.853 163.43 163.13 163.43 163.456ZM171.336 167.534C170.806 167.534 170.33 167.397 169.911 167.125C169.492 166.852 169.16 166.456 168.917 165.937C168.673 165.418 168.552 164.787 168.552 164.045C168.552 163.295 168.675 162.661 168.921 162.145C169.171 161.626 169.506 161.234 169.929 160.97C170.351 160.704 170.822 160.57 171.341 160.57C171.737 160.57 172.062 160.638 172.317 160.772C172.572 160.904 172.775 161.064 172.924 161.252C173.074 161.437 173.19 161.611 173.272 161.775H173.338V158.406H174.935V167.415H173.369V166.35H173.272C173.19 166.515 173.071 166.689 172.916 166.874C172.76 167.056 172.555 167.211 172.3 167.34C172.045 167.469 171.723 167.534 171.336 167.534ZM171.781 166.227C172.118 166.227 172.405 166.136 172.643 165.954C172.88 165.77 173.061 165.513 173.184 165.185C173.307 164.856 173.369 164.473 173.369 164.037C173.369 163.6 173.307 163.22 173.184 162.897C173.064 162.575 172.885 162.324 172.647 162.145C172.413 161.966 172.124 161.877 171.781 161.877C171.426 161.877 171.13 161.969 170.892 162.154C170.654 162.338 170.476 162.594 170.355 162.919C170.235 163.245 170.175 163.617 170.175 164.037C170.175 164.459 170.235 164.836 170.355 165.167C170.479 165.495 170.659 165.755 170.896 165.946C171.137 166.133 171.432 166.227 171.781 166.227ZM178.019 167.551C177.59 167.551 177.205 167.475 176.862 167.323C176.521 167.167 176.252 166.938 176.052 166.636C175.856 166.334 175.757 165.962 175.757 165.519C175.757 165.138 175.828 164.822 175.969 164.573C176.109 164.324 176.301 164.124 176.545 163.975C176.788 163.825 177.062 163.712 177.367 163.636C177.675 163.557 177.994 163.5 178.322 163.465C178.718 163.424 179.039 163.387 179.285 163.355C179.532 163.319 179.711 163.267 179.822 163.196C179.936 163.123 179.994 163.01 179.994 162.858V162.831C179.994 162.5 179.895 162.243 179.699 162.061C179.502 161.88 179.219 161.789 178.85 161.789C178.46 161.789 178.15 161.874 177.922 162.044C177.696 162.214 177.543 162.415 177.464 162.646L175.977 162.435C176.095 162.025 176.288 161.682 176.558 161.406C176.828 161.127 177.158 160.919 177.548 160.781C177.938 160.64 178.369 160.57 178.841 160.57C179.167 160.57 179.491 160.608 179.813 160.684C180.136 160.761 180.431 160.887 180.697 161.063C180.964 161.236 181.178 161.472 181.34 161.771C181.504 162.07 181.586 162.444 181.586 162.893V167.415H180.055V166.487H180.002C179.906 166.674 179.769 166.85 179.593 167.015C179.42 167.176 179.202 167.306 178.938 167.406C178.677 167.503 178.37 167.551 178.019 167.551ZM178.432 166.381C178.752 166.381 179.029 166.318 179.263 166.192C179.498 166.063 179.678 165.893 179.804 165.682C179.934 165.471 179.998 165.24 179.998 164.991V164.195C179.948 164.236 179.863 164.274 179.743 164.309C179.626 164.344 179.494 164.375 179.347 164.402C179.2 164.428 179.055 164.451 178.911 164.472C178.768 164.493 178.643 164.51 178.538 164.525C178.3 164.557 178.087 164.61 177.9 164.683C177.712 164.756 177.564 164.859 177.455 164.991C177.347 165.12 177.293 165.287 177.293 165.493C177.293 165.786 177.4 166.007 177.614 166.157C177.828 166.306 178.101 166.381 178.432 166.381ZM184.222 163.456V167.415H182.63V160.658H184.152V161.806H184.231C184.387 161.428 184.634 161.127 184.975 160.904C185.318 160.682 185.741 160.57 186.246 160.57C186.712 160.57 187.118 160.67 187.464 160.869C187.813 161.069 188.083 161.358 188.274 161.736C188.467 162.114 188.563 162.573 188.56 163.113V167.415H186.967V163.359C186.967 162.907 186.85 162.554 186.615 162.299C186.384 162.044 186.063 161.916 185.652 161.916C185.373 161.916 185.126 161.978 184.909 162.101C184.694 162.221 184.526 162.396 184.403 162.624C184.282 162.853 184.222 163.13 184.222 163.456ZM192.568 167.547C191.894 167.547 191.315 167.399 190.831 167.103C190.35 166.806 189.979 166.397 189.718 165.875C189.46 165.35 189.331 164.746 189.331 164.063C189.331 163.377 189.463 162.771 189.727 162.246C189.991 161.718 190.363 161.308 190.844 161.014C191.328 160.718 191.9 160.57 192.56 160.57C193.108 160.57 193.593 160.671 194.016 160.874C194.441 161.073 194.78 161.356 195.032 161.723C195.284 162.086 195.428 162.512 195.463 162.998H193.941C193.879 162.673 193.733 162.402 193.501 162.185C193.272 161.965 192.966 161.855 192.582 161.855C192.256 161.855 191.97 161.943 191.724 162.119C191.477 162.292 191.285 162.541 191.148 162.866C191.013 163.192 190.945 163.582 190.945 164.037C190.945 164.497 191.013 164.893 191.148 165.224C191.282 165.553 191.472 165.806 191.715 165.985C191.961 166.161 192.25 166.249 192.582 166.249C192.816 166.249 193.026 166.205 193.211 166.117C193.398 166.026 193.555 165.896 193.681 165.726C193.807 165.556 193.894 165.349 193.941 165.105H195.463C195.425 165.583 195.284 166.007 195.041 166.377C194.797 166.743 194.466 167.031 194.046 167.239C193.627 167.444 193.134 167.547 192.568 167.547ZM199.204 167.547C198.527 167.547 197.942 167.406 197.449 167.125C196.959 166.84 196.583 166.438 196.319 165.919C196.055 165.397 195.923 164.783 195.923 164.076C195.923 163.381 196.055 162.771 196.319 162.246C196.586 161.718 196.958 161.308 197.436 161.014C197.914 160.718 198.476 160.57 199.121 160.57C199.537 160.57 199.93 160.638 200.3 160.772C200.672 160.904 201.001 161.11 201.285 161.388C201.572 161.667 201.798 162.022 201.963 162.453C202.127 162.881 202.209 163.391 202.209 163.984V164.472H196.671V163.399H200.682C200.679 163.094 200.614 162.822 200.484 162.585C200.355 162.344 200.175 162.155 199.943 162.017C199.715 161.88 199.448 161.811 199.143 161.811C198.817 161.811 198.531 161.89 198.285 162.048C198.039 162.204 197.847 162.409 197.709 162.664C197.574 162.916 197.505 163.193 197.502 163.495V164.432C197.502 164.825 197.574 165.163 197.718 165.444C197.861 165.723 198.062 165.937 198.32 166.086C198.578 166.233 198.88 166.306 199.226 166.306C199.458 166.306 199.668 166.274 199.855 166.21C200.043 166.142 200.206 166.044 200.344 165.915C200.482 165.786 200.586 165.626 200.656 165.435L202.143 165.603C202.049 165.996 201.87 166.339 201.606 166.632C201.345 166.922 201.011 167.148 200.603 167.309C200.196 167.468 199.729 167.547 199.204 167.547Z" fill="#232323"/>
<path d="M103.208 214.345C101.8 214.345 100.549 214.104 99.4539 213.622C98.3655 213.14 97.5053 212.469 96.8731 211.608C96.241 210.748 95.9054 209.754 95.8663 208.627H99.5419C99.5744 209.168 99.7537 209.64 100.08 210.044C100.405 210.442 100.839 210.751 101.38 210.973C101.921 211.195 102.527 211.305 103.198 211.305C103.915 211.305 104.55 211.181 105.104 210.934C105.658 210.68 106.091 210.328 106.404 209.878C106.717 209.428 106.87 208.91 106.864 208.324C106.87 207.718 106.714 207.183 106.394 206.721C106.075 206.258 105.612 205.896 105.006 205.636C104.407 205.375 103.683 205.244 102.836 205.244H101.067V202.449H102.836C103.534 202.449 104.143 202.328 104.664 202.087C105.192 201.846 105.606 201.507 105.906 201.07C106.205 200.627 106.352 200.116 106.346 199.536C106.352 198.969 106.225 198.477 105.964 198.06C105.71 197.636 105.349 197.307 104.879 197.072C104.417 196.838 103.872 196.72 103.247 196.72C102.634 196.72 102.067 196.831 101.546 197.053C101.024 197.274 100.604 197.59 100.285 198.001C99.9655 198.405 99.796 198.887 99.7765 199.448H96.2866C96.3127 198.327 96.6353 197.343 97.2544 196.495C97.88 195.642 98.7142 194.977 99.7569 194.501C100.8 194.019 101.969 193.778 103.266 193.778C104.602 193.778 105.762 194.029 106.746 194.531C107.737 195.026 108.503 195.694 109.044 196.535C109.585 197.375 109.855 198.304 109.855 199.321C109.862 200.448 109.529 201.393 108.858 202.155C108.193 202.918 107.32 203.416 106.238 203.651V203.807C107.646 204.003 108.724 204.524 109.474 205.372C110.23 206.212 110.604 207.258 110.598 208.51C110.598 209.63 110.279 210.634 109.64 211.52C109.008 212.4 108.135 213.091 107.02 213.593C105.912 214.095 104.641 214.345 103.208 214.345Z" fill="#232323"/>
<rect x="74.2859" y="138.898" width="3.44098" height="97.7237" fill="#46B544"/>
<path d="M271.11 207.488H260.099C257.676 207.488 255.658 207.25 253.951 206.736C253.327 206.553 252.923 205.947 252.96 205.305C253.419 199.817 258.979 195.505 265.604 195.505C272.229 195.505 277.772 199.799 278.249 205.305C278.304 205.965 277.9 206.553 277.258 206.736C275.551 207.25 273.532 207.488 271.11 207.488ZM255.915 204.387C257.126 204.626 258.502 204.736 260.099 204.736H271.11C272.707 204.736 274.083 204.626 275.294 204.387C274.322 200.863 270.302 198.257 265.604 198.257C260.906 198.257 256.887 200.863 255.915 204.387Z" fill="#C6D1DF"/>
<path d="M271.11 169.408H260.099C250.923 169.408 247.252 173.079 247.252 182.255V193.266C247.252 200.203 249.344 204.002 254.336 205.415C254.74 200.643 259.64 196.881 265.604 196.881C271.569 196.881 276.469 200.643 276.872 205.415C281.864 204.002 283.956 200.203 283.956 193.266V182.255C283.956 173.079 280.286 169.408 271.11 169.408ZM265.604 191.743C261.971 191.743 259.034 188.788 259.034 185.154C259.034 181.521 261.971 178.584 265.604 178.584C269.238 178.584 272.174 181.521 272.174 185.154C272.174 188.788 269.238 191.743 265.604 191.743Z" stroke="#C6D1DF" stroke-width="3.09688" stroke-linecap="round" stroke-linejoin="round"/>
<path d="M265.604 193.119C261.218 193.119 257.658 189.54 257.658 185.154C257.658 180.768 261.218 177.208 265.604 177.208C269.99 177.208 273.55 180.768 273.55 185.154C273.55 189.54 269.99 193.119 265.604 193.119ZM265.604 179.961C262.741 179.961 260.41 182.291 260.41 185.154C260.41 188.035 262.741 190.366 265.604 190.366C268.467 190.366 270.798 188.035 270.798 185.154C270.798 182.291 268.467 179.961 265.604 179.961Z" fill="#C6D1DF"/>
</g>
</g>
<g filter="url(#filter2_d_353_1659)">
<g clip-path="url(#clip3_353_1659)">
<rect x="32" y="80.0001" width="235.363" height="97.7237" rx="8.25834" fill="white"/>
<path d="M52.8462 108.517V99.5079H58.7057V100.876H54.4783V103.322H58.4021V104.69H54.4783V107.149H58.7409V108.517H52.8462ZM59.7429 108.517V101.76H61.2649V102.908H61.3441C61.4849 102.521 61.718 102.219 62.0435 102.002C62.369 101.782 62.7576 101.672 63.2093 101.672C63.6667 101.672 64.0524 101.784 64.3662 102.006C64.6829 102.226 64.9058 102.527 65.0348 102.908H65.1052C65.2548 102.533 65.507 102.234 65.8618 102.011C66.2196 101.785 66.6434 101.672 67.1331 101.672C67.7549 101.672 68.2622 101.869 68.6552 102.262C69.0482 102.655 69.2446 103.228 69.2446 103.982V108.517H67.6478V104.228C67.6478 103.809 67.5364 103.502 67.3135 103.309C67.0906 103.112 66.8179 103.014 66.4953 103.014C66.1111 103.014 65.8105 103.134 65.5935 103.375C65.3794 103.612 65.2724 103.922 65.2724 104.303V108.517H63.7107V104.162C63.7107 103.813 63.6052 103.534 63.394 103.326C63.1858 103.118 62.9131 103.014 62.5758 103.014C62.3471 103.014 62.1388 103.073 61.9511 103.19C61.7635 103.304 61.6139 103.467 61.5025 103.678C61.391 103.886 61.3353 104.13 61.3353 104.408V108.517H59.7429ZM70.3027 111.051V101.76H71.8688V102.877H71.9611C72.0433 102.713 72.1591 102.539 72.3087 102.354C72.4582 102.166 72.6606 102.006 72.9157 101.875C73.1709 101.74 73.4964 101.672 73.8923 101.672C74.4143 101.672 74.885 101.806 75.3044 102.072C75.7267 102.336 76.061 102.728 76.3073 103.247C76.5566 103.763 76.6813 104.397 76.6813 105.147C76.6813 105.889 76.5595 106.52 76.3161 107.039C76.0727 107.558 75.7413 107.954 75.322 108.227C74.9026 108.499 74.4275 108.636 73.8967 108.636C73.5096 108.636 73.1885 108.571 72.9333 108.442C72.6782 108.313 72.4729 108.158 72.3175 107.976C72.165 107.791 72.0462 107.617 71.9611 107.452H71.8952V111.051H70.3027ZM71.8644 105.139C71.8644 105.576 71.926 105.958 72.0491 106.287C72.1752 106.615 72.3556 106.872 72.5902 107.057C72.8277 107.238 73.1151 107.329 73.4524 107.329C73.8043 107.329 74.0991 107.235 74.3366 107.048C74.5741 106.857 74.753 106.598 74.8733 106.269C74.9964 105.938 75.058 105.561 75.058 105.139C75.058 104.719 74.9979 104.347 74.8777 104.021C74.7574 103.696 74.5785 103.441 74.341 103.256C74.1035 103.071 73.8073 102.979 73.4524 102.979C73.1122 102.979 72.8233 103.068 72.5858 103.247C72.3483 103.426 72.1679 103.677 72.0447 103.999C71.9245 104.322 71.8644 104.702 71.8644 105.139ZM79.0799 99.5079V108.517H77.4875V99.5079H79.0799ZM83.1073 108.649C82.4475 108.649 81.8756 108.504 81.3917 108.213C80.9078 107.923 80.5325 107.517 80.2656 106.995C80.0016 106.473 79.8697 105.863 79.8697 105.165C79.8697 104.467 80.0016 103.856 80.2656 103.331C80.5325 102.806 80.9078 102.398 81.3917 102.108C81.8756 101.817 82.4475 101.672 83.1073 101.672C83.7672 101.672 84.339 101.817 84.8229 102.108C85.3068 102.398 85.6807 102.806 85.9447 103.331C86.2115 103.856 86.345 104.467 86.345 105.165C86.345 105.863 86.2115 106.473 85.9447 106.995C85.6807 107.517 85.3068 107.923 84.8229 108.213C84.339 108.504 83.7672 108.649 83.1073 108.649ZM83.1161 107.373C83.4739 107.373 83.773 107.275 84.0135 107.079C84.254 106.879 84.4329 106.612 84.5502 106.278C84.6704 105.944 84.7305 105.571 84.7305 105.161C84.7305 104.747 84.6704 104.373 84.5502 104.039C84.4329 103.702 84.254 103.433 84.0135 103.234C83.773 103.034 83.4739 102.935 83.1161 102.935C82.7495 102.935 82.4445 103.034 82.2011 103.234C81.9607 103.433 81.7803 103.702 81.6601 104.039C81.5427 104.373 81.4841 104.747 81.4841 105.161C81.4841 105.571 81.5427 105.944 81.6601 106.278C81.7803 106.612 81.9607 106.879 82.2011 107.079C82.4445 107.275 82.7495 107.373 83.1161 107.373ZM87.899 111.051C87.682 111.051 87.4811 111.033 87.2964 110.998C87.1145 110.966 86.9694 110.928 86.8609 110.884L87.2304 109.643C87.4621 109.711 87.6688 109.743 87.8506 109.74C88.0325 109.737 88.1923 109.68 88.3301 109.568C88.4709 109.46 88.5897 109.278 88.6864 109.023L88.8228 108.658L86.3726 101.76H88.0618L89.619 106.863H89.6894L91.2511 101.76H92.9447L90.2393 109.335C90.1132 109.693 89.946 109.999 89.7378 110.255C89.5296 110.513 89.2744 110.709 88.9724 110.844C88.6733 110.982 88.3155 111.051 87.899 111.051ZM96.2506 108.649C95.5732 108.649 94.9881 108.508 94.4954 108.227C94.0057 107.942 93.6288 107.54 93.3649 107.021C93.101 106.499 92.969 105.885 92.969 105.178C92.969 104.483 93.101 103.873 93.3649 103.348C93.6318 102.82 94.0042 102.41 94.4822 102.116C94.9603 101.82 95.5219 101.672 96.167 101.672C96.5835 101.672 96.9765 101.74 97.346 101.875C97.7184 102.006 98.0469 102.212 98.3313 102.49C98.6187 102.769 98.8446 103.124 99.0088 103.555C99.173 103.983 99.2551 104.493 99.2551 105.086V105.574H93.7168V104.501H97.7287C97.7257 104.196 97.6598 103.924 97.5307 103.687C97.4017 103.446 97.2213 103.257 96.9896 103.119C96.7609 102.982 96.494 102.913 96.189 102.913C95.8635 102.913 95.5776 102.992 95.3312 103.15C95.0849 103.306 94.8928 103.511 94.755 103.766C94.6201 104.018 94.5512 104.295 94.5482 104.597V105.534C94.5482 105.927 94.6201 106.265 94.7638 106.546C94.9075 106.825 95.1084 107.039 95.3664 107.188C95.6245 107.335 95.9266 107.408 96.2726 107.408C96.5043 107.408 96.714 107.376 96.9017 107.312C97.0894 107.244 97.2521 107.146 97.39 107.017C97.5278 106.888 97.6319 106.728 97.7023 106.537L99.1891 106.705C99.0953 107.098 98.9164 107.441 98.6525 107.734C98.3915 108.024 98.0571 108.25 97.6495 108.411C97.2419 108.57 96.7756 108.649 96.2506 108.649ZM103.036 108.649C102.359 108.649 101.774 108.508 101.281 108.227C100.791 107.942 100.414 107.54 100.15 107.021C99.8865 106.499 99.7545 105.885 99.7545 105.178C99.7545 104.483 99.8865 103.873 100.15 103.348C100.417 102.82 100.79 102.41 101.268 102.116C101.746 101.82 102.307 101.672 102.953 101.672C103.369 101.672 103.762 101.74 104.132 101.875C104.504 102.006 104.832 102.212 105.117 102.49C105.404 102.769 105.63 103.124 105.794 103.555C105.959 103.983 106.041 104.493 106.041 105.086V105.574H100.502V104.501H104.514C104.511 104.196 104.445 103.924 104.316 103.687C104.187 103.446 104.007 103.257 103.775 103.119C103.546 102.982 103.28 102.913 102.975 102.913C102.649 102.913 102.363 102.992 102.117 103.15C101.87 103.306 101.678 103.511 101.541 103.766C101.406 104.018 101.337 104.295 101.334 104.597V105.534C101.334 105.927 101.406 106.265 101.549 106.546C101.693 106.825 101.894 107.039 102.152 107.188C102.41 107.335 102.712 107.408 103.058 107.408C103.29 107.408 103.5 107.376 103.687 107.312C103.875 107.244 104.038 107.146 104.176 107.017C104.313 106.888 104.417 106.728 104.488 106.537L105.975 106.705C105.881 107.098 105.702 107.441 105.438 107.734C105.177 108.024 104.843 108.25 104.435 108.411C104.027 108.57 103.561 108.649 103.036 108.649ZM110.573 108.517H108.831L112.003 99.5079H114.017L117.193 108.517H115.451L113.045 101.355H112.975L110.573 108.517ZM110.63 104.985H115.381V106.295H110.63V104.985ZM120.703 101.76V102.992H116.819V101.76H120.703ZM117.778 100.141H119.37V106.485C119.37 106.699 119.402 106.863 119.467 106.977C119.534 107.089 119.622 107.165 119.731 107.206C119.839 107.247 119.959 107.268 120.091 107.268C120.191 107.268 120.282 107.26 120.364 107.246C120.449 107.231 120.514 107.218 120.558 107.206L120.826 108.451C120.741 108.48 120.619 108.513 120.461 108.548C120.305 108.583 120.115 108.603 119.889 108.609C119.49 108.621 119.131 108.561 118.811 108.429C118.492 108.294 118.238 108.086 118.05 107.804C117.866 107.523 117.775 107.171 117.778 106.749V100.141ZM124.851 101.76V102.992H120.967V101.76H124.851ZM121.926 100.141H123.518V106.485C123.518 106.699 123.551 106.863 123.615 106.977C123.683 107.089 123.771 107.165 123.879 107.206C123.988 107.247 124.108 107.268 124.24 107.268C124.339 107.268 124.43 107.26 124.512 107.246C124.598 107.231 124.662 107.218 124.706 107.206L124.974 108.451C124.889 108.48 124.768 108.513 124.609 108.548C124.454 108.583 124.263 108.603 124.037 108.609C123.639 108.621 123.279 108.561 122.96 108.429C122.64 108.294 122.386 108.086 122.199 107.804C122.014 107.523 121.923 107.171 121.926 106.749V100.141ZM128.544 108.649C127.867 108.649 127.282 108.508 126.789 108.227C126.299 107.942 125.923 107.54 125.659 107.021C125.395 106.499 125.263 105.885 125.263 105.178C125.263 104.483 125.395 103.873 125.659 103.348C125.925 102.82 126.298 102.41 126.776 102.116C127.254 101.82 127.816 101.672 128.461 101.672C128.877 101.672 129.27 101.74 129.64 101.875C130.012 102.006 130.341 102.212 130.625 102.49C130.912 102.769 131.138 103.124 131.302 103.555C131.467 103.983 131.549 104.493 131.549 105.086V105.574H126.01V104.501H130.022C130.019 104.196 129.953 103.924 129.824 103.687C129.695 103.446 129.515 103.257 129.283 103.119C129.055 102.982 128.788 102.913 128.483 102.913C128.157 102.913 127.871 102.992 127.625 103.15C127.379 103.306 127.186 103.511 127.049 103.766C126.914 104.018 126.845 104.295 126.842 104.597V105.534C126.842 105.927 126.914 106.265 127.057 106.546C127.201 106.825 127.402 107.039 127.66 107.188C127.918 107.335 128.22 107.408 128.566 107.408C128.798 107.408 129.008 107.376 129.195 107.312C129.383 107.244 129.546 107.146 129.684 107.017C129.821 106.888 129.926 106.728 129.996 106.537L131.483 106.705C131.389 107.098 131.21 107.441 130.946 107.734C130.685 108.024 130.351 108.25 129.943 108.411C129.536 108.57 129.069 108.649 128.544 108.649ZM133.931 104.558V108.517H132.339V101.76H133.861V102.908H133.94C134.095 102.53 134.343 102.229 134.683 102.006C135.026 101.784 135.45 101.672 135.955 101.672C136.421 101.672 136.827 101.772 137.173 101.971C137.522 102.171 137.792 102.46 137.982 102.838C138.176 103.216 138.271 103.675 138.268 104.215V108.517H136.676V104.461C136.676 104.009 136.559 103.656 136.324 103.401C136.092 103.146 135.771 103.018 135.361 103.018C135.082 103.018 134.834 103.08 134.617 103.203C134.403 103.323 134.235 103.498 134.111 103.726C133.991 103.955 133.931 104.232 133.931 104.558ZM141.837 108.636C141.306 108.636 140.831 108.499 140.412 108.227C139.993 107.954 139.661 107.558 139.418 107.039C139.174 106.52 139.053 105.889 139.053 105.147C139.053 104.397 139.176 103.763 139.422 103.247C139.671 102.728 140.007 102.336 140.429 102.072C140.852 101.806 141.322 101.672 141.842 101.672C142.237 101.672 142.563 101.74 142.818 101.875C143.073 102.006 143.276 102.166 143.425 102.354C143.575 102.539 143.691 102.713 143.773 102.877H143.839V99.5079H145.436V108.517H143.869V107.452H143.773C143.691 107.617 143.572 107.791 143.416 107.976C143.261 108.158 143.056 108.313 142.801 108.442C142.545 108.571 142.224 108.636 141.837 108.636ZM142.281 107.329C142.619 107.329 142.906 107.238 143.144 107.057C143.381 106.872 143.562 106.615 143.685 106.287C143.808 105.958 143.869 105.576 143.869 105.139C143.869 104.702 143.808 104.322 143.685 103.999C143.564 103.677 143.386 103.426 143.148 103.247C142.913 103.068 142.625 102.979 142.281 102.979C141.927 102.979 141.63 103.071 141.393 103.256C141.155 103.441 140.976 103.696 140.856 104.021C140.736 104.347 140.676 104.719 140.676 105.139C140.676 105.561 140.736 105.938 140.856 106.269C140.979 106.598 141.16 106.857 141.397 107.048C141.638 107.235 141.932 107.329 142.281 107.329ZM148.519 108.653C148.091 108.653 147.706 108.577 147.362 108.425C147.022 108.269 146.752 108.04 146.553 107.738C146.357 107.436 146.258 107.064 146.258 106.621C146.258 106.24 146.329 105.925 146.469 105.675C146.61 105.426 146.802 105.227 147.046 105.077C147.289 104.927 147.563 104.814 147.868 104.738C148.176 104.659 148.494 104.602 148.823 104.567C149.219 104.526 149.54 104.489 149.786 104.457C150.033 104.422 150.211 104.369 150.323 104.298C150.437 104.225 150.494 104.112 150.494 103.96V103.933C150.494 103.602 150.396 103.345 150.2 103.163C150.003 102.982 149.72 102.891 149.351 102.891C148.961 102.891 148.651 102.976 148.423 103.146C148.197 103.316 148.044 103.517 147.965 103.748L146.478 103.537C146.596 103.127 146.789 102.784 147.059 102.508C147.329 102.229 147.659 102.021 148.049 101.883C148.439 101.743 148.87 101.672 149.342 101.672C149.667 101.672 149.992 101.71 150.314 101.787C150.637 101.863 150.931 101.989 151.198 102.165C151.465 102.338 151.679 102.574 151.841 102.873C152.005 103.172 152.087 103.546 152.087 103.995V108.517H150.556V107.589H150.503C150.407 107.776 150.27 107.952 150.094 108.117C149.921 108.278 149.703 108.408 149.439 108.508C149.178 108.605 148.871 108.653 148.519 108.653ZM148.933 107.483C149.253 107.483 149.53 107.42 149.764 107.294C149.999 107.165 150.179 106.995 150.305 106.784C150.434 106.573 150.499 106.342 150.499 106.093V105.297C150.449 105.338 150.364 105.376 150.244 105.411C150.126 105.446 149.994 105.477 149.848 105.504C149.701 105.53 149.556 105.554 149.412 105.574C149.269 105.595 149.144 105.612 149.038 105.627C148.801 105.659 148.588 105.712 148.401 105.785C148.213 105.859 148.065 105.961 147.956 106.093C147.848 106.222 147.794 106.389 147.794 106.595C147.794 106.888 147.901 107.109 148.115 107.259C148.329 107.408 148.601 107.483 148.933 107.483ZM154.723 104.558V108.517H153.131V101.76H154.653V102.908H154.732C154.887 102.53 155.135 102.229 155.475 102.006C155.818 101.784 156.242 101.672 156.747 101.672C157.213 101.672 157.619 101.772 157.965 101.971C158.314 102.171 158.584 102.46 158.775 102.838C158.968 103.216 159.063 103.675 159.061 104.215V108.517H157.468V104.461C157.468 104.009 157.351 103.656 157.116 103.401C156.884 103.146 156.563 103.018 156.153 103.018C155.874 103.018 155.626 103.08 155.409 103.203C155.195 103.323 155.027 103.498 154.903 103.726C154.783 103.955 154.723 104.232 154.723 104.558ZM163.069 108.649C162.395 108.649 161.816 108.501 161.332 108.205C160.851 107.908 160.48 107.499 160.219 106.977C159.961 106.452 159.832 105.848 159.832 105.165C159.832 104.479 159.964 103.873 160.227 103.348C160.491 102.82 160.864 102.41 161.345 102.116C161.829 101.82 162.401 101.672 163.06 101.672C163.609 101.672 164.094 101.773 164.516 101.976C164.942 102.175 165.28 102.458 165.533 102.825C165.785 103.188 165.929 103.614 165.964 104.1H164.442C164.38 103.775 164.233 103.504 164.002 103.287C163.773 103.067 163.467 102.957 163.082 102.957C162.757 102.957 162.471 103.045 162.225 103.221C161.978 103.394 161.786 103.643 161.648 103.968C161.513 104.294 161.446 104.684 161.446 105.139C161.446 105.599 161.513 105.995 161.648 106.326C161.783 106.655 161.972 106.908 162.216 107.087C162.462 107.263 162.751 107.351 163.082 107.351C163.317 107.351 163.527 107.307 163.711 107.219C163.899 107.128 164.056 106.998 164.182 106.828C164.308 106.658 164.395 106.451 164.442 106.208H165.964C165.926 106.686 165.785 107.109 165.541 107.479C165.298 107.845 164.967 108.133 164.547 108.341C164.128 108.546 163.635 108.649 163.069 108.649ZM169.705 108.649C169.028 108.649 168.443 108.508 167.95 108.227C167.46 107.942 167.083 107.54 166.819 107.021C166.556 106.499 166.424 105.885 166.424 105.178C166.424 104.483 166.556 103.873 166.819 103.348C167.086 102.82 167.459 102.41 167.937 102.116C168.415 101.82 168.976 101.672 169.622 101.672C170.038 101.672 170.431 101.74 170.801 101.875C171.173 102.006 171.501 102.212 171.786 102.49C172.073 102.769 172.299 103.124 172.463 103.555C172.628 103.983 172.71 104.493 172.71 105.086V105.574H167.171V104.501H171.183C171.18 104.196 171.114 103.924 170.985 103.687C170.856 103.446 170.676 103.257 170.444 103.119C170.215 102.982 169.949 102.913 169.644 102.913C169.318 102.913 169.032 102.992 168.786 103.15C168.539 103.306 168.347 103.511 168.21 103.766C168.075 104.018 168.006 104.295 168.003 104.597V105.534C168.003 105.927 168.075 106.265 168.218 106.546C168.362 106.825 168.563 107.039 168.821 107.188C169.079 107.335 169.381 107.408 169.727 107.408C169.959 107.408 170.169 107.376 170.356 107.312C170.544 107.244 170.707 107.146 170.845 107.017C170.982 106.888 171.086 106.728 171.157 106.537L172.644 106.705C172.55 107.098 172.371 107.441 172.107 107.734C171.846 108.024 171.512 108.25 171.104 108.411C170.696 108.57 170.23 108.649 169.705 108.649Z" fill="#232323"/>
<path d="M61.8798 135.154V155.174H58.2531V138.683H58.1358L53.4533 141.674V138.35L58.429 135.154H61.8798ZM65.7243 155.174V152.554L72.6747 145.741C73.3394 145.069 73.8933 144.473 74.3365 143.952C74.7797 143.43 75.112 142.925 75.3336 142.436C75.5552 141.948 75.666 141.426 75.666 140.872C75.666 140.24 75.5226 139.699 75.2359 139.25C74.9491 138.793 74.5548 138.442 74.053 138.194C73.5512 137.946 72.981 137.822 72.3423 137.822C71.6841 137.822 71.1073 137.959 70.612 138.233C70.1167 138.5 69.7322 138.881 69.4585 139.377C69.1913 139.872 69.0577 140.462 69.0577 141.146H65.607C65.607 139.875 65.897 138.771 66.477 137.832C67.057 136.894 67.8553 136.167 68.872 135.652C69.8952 135.137 71.0682 134.88 72.3912 134.88C73.7337 134.88 74.9133 135.131 75.9299 135.633C76.9466 136.135 77.7351 136.822 78.2956 137.695C78.8626 138.569 79.1461 139.566 79.1461 140.687C79.1461 141.436 79.0027 142.173 78.7159 142.896C78.4292 143.619 77.9241 144.421 77.2007 145.301C76.4839 146.18 75.477 147.246 74.1801 148.497L70.7293 152.007V152.144H79.4491V155.174H65.7243Z" fill="#232323"/>
<rect x="32" y="80.0001" width="3.44098" height="97.7237" fill="#0984E3"/>
<path d="M234.329 121.356C234.274 121.356 234.237 121.356 234.182 121.356H234.091C230.622 121.246 228.034 118.567 228.034 115.264C228.034 111.887 230.787 109.152 234.146 109.152C237.504 109.152 240.257 111.905 240.257 115.264C240.238 118.585 237.651 121.265 234.347 121.375C234.347 121.356 234.347 121.356 234.329 121.356ZM234.146 111.887C232.292 111.887 230.787 113.392 230.787 115.245C230.787 117.062 232.2 118.53 234.017 118.604C234.035 118.585 234.182 118.585 234.347 118.604C236.128 118.512 237.504 117.044 237.522 115.245C237.522 113.392 236.017 111.887 234.146 111.887Z" fill="#C6D1DF"/>
<path d="M234.348 134.882C233.632 134.882 232.916 134.827 232.201 134.698C231.448 134.57 230.953 133.854 231.081 133.102C231.21 132.349 231.925 131.854 232.678 131.982C234.935 132.367 237.321 131.945 238.917 130.881C239.78 130.312 240.239 129.596 240.239 128.881C240.239 128.165 239.761 127.468 238.917 126.899C237.321 125.834 234.898 125.412 232.623 125.816C231.87 125.963 231.154 125.449 231.026 124.696C230.898 123.944 231.393 123.228 232.145 123.1C235.137 122.568 238.238 123.136 240.441 124.605C242.055 125.687 242.991 127.229 242.991 128.881C242.991 130.514 242.074 132.074 240.441 133.175C238.77 134.276 236.605 134.882 234.348 134.882Z" fill="#C6D1DF"/>
<path d="M212.252 121.356C212.234 121.356 212.215 121.356 212.215 121.356C208.912 121.246 206.324 118.567 206.306 115.264C206.306 111.887 209.059 109.134 212.417 109.134C215.776 109.134 218.528 111.887 218.528 115.245C218.528 118.567 215.941 121.246 212.637 121.356L212.252 119.98L212.381 121.356C212.344 121.356 212.289 121.356 212.252 121.356ZM212.436 118.604C212.546 118.604 212.637 118.604 212.748 118.622C214.381 118.549 215.812 117.08 215.812 115.264C215.812 113.41 214.307 111.905 212.454 111.905C210.6 111.905 209.096 113.41 209.096 115.264C209.096 117.062 210.49 118.512 212.27 118.622C212.289 118.604 212.362 118.604 212.436 118.604Z" fill="#C6D1DF"/>
<path d="M212.234 134.882C209.977 134.882 207.811 134.276 206.141 133.175C204.526 132.092 203.59 130.532 203.59 128.881C203.59 127.247 204.526 125.687 206.141 124.605C208.343 123.136 211.445 122.568 214.436 123.1C215.188 123.228 215.684 123.944 215.556 124.696C215.427 125.449 214.711 125.963 213.959 125.816C211.683 125.412 209.279 125.834 207.664 126.899C206.802 127.468 206.343 128.165 206.343 128.881C206.343 129.596 206.82 130.312 207.664 130.881C209.261 131.945 211.647 132.367 213.904 131.982C214.656 131.854 215.372 132.367 215.5 133.102C215.629 133.854 215.133 134.57 214.381 134.698C213.665 134.827 212.95 134.882 212.234 134.882Z" fill="#C6D1DF"/>
<path d="M223.318 135.065C223.263 135.065 223.226 135.065 223.171 135.065H223.079C219.611 134.955 217.023 132.276 217.023 128.972C217.023 125.596 219.776 122.861 223.134 122.861C226.493 122.861 229.246 125.614 229.246 128.972C229.227 132.294 226.64 134.973 223.336 135.083C223.336 135.065 223.336 135.065 223.318 135.065ZM223.134 125.596C221.281 125.596 219.776 127.1 219.776 128.954C219.776 130.771 221.189 132.239 223.006 132.312C223.024 132.294 223.171 132.294 223.336 132.312C225.116 132.221 226.493 130.752 226.511 128.954C226.511 127.119 225.006 125.596 223.134 125.596Z" fill="#C6D1DF"/>
<path d="M223.318 148.609C221.116 148.609 218.913 148.04 217.207 146.884C215.592 145.801 214.656 144.259 214.656 142.608C214.656 140.974 215.573 139.396 217.207 138.313C220.638 136.038 226.016 136.038 229.429 138.313C231.044 139.396 231.98 140.938 231.98 142.589C231.98 144.223 231.062 145.801 229.429 146.884C227.722 148.022 225.52 148.609 223.318 148.609ZM218.73 140.626C217.867 141.195 217.409 141.91 217.409 142.626C217.409 143.342 217.886 144.039 218.73 144.608C221.207 146.278 225.41 146.278 227.887 144.608C228.75 144.039 229.209 143.323 229.209 142.608C229.209 141.892 228.732 141.195 227.887 140.626C225.428 138.956 221.226 138.974 218.73 140.626Z" fill="#C6D1DF"/>
</g>
</g>
<path fill-rule="evenodd" clip-rule="evenodd" d="M306.308 88.0537C312.29 88.1984 318.403 87.9089 324.123 89.9619C324.464 90.0829 324.839 89.9066 324.962 89.5644C325.083 89.2223 324.907 88.8459 324.566 88.7222C318.713 86.6219 312.46 86.8851 306.339 86.7377C305.978 86.7272 305.676 87.0167 305.668 87.3799C305.658 87.7431 305.946 88.0432 306.308 88.0537Z" fill="#394792"/>
<path fill-rule="evenodd" clip-rule="evenodd" d="M305.77 79.3373C307.635 77.6155 309.67 76.3256 312.13 75.6863C312.481 75.5952 312.691 75.2359 312.602 74.8843C312.51 74.5327 312.151 74.3213 311.802 74.4124C309.127 75.1072 306.911 76.4974 304.884 78.3685C304.617 78.6143 304.598 79.031 304.845 79.2984C305.089 79.5655 305.506 79.5831 305.77 79.3373Z" fill="#394792"/>
<path fill-rule="evenodd" clip-rule="evenodd" d="M300.583 60.539C301.438 57.5978 303.122 55.2969 305.702 53.6354C306.007 53.4393 306.096 53.0319 305.899 52.7263C305.705 52.4207 305.298 52.3318 304.994 52.5278C302.138 54.3676 300.271 56.9137 299.324 60.1703C299.222 60.5188 299.424 60.8846 299.77 60.9862C300.119 61.0881 300.483 60.8875 300.583 60.539Z" fill="#394792"/>
<path fill-rule="evenodd" clip-rule="evenodd" d="M271.119 56.5474C270.61 57.1483 270.154 57.7958 269.766 58.4851C269.593 58.792 269.289 59.4442 269.241 60.0035C269.189 60.5993 269.391 61.1021 269.91 61.3668C270.6 61.7179 271.151 61.6814 271.575 61.469C271.985 61.265 272.304 60.8641 272.506 60.3267C272.892 59.2994 272.834 57.7295 272.632 56.8335C273.175 56.2713 273.77 55.7615 274.408 55.3083C279.154 51.9328 286.117 53.1775 291.475 58.2245C293.35 59.9916 294.252 63.7027 294.722 67.7067C295.453 73.941 295.036 80.9042 294.979 82.9442C294.966 83.448 295.013 83.747 295.039 83.8067C295.162 84.1004 295.38 84.1768 295.532 84.2057C295.752 84.2452 295.928 84.2031 296.07 84.1294C296.261 84.0283 296.419 83.8504 296.492 83.5759C296.531 83.4243 296.542 83.2132 296.537 82.9882C296.531 82.8321 296.5 82.6616 296.531 82.5497C296.736 81.8333 296.982 81.1337 297.224 80.4291C298.029 78.0606 299.07 75.8411 300.226 73.6242C303.901 66.58 307.454 59.137 313.478 53.7702C313.748 53.5294 313.774 53.113 313.533 52.8414C313.294 52.5697 312.88 52.545 312.607 52.7861C306.463 58.259 302.812 65.8301 299.065 73.0138C298.081 74.8996 297.179 76.7881 296.429 78.7633C296.505 75.2691 296.476 70.4324 295.839 66.1528C295.272 62.3467 294.195 58.9831 292.372 57.2652C286.503 51.7362 278.848 50.5368 273.65 54.2347C273.094 54.6306 272.564 55.0659 272.071 55.5381C269.352 50.6097 263.53 48.6344 258.384 50.9916C258.054 51.1424 257.909 51.533 258.059 51.8633C258.211 52.1936 258.599 52.3394 258.93 52.1886C263.566 50.0646 268.824 51.9602 271.119 56.5474ZM271.499 58.1974C271.287 58.4985 271.09 58.8107 270.907 59.1333C270.81 59.3065 270.642 59.6395 270.571 59.9653C270.555 60.0416 270.553 60.1611 270.553 60.2164C270.734 60.3059 270.875 60.3491 270.991 60.2909C271.135 60.2193 271.208 60.0508 271.279 59.8627C271.457 59.3905 271.515 58.7646 271.499 58.1974Z" fill="#394792"/>
</g>
<defs>
<filter id="filter0_d_353_1659" x="85.7007" y="172.434" width="321.56" height="183.921" filterUnits="userSpaceOnUse" color-interpolation-filters="sRGB">
<feFlood flood-opacity="0" result="BackgroundImageFix"/>
<feColorMatrix in="SourceAlpha" type="matrix" values="0 0 0 0 0 0 0 0 0 0 0 0 0 0 0 0 0 0 127 0" result="hardAlpha"/>
<feOffset dx="16.1619" dy="16.1619"/>
<feGaussianBlur stdDeviation="21.5492"/>
<feComposite in2="hardAlpha" operator="out"/>
<feColorMatrix type="matrix" values="0 0 0 0 0.0726736 0 0 0 0 0.176881 0 0 0 0 0.379167 0 0 0 0.1 0"/>
<feBlend mode="normal" in2="BackgroundImageFix" result="effect1_dropShadow_353_1659"/>
<feBlend mode="normal" in="SourceGraphic" in2="effect1_dropShadow_353_1659" result="shape"/>
</filter>
<filter id="filter1_d_353_1659" x="47.3494" y="111.962" width="321.56" height="183.921" filterUnits="userSpaceOnUse" color-interpolation-filters="sRGB">
<feFlood flood-opacity="0" result="BackgroundImageFix"/>
<feColorMatrix in="SourceAlpha" type="matrix" values="0 0 0 0 0 0 0 0 0 0 0 0 0 0 0 0 0 0 127 0" result="hardAlpha"/>
<feOffset dx="16.1619" dy="16.1619"/>
<feGaussianBlur stdDeviation="21.5492"/>
<feComposite in2="hardAlpha" operator="out"/>
<feColorMatrix type="matrix" values="0 0 0 0 0.0726736 0 0 0 0 0.176881 0 0 0 0 0.379167 0 0 0 0.1 0"/>
<feBlend mode="normal" in2="BackgroundImageFix" result="effect1_dropShadow_353_1659"/>
<feBlend mode="normal" in="SourceGraphic" in2="effect1_dropShadow_353_1659" result="shape"/>
</filter>
<filter id="filter2_d_353_1659" x="5.06351" y="53.0636" width="321.56" height="183.921" filterUnits="userSpaceOnUse" color-interpolation-filters="sRGB">
<feFlood flood-opacity="0" result="BackgroundImageFix"/>
<feColorMatrix in="SourceAlpha" type="matrix" values="0 0 0 0 0 0 0 0 0 0 0 0 0 0 0 0 0 0 127 0" result="hardAlpha"/>
<feOffset dx="16.1619" dy="16.1619"/>
<feGaussianBlur stdDeviation="21.5492"/>
<feComposite in2="hardAlpha" operator="out"/>
<feColorMatrix type="matrix" values="0 0 0 0 0.0726736 0 0 0 0 0.176881 0 0 0 0 0.379167 0 0 0 0.1 0"/>
<feBlend mode="normal" in2="BackgroundImageFix" result="effect1_dropShadow_353_1659"/>
<feBlend mode="normal" in="SourceGraphic" in2="effect1_dropShadow_353_1659" result="shape"/>
</filter>
<clipPath id="clip0_353_1659">
<rect width="379" height="378" rx="16" fill="white"/>
</clipPath>
<clipPath id="clip1_353_1659">
<rect x="112.637" y="199.37" width="235.363" height="97.7237" rx="8.25834" fill="white"/>
</clipPath>
<clipPath id="clip2_353_1659">
<rect x="74.2859" y="138.898" width="235.363" height="97.7237" rx="8.25834" fill="white"/>
</clipPath>
<clipPath id="clip3_353_1659">
<rect x="32" y="80.0001" width="235.363" height="97.7237" rx="8.25834" fill="white"/>
</clipPath>
</defs>
</svg>
