<svg width="378" height="378" viewBox="0 0 378 378" fill="none" xmlns="http://www.w3.org/2000/svg">
<g clip-path="url(#clip0_353_1692)">
<rect width="378" height="378" rx="16" fill="#F5F7FF"/>
<g filter="url(#filter0_d_353_1692)">
<g clip-path="url(#clip1_353_1692)">
<rect x="67" y="67" width="244" height="244" rx="8" fill="white"/>
<path d="M83.9212 96.0366V86.6969H87.4236C88.1411 86.6969 88.7431 86.8307 89.2295 87.0982C89.719 87.3658 90.0884 87.7336 90.3377 88.2018C90.59 88.667 90.7162 89.196 90.7162 89.7889C90.7162 90.3878 90.59 90.9198 90.3377 91.385C90.0854 91.8502 89.7129 92.2165 89.2204 92.4841C88.7279 92.7486 88.1213 92.8808 87.4008 92.8808H85.0795V91.4899H87.1728C87.5923 91.4899 87.9359 91.4169 88.2034 91.271C88.471 91.1251 88.6686 90.9244 88.7963 90.669C88.927 90.4136 88.9924 90.1203 88.9924 89.7889C88.9924 89.4575 88.927 89.1656 88.7963 88.9133C88.6686 88.6609 88.4694 88.4648 88.1989 88.325C87.9313 88.1821 87.5862 88.1106 87.1637 88.1106H85.6131V96.0366H83.9212ZM91.5349 96.0366V89.0318H93.1356V90.1993H93.2086C93.3363 89.7949 93.5552 89.4833 93.8653 89.2644C94.1785 89.0425 94.5357 88.9315 94.937 88.9315C95.0282 88.9315 95.1301 88.9361 95.2425 88.9452C95.3581 88.9513 95.4538 88.9619 95.5299 88.9771V90.4957C95.4599 90.4714 95.349 90.4501 95.1969 90.4319C95.048 90.4106 94.9036 90.4 94.7637 90.4C94.4627 90.4 94.1921 90.4653 93.952 90.5961C93.7148 90.7237 93.5278 90.9016 93.391 91.1296C93.2542 91.3576 93.1858 91.6206 93.1858 91.9186V96.0366H91.5349ZM98.8158 96.1734C98.1317 96.1734 97.5389 96.0229 97.0372 95.722C96.5356 95.421 96.1464 94.9999 95.8697 94.4587C95.5961 93.9176 95.4593 93.2852 95.4593 92.5616C95.4593 91.838 95.5961 91.2041 95.8697 90.6599C96.1464 90.1157 96.5356 89.6931 97.0372 89.3921C97.5389 89.0911 98.1317 88.9406 98.8158 88.9406C99.4998 88.9406 100.093 89.0911 100.594 89.3921C101.096 89.6931 101.484 90.1157 101.757 90.6599C102.034 91.2041 102.172 91.838 102.172 92.5616C102.172 93.2852 102.034 93.9176 101.757 94.4587C101.484 94.9999 101.096 95.421 100.594 95.722C100.093 96.0229 99.4998 96.1734 98.8158 96.1734ZM98.8249 94.8509C99.1958 94.8509 99.5059 94.7491 99.7552 94.5454C100.005 94.3386 100.19 94.062 100.312 93.7154C100.436 93.3688 100.499 92.9827 100.499 92.557C100.499 92.1284 100.436 91.7407 100.312 91.3941C100.19 91.0445 100.005 90.7663 99.7552 90.5596C99.5059 90.3528 99.1958 90.2495 98.8249 90.2495C98.4449 90.2495 98.1287 90.3528 97.8763 90.5596C97.627 90.7663 97.44 91.0445 97.3154 91.3941C97.1938 91.7407 97.133 92.1284 97.133 92.557C97.133 92.9827 97.1938 93.3688 97.3154 93.7154C97.44 94.062 97.627 94.3386 97.8763 94.5454C98.1287 94.7491 98.4449 94.8509 98.8249 94.8509ZM102.996 89.0318H104.646V96.4379C104.646 96.9426 104.551 97.3591 104.359 97.6875C104.168 98.0158 103.891 98.2606 103.529 98.4217C103.167 98.5828 102.728 98.6634 102.211 98.6634C102.15 98.6634 102.094 98.6619 102.042 98.6589C101.991 98.6589 101.934 98.6573 101.874 98.6543V97.309C101.919 97.312 101.96 97.3135 101.997 97.3135C102.033 97.3166 102.071 97.3181 102.111 97.3181C102.427 97.3181 102.653 97.2406 102.79 97.0855C102.927 96.9335 102.996 96.71 102.996 96.4151V89.0318ZM103.816 88.0377C103.552 88.0377 103.325 87.951 103.137 87.7777C102.951 87.6014 102.859 87.3901 102.859 87.1438C102.859 86.8945 102.951 86.6832 103.137 86.5099C103.325 86.3336 103.552 86.2454 103.816 86.2454C104.078 86.2454 104.301 86.3336 104.487 86.5099C104.675 86.6832 104.77 86.8945 104.77 87.1438C104.77 87.3901 104.675 87.6014 104.487 87.7777C104.301 87.951 104.078 88.0377 103.816 88.0377ZM108.867 96.1734C108.165 96.1734 107.558 96.0275 107.048 95.7356C106.54 95.4407 106.149 95.0242 105.876 94.4861C105.602 93.9449 105.465 93.308 105.465 92.5753C105.465 91.8547 105.602 91.2224 105.876 90.6781C106.152 90.1309 106.538 89.7053 107.034 89.4012C107.529 89.0942 108.112 88.9406 108.781 88.9406C109.212 88.9406 109.62 89.0106 110.003 89.1504C110.389 89.2872 110.729 89.5 111.024 89.7889C111.322 90.0777 111.556 90.4456 111.727 90.8925C111.897 91.3364 111.982 91.8654 111.982 92.4795V92.9857H106.24V91.873H110.399C110.396 91.5568 110.328 91.2756 110.194 91.0293C110.06 90.78 109.874 90.5839 109.633 90.441C109.396 90.2981 109.12 90.2267 108.803 90.2267C108.466 90.2267 108.169 90.3087 107.914 90.4729C107.659 90.6341 107.46 90.8469 107.317 91.1114C107.177 91.3728 107.105 91.6602 107.102 91.9733V92.9447C107.102 93.3521 107.177 93.7017 107.326 93.9936C107.475 94.2824 107.683 94.5043 107.951 94.6594C108.218 94.8114 108.531 94.8874 108.89 94.8874C109.13 94.8874 109.348 94.854 109.542 94.7871C109.737 94.7171 109.905 94.6153 110.048 94.4815C110.191 94.3478 110.299 94.1821 110.372 93.9844L111.914 94.1577C111.816 94.5651 111.631 94.9208 111.357 95.2249C111.087 95.5259 110.74 95.76 110.317 95.9272C109.895 96.0913 109.411 96.1734 108.867 96.1734ZM115.856 96.1734C115.157 96.1734 114.556 96.0199 114.055 95.7128C113.556 95.4058 113.172 94.9816 112.901 94.4405C112.633 93.8963 112.5 93.27 112.5 92.5616C112.5 91.8502 112.636 91.2224 112.91 90.6781C113.184 90.1309 113.57 89.7053 114.068 89.4012C114.57 89.0942 115.163 88.9406 115.847 88.9406C116.416 88.9406 116.919 89.0455 117.357 89.2553C117.797 89.462 118.149 89.7554 118.41 90.1355C118.671 90.5124 118.82 90.9533 118.857 91.458H117.279C117.215 91.1205 117.063 90.8393 116.823 90.6143C116.586 90.3863 116.268 90.2723 115.87 90.2723C115.532 90.2723 115.236 90.3635 114.981 90.5459C114.725 90.7253 114.526 90.9837 114.383 91.3212C114.243 91.6586 114.173 92.063 114.173 92.5342C114.173 93.0116 114.243 93.422 114.383 93.7655C114.523 94.106 114.719 94.369 114.971 94.5545C115.227 94.7369 115.526 94.8281 115.87 94.8281C116.113 94.8281 116.33 94.7825 116.522 94.6913C116.717 94.5971 116.879 94.4618 117.01 94.2854C117.141 94.1091 117.23 93.8947 117.279 93.6424H118.857C118.817 94.138 118.671 94.5773 118.419 94.9604C118.167 95.3404 117.823 95.6383 117.388 95.8542C116.954 96.067 116.443 96.1734 115.856 96.1734ZM123.132 89.0318V90.3087H119.106V89.0318H123.132ZM120.1 87.3536H121.751V93.9297C121.751 94.1517 121.784 94.3219 121.851 94.4405C121.921 94.556 122.012 94.6351 122.125 94.6776C122.237 94.7202 122.362 94.7415 122.499 94.7415C122.602 94.7415 122.696 94.7339 122.781 94.7187C122.869 94.7035 122.936 94.6898 122.982 94.6776L123.26 95.9682C123.172 95.9986 123.046 96.0321 122.882 96.0685C122.72 96.105 122.523 96.1263 122.289 96.1324C121.875 96.1446 121.503 96.0822 121.171 95.9454C120.84 95.8056 120.577 95.5897 120.382 95.2978C120.191 95.006 120.097 94.6411 120.1 94.2033V87.3536ZM129.371 90.8834L127.866 91.0475C127.824 90.8955 127.749 90.7526 127.643 90.6189C127.539 90.4851 127.4 90.3772 127.223 90.2951C127.047 90.213 126.831 90.1719 126.576 90.1719C126.232 90.1719 125.943 90.2464 125.709 90.3954C125.478 90.5444 125.364 90.7374 125.367 90.9746C125.364 91.1783 125.439 91.344 125.591 91.4717C125.746 91.5993 126.001 91.7042 126.357 91.7863L127.552 92.0417C128.214 92.1846 128.707 92.4111 129.029 92.7212C129.354 93.0313 129.519 93.4372 129.522 93.9388C129.519 94.3797 129.389 94.7688 129.134 95.1063C128.882 95.4407 128.531 95.7022 128.081 95.8907C127.631 96.0792 127.114 96.1734 126.53 96.1734C125.673 96.1734 124.983 95.9941 124.46 95.6353C123.937 95.2735 123.625 94.7703 123.525 94.1258L125.135 93.9708C125.208 94.2869 125.363 94.5256 125.6 94.6867C125.837 94.8479 126.145 94.9284 126.525 94.9284C126.918 94.9284 127.232 94.8479 127.469 94.6867C127.71 94.5256 127.83 94.3265 127.83 94.0893C127.83 93.8887 127.752 93.723 127.597 93.5922C127.445 93.4615 127.208 93.3612 126.886 93.2913L125.691 93.0404C125.019 92.9006 124.522 92.665 124.2 92.3336C123.877 91.9991 123.718 91.5765 123.721 91.0658C123.718 90.6341 123.835 90.2601 124.072 89.9439C124.312 89.6247 124.645 89.3784 125.071 89.2051C125.499 89.0288 125.993 88.9406 126.553 88.9406C127.374 88.9406 128.02 89.1154 128.491 89.4651C128.965 89.8147 129.259 90.2875 129.371 90.8834Z" fill="#232323"/>
<rect x="83" y="109" width="212" height="43" rx="6" fill="white"/>
<rect x="83.5" y="109.5" width="211" height="42" rx="5.5" stroke="#232323" stroke-opacity="0.16"/>
<path d="M271 124.333C267.327 124.333 264.333 127.327 264.333 131C264.333 134.673 267.327 137.667 271 137.667C274.673 137.667 277.667 134.673 277.667 131C277.667 127.327 274.673 124.333 271 124.333ZM274.187 129.467L270.407 133.247C270.313 133.34 270.187 133.393 270.053 133.393C269.92 133.393 269.793 133.34 269.7 133.247L267.813 131.36C267.62 131.167 267.62 130.847 267.813 130.653C268.007 130.46 268.327 130.46 268.52 130.653L270.053 132.187L273.48 128.76C273.673 128.567 273.993 128.567 274.187 128.76C274.38 128.953 274.38 129.267 274.187 129.467Z" fill="#0C853C"/>
<rect x="116" y="126" width="100" height="10" rx="5" fill="#E2E2E2"/>
<path d="M103.629 126.66V136H101.937V128.307H101.882L99.6977 129.702V128.152L102.019 126.66H103.629ZM105.943 136.1C105.667 136.1 105.43 136.003 105.232 135.808C105.034 135.614 104.937 135.377 104.94 135.097C104.937 134.823 105.034 134.589 105.232 134.395C105.43 134.2 105.667 134.103 105.943 134.103C106.211 134.103 106.443 134.2 106.641 134.395C106.842 134.589 106.944 134.823 106.947 135.097C106.944 135.282 106.895 135.451 106.801 135.603C106.71 135.755 106.588 135.877 106.436 135.968C106.287 136.056 106.123 136.1 105.943 136.1Z" fill="#232323"/>
<rect x="83" y="227" width="212" height="43" rx="6" fill="white"/>
<rect x="83.5" y="227.5" width="211" height="42" rx="5.5" stroke="#232323" stroke-opacity="0.16"/>
<rect x="116" y="244" width="100" height="10" rx="5" fill="#E2E2E2"/>
<path d="M103.182 254.128C102.525 254.128 101.941 254.015 101.431 253.79C100.923 253.565 100.522 253.252 100.227 252.851C99.9318 252.449 99.7753 251.986 99.757 251.46H101.472C101.487 251.712 101.571 251.933 101.723 252.121C101.875 252.307 102.077 252.451 102.329 252.554C102.581 252.658 102.864 252.709 103.177 252.709C103.512 252.709 103.808 252.652 104.067 252.536C104.325 252.418 104.527 252.253 104.673 252.044C104.819 251.834 104.891 251.592 104.887 251.318C104.891 251.036 104.818 250.786 104.669 250.571C104.52 250.355 104.304 250.186 104.021 250.064C103.741 249.943 103.404 249.882 103.009 249.882H102.183V248.578H103.009C103.334 248.578 103.618 248.521 103.861 248.409C104.108 248.296 104.301 248.138 104.441 247.935C104.58 247.728 104.649 247.489 104.646 247.219C104.649 246.954 104.59 246.725 104.468 246.53C104.349 246.332 104.181 246.179 103.962 246.069C103.746 245.96 103.492 245.905 103.2 245.905C102.914 245.905 102.65 245.957 102.407 246.06C102.163 246.164 101.967 246.311 101.818 246.503C101.669 246.691 101.59 246.916 101.581 247.178H99.9531C99.9653 246.655 100.116 246.196 100.405 245.8C100.696 245.402 101.086 245.092 101.572 244.87C102.059 244.645 102.604 244.533 103.209 244.533C103.833 244.533 104.374 244.65 104.833 244.884C105.295 245.115 105.652 245.426 105.904 245.819C106.157 246.211 106.283 246.644 106.283 247.118C106.286 247.644 106.131 248.085 105.818 248.441C105.508 248.797 105.1 249.029 104.596 249.139V249.212C105.252 249.303 105.755 249.546 106.105 249.941C106.458 250.333 106.633 250.821 106.63 251.405C106.63 251.928 106.481 252.396 106.183 252.81C105.888 253.22 105.48 253.542 104.96 253.777C104.444 254.011 103.851 254.128 103.182 254.128ZM108.376 254.1C108.1 254.1 107.863 254.003 107.665 253.808C107.467 253.614 107.37 253.377 107.373 253.097C107.37 252.823 107.467 252.589 107.665 252.395C107.863 252.2 108.1 252.103 108.376 252.103C108.644 252.103 108.876 252.2 109.074 252.395C109.275 252.589 109.377 252.823 109.38 253.097C109.377 253.282 109.328 253.451 109.234 253.603C109.142 253.755 109.021 253.877 108.869 253.968C108.72 254.056 108.556 254.1 108.376 254.1Z" fill="#232323"/>
<path d="M264.144 249C263.512 249 262.992 249.515 263.082 250.14C263.251 251.318 263.682 252.447 264.348 253.445C265.227 254.76 266.477 255.786 267.939 256.391C269.4 256.997 271.009 257.155 272.561 256.846C274.113 256.538 275.538 255.776 276.657 254.657C277.776 253.538 278.538 252.113 278.846 250.561C279.155 249.009 278.997 247.4 278.391 245.939C277.786 244.477 276.76 243.227 275.445 242.348C274.447 241.682 273.318 241.251 272.14 241.082C271.515 240.992 271 241.512 271 242.144C271 242.776 271.517 243.276 272.136 243.402C272.861 243.549 273.553 243.836 274.174 244.25C275.113 244.878 275.845 245.77 276.277 246.814C276.71 247.858 276.823 249.006 276.603 250.114C276.382 251.222 275.838 252.24 275.039 253.039C274.24 253.838 273.222 254.382 272.114 254.603C271.006 254.823 269.858 254.71 268.814 254.277C267.77 253.845 266.878 253.113 266.25 252.174C265.836 251.553 265.549 250.861 265.402 250.136C265.276 249.517 264.776 249 264.144 249Z" fill="#4186ED"/>
<rect x="83" y="278" width="212" height="43" rx="6" fill="white"/>
<rect x="83.5" y="278.5" width="211" height="42" rx="5.5" stroke="#232323" stroke-opacity="0.16"/>
<rect x="116" y="295" width="100" height="10" rx="5" fill="#E2E2E2"/>
<path d="M99.6613 303.267V301.922L103.624 295.66H104.746V297.576H104.062L101.394 301.803V301.876H106.926V303.267H99.6613ZM104.117 305V302.857L104.135 302.255V295.66H105.731V305H104.117ZM108.577 305.1C108.3 305.1 108.063 305.003 107.866 304.808C107.668 304.614 107.571 304.377 107.574 304.097C107.571 303.823 107.668 303.589 107.866 303.395C108.063 303.2 108.3 303.103 108.577 303.103C108.845 303.103 109.077 303.2 109.275 303.395C109.475 303.589 109.577 303.823 109.58 304.097C109.577 304.282 109.529 304.451 109.434 304.603C109.343 304.755 109.222 304.877 109.07 304.968C108.921 305.056 108.756 305.1 108.577 305.1Z" fill="#232323"/>
<path d="M271 293.333C267.327 293.333 264.333 296.327 264.333 300C264.333 303.673 267.327 306.667 271 306.667C274.673 306.667 277.667 303.673 277.667 300C277.667 296.327 274.673 293.333 271 293.333ZM270.5 297.333C270.5 297.06 270.727 296.833 271 296.833C271.273 296.833 271.5 297.06 271.5 297.333V300.667C271.5 300.94 271.273 301.167 271 301.167C270.727 301.167 270.5 300.94 270.5 300.667V297.333ZM271.613 302.92C271.58 303.007 271.533 303.073 271.473 303.14C271.407 303.2 271.333 303.247 271.253 303.28C271.173 303.313 271.087 303.333 271 303.333C270.913 303.333 270.827 303.313 270.747 303.28C270.667 303.247 270.593 303.2 270.527 303.14C270.467 303.073 270.42 303.007 270.387 302.92C270.353 302.84 270.333 302.753 270.333 302.667C270.333 302.58 270.353 302.493 270.387 302.413C270.42 302.333 270.467 302.26 270.527 302.193C270.593 302.133 270.667 302.087 270.747 302.053C270.907 301.987 271.093 301.987 271.253 302.053C271.333 302.087 271.407 302.133 271.473 302.193C271.533 302.26 271.58 302.333 271.613 302.413C271.647 302.493 271.667 302.58 271.667 302.667C271.667 302.753 271.647 302.84 271.613 302.92Z" fill="#FF7A00"/>
<rect x="83" y="160" width="212" height="59" rx="6" fill="white"/>
<rect x="83.5" y="160.5" width="211" height="58" rx="5.5" stroke="#232323" stroke-opacity="0.16"/>
<path d="M271 183.333C267.327 183.333 264.333 186.327 264.333 190C264.333 193.673 267.327 196.667 271 196.667C274.673 196.667 277.667 193.673 277.667 190C277.667 186.327 274.673 183.333 271 183.333ZM274.187 188.467L270.407 192.247C270.313 192.34 270.187 192.393 270.053 192.393C269.92 192.393 269.793 192.34 269.7 192.247L267.813 190.36C267.62 190.167 267.62 189.847 267.813 189.653C268.007 189.46 268.327 189.46 268.52 189.653L270.053 191.187L273.48 187.76C273.673 187.567 273.993 187.567 274.187 187.76C274.38 187.953 274.38 188.267 274.187 188.467Z" fill="#0C853C"/>
<rect x="116" y="177" width="100" height="10" rx="5" fill="#E2E2E2"/>
<rect x="116" y="193" width="120" height="10" rx="5" fill="#E2E2E2"/>
<path d="M99.83 187V185.778L103.072 182.599C103.383 182.286 103.641 182.008 103.848 181.765C104.054 181.521 104.21 181.286 104.313 181.058C104.416 180.83 104.468 180.587 104.468 180.328C104.468 180.033 104.401 179.781 104.267 179.571C104.133 179.358 103.95 179.194 103.715 179.079C103.481 178.963 103.215 178.905 102.917 178.905C102.61 178.905 102.341 178.969 102.11 179.097C101.879 179.221 101.7 179.399 101.572 179.63C101.447 179.861 101.385 180.137 101.385 180.456H99.7753C99.7753 179.863 99.9106 179.348 100.181 178.91C100.452 178.472 100.824 178.133 101.298 177.893C101.776 177.653 102.323 177.533 102.94 177.533C103.566 177.533 104.117 177.65 104.591 177.884C105.065 178.118 105.433 178.439 105.695 178.846C105.959 179.253 106.091 179.719 106.091 180.241C106.091 180.591 106.025 180.935 105.891 181.272C105.757 181.61 105.521 181.984 105.184 182.394C104.849 182.804 104.38 183.302 103.775 183.885L102.165 185.522V185.586H106.233V187H99.83ZM108.263 187.1C107.987 187.1 107.75 187.003 107.552 186.808C107.354 186.614 107.257 186.377 107.26 186.097C107.257 185.823 107.354 185.589 107.552 185.395C107.75 185.2 107.987 185.103 108.263 185.103C108.531 185.103 108.764 185.2 108.961 185.395C109.162 185.589 109.264 185.823 109.267 186.097C109.264 186.282 109.215 186.451 109.121 186.603C109.03 186.755 108.908 186.877 108.756 186.968C108.607 187.056 108.443 187.1 108.263 187.1Z" fill="#232323"/>
</g>
</g>
<path fill-rule="evenodd" clip-rule="evenodd" d="M50.3647 65.1963C47.9775 64.536 45.4783 64.2029 43.0538 63.8977C42.5316 63.8337 42.0468 64.1907 42.0095 64.6937C41.9349 65.1971 42.3081 65.6574 42.793 65.7214C45.1429 66.0151 47.5671 66.3295 49.8423 66.9652C50.3272 67.1031 50.8496 66.8193 50.9988 66.331C51.148 65.8431 50.8495 65.3346 50.3647 65.1963Z" fill="#394792"/>
<path fill-rule="evenodd" clip-rule="evenodd" d="M57.6004 55.8341C53.7586 51.9694 49.4319 48.6022 45.6647 44.6338C45.329 44.2632 44.7322 44.2433 44.3592 44.5893C43.9862 44.9357 43.949 45.5181 44.322 45.8887C48.0892 49.8685 52.4159 53.2467 56.2577 57.1228C56.6307 57.4846 57.2274 57.4897 57.6004 57.1338C57.936 56.7783 57.9733 56.1959 57.6004 55.8341Z" fill="#394792"/>
<path fill-rule="evenodd" clip-rule="evenodd" d="M64.7996 40.9691C64.9115 43.1811 65.0232 45.393 65.1351 47.6054C65.1351 48.112 65.5829 48.5032 66.1051 48.4786C66.6273 48.4536 67 48.0223 67 47.5153C66.8881 45.2996 66.7764 43.0844 66.6646 40.8691C66.6273 40.3624 66.1796 39.9738 65.6574 40.0014C65.1725 40.029 64.7623 40.4628 64.7996 40.9691Z" fill="#394792"/>
</g>
<defs>
<filter id="filter0_d_353_1692" x="31.3275" y="31.3275" width="358.152" height="358.152" filterUnits="userSpaceOnUse" color-interpolation-filters="sRGB">
<feFlood flood-opacity="0" result="BackgroundImageFix"/>
<feColorMatrix in="SourceAlpha" type="matrix" values="0 0 0 0 0 0 0 0 0 0 0 0 0 0 0 0 0 0 127 0" result="hardAlpha"/>
<feOffset dx="21.4035" dy="21.4035"/>
<feGaussianBlur stdDeviation="28.538"/>
<feComposite in2="hardAlpha" operator="out"/>
<feColorMatrix type="matrix" values="0 0 0 0 0.0726736 0 0 0 0 0.176881 0 0 0 0 0.379167 0 0 0 0.1 0"/>
<feBlend mode="normal" in2="BackgroundImageFix" result="effect1_dropShadow_353_1692"/>
<feBlend mode="normal" in="SourceGraphic" in2="effect1_dropShadow_353_1692" result="shape"/>
</filter>
<clipPath id="clip0_353_1692">
<rect width="378" height="378" rx="16" fill="white"/>
</clipPath>
<clipPath id="clip1_353_1692">
<rect x="67" y="67" width="244" height="244" rx="8" fill="white"/>
</clipPath>
</defs>
</svg>
