<svg width="592" height="559" viewBox="0 0 592 559" fill="none" xmlns="http://www.w3.org/2000/svg">
<g clip-path="url(#clip0_353_1766)">
<rect width="592" height="559" rx="16" fill="#F5F7FF"/>
<rect x="318" y="372" width="343.086" height="316" rx="12.0381" fill="white"/>
<path d="M350.078 404.433C350.018 403.873 349.766 403.437 349.321 403.125C348.881 402.813 348.308 402.656 347.603 402.656C347.107 402.656 346.681 402.731 346.327 402.881C345.972 403.031 345.7 403.234 345.512 403.49C345.324 403.747 345.228 404.039 345.224 404.369C345.224 404.642 345.286 404.879 345.41 405.08C345.538 405.281 345.711 405.452 345.929 405.593C346.147 405.73 346.389 405.846 346.654 405.94C346.919 406.034 347.186 406.113 347.455 406.177L348.686 406.485C349.182 406.6 349.659 406.756 350.116 406.953C350.578 407.149 350.991 407.397 351.354 407.697C351.722 407.996 352.012 408.357 352.226 408.78C352.44 409.203 352.547 409.699 352.547 410.268C352.547 411.037 352.35 411.715 351.957 412.301C351.563 412.882 350.995 413.337 350.251 413.666C349.511 413.991 348.616 414.154 347.564 414.154C346.543 414.154 345.655 413.996 344.903 413.679C344.155 413.363 343.569 412.901 343.146 412.294C342.727 411.687 342.501 410.948 342.466 410.076H344.807C344.841 410.533 344.982 410.913 345.23 411.217C345.478 411.52 345.801 411.747 346.198 411.897C346.6 412.046 347.049 412.121 347.545 412.121C348.062 412.121 348.515 412.044 348.904 411.89C349.298 411.732 349.605 411.514 349.828 411.236C350.05 410.954 350.163 410.625 350.168 410.249C350.163 409.907 350.063 409.625 349.866 409.402C349.67 409.176 349.394 408.988 349.039 408.838C348.689 408.684 348.278 408.547 347.808 408.428L346.314 408.043C345.232 407.765 344.377 407.344 343.749 406.78C343.125 406.211 342.813 405.457 342.813 404.516C342.813 403.742 343.022 403.065 343.441 402.483C343.864 401.902 344.439 401.451 345.166 401.13C345.893 400.805 346.716 400.643 347.635 400.643C348.567 400.643 349.383 400.805 350.084 401.13C350.79 401.451 351.343 401.898 351.745 402.471C352.147 403.039 352.354 403.693 352.367 404.433H350.078ZM358.049 414.147C357.065 414.147 356.221 413.932 355.516 413.5C354.815 413.068 354.274 412.472 353.893 411.711C353.517 410.945 353.329 410.065 353.329 409.069C353.329 408.068 353.521 407.186 353.906 406.421C354.291 405.651 354.834 405.053 355.535 404.625C356.24 404.193 357.074 403.977 358.036 403.977C358.835 403.977 359.543 404.125 360.158 404.42C360.778 404.711 361.272 405.123 361.639 405.657C362.007 406.188 362.217 406.807 362.268 407.517H360.049C359.959 407.043 359.746 406.647 359.408 406.331C359.075 406.01 358.628 405.85 358.068 405.85C357.593 405.85 357.177 405.978 356.817 406.235C356.458 406.487 356.178 406.85 355.977 407.325C355.781 407.799 355.682 408.368 355.682 409.03C355.682 409.701 355.781 410.279 355.977 410.762C356.174 411.24 356.45 411.61 356.805 411.871C357.164 412.128 357.585 412.256 358.068 412.256C358.41 412.256 358.715 412.192 358.985 412.063C359.258 411.931 359.487 411.741 359.671 411.493C359.855 411.245 359.981 410.943 360.049 410.589H362.268C362.212 411.285 362.007 411.903 361.652 412.442C361.297 412.976 360.814 413.395 360.203 413.699C359.592 413.998 358.874 414.147 358.049 414.147ZM365.683 408.184V413.955H363.361V400.823H365.631V405.779H365.747C365.978 405.224 366.335 404.785 366.818 404.465C367.305 404.14 367.925 403.977 368.677 403.977C369.361 403.977 369.958 404.121 370.466 404.407C370.975 404.693 371.368 405.112 371.646 405.664C371.928 406.215 372.069 406.889 372.069 407.684V413.955H369.748V408.043C369.748 407.38 369.577 406.865 369.235 406.497C368.897 406.126 368.423 405.94 367.812 405.94C367.401 405.94 367.034 406.029 366.709 406.209C366.388 406.384 366.136 406.639 365.952 406.972C365.772 407.305 365.683 407.709 365.683 408.184ZM377.983 414.147C376.996 414.147 376.143 413.942 375.425 413.532C374.711 413.117 374.162 412.531 373.777 411.775C373.392 411.014 373.2 410.118 373.2 409.088C373.2 408.075 373.392 407.186 373.777 406.421C374.166 405.651 374.709 405.053 375.406 404.625C376.102 404.193 376.921 403.977 377.861 403.977C378.469 403.977 379.041 404.076 379.58 404.272C380.123 404.465 380.602 404.764 381.016 405.17C381.435 405.576 381.764 406.093 382.004 406.722C382.243 407.346 382.363 408.09 382.363 408.953V409.665H374.29V408.101H380.138C380.134 407.656 380.037 407.261 379.849 406.914C379.661 406.564 379.398 406.288 379.061 406.087C378.727 405.886 378.338 405.786 377.894 405.786C377.419 405.786 377.002 405.901 376.643 406.132C376.284 406.359 376.004 406.658 375.803 407.03C375.606 407.397 375.506 407.801 375.502 408.242V409.607C375.502 410.18 375.606 410.672 375.816 411.082C376.025 411.488 376.318 411.8 376.694 412.018C377.071 412.232 377.511 412.339 378.015 412.339C378.353 412.339 378.659 412.292 378.932 412.198C379.206 412.1 379.443 411.957 379.644 411.768C379.845 411.58 379.997 411.347 380.099 411.069L382.267 411.313C382.13 411.886 381.869 412.386 381.484 412.814C381.104 413.237 380.617 413.566 380.022 413.801C379.428 414.032 378.749 414.147 377.983 414.147ZM387.169 414.128C386.395 414.128 385.703 413.929 385.092 413.532C384.48 413.134 383.997 412.557 383.642 411.8C383.288 411.044 383.11 410.125 383.11 409.043C383.11 407.949 383.29 407.025 383.649 406.273C384.012 405.516 384.502 404.946 385.117 404.561C385.733 404.172 386.419 403.977 387.176 403.977C387.753 403.977 388.227 404.076 388.599 404.272C388.971 404.465 389.266 404.698 389.484 404.971C389.702 405.241 389.871 405.495 389.991 405.734H390.087V400.823H392.414V413.955H390.132V412.403H389.991C389.871 412.643 389.698 412.897 389.471 413.166C389.245 413.431 388.945 413.658 388.573 413.846C388.202 414.034 387.733 414.128 387.169 414.128ZM387.817 412.224C388.308 412.224 388.727 412.091 389.074 411.826C389.42 411.557 389.683 411.183 389.862 410.704C390.042 410.225 390.132 409.667 390.132 409.03C390.132 408.393 390.042 407.84 389.862 407.37C389.687 406.899 389.426 406.534 389.08 406.273C388.738 406.012 388.317 405.882 387.817 405.882C387.3 405.882 386.868 406.017 386.522 406.286C386.175 406.555 385.915 406.927 385.739 407.402C385.564 407.876 385.476 408.419 385.476 409.03C385.476 409.646 385.564 410.195 385.739 410.678C385.919 411.157 386.182 411.535 386.528 411.813C386.878 412.087 387.308 412.224 387.817 412.224ZM400.353 409.813V404.106H402.674V413.955H400.424V412.204H400.321C400.099 412.756 399.733 413.207 399.225 413.557C398.72 413.908 398.098 414.083 397.359 414.083C396.713 414.083 396.142 413.94 395.646 413.654C395.155 413.363 394.77 412.942 394.492 412.39C394.214 411.835 394.075 411.164 394.075 410.377V404.106H396.397V410.018C396.397 410.642 396.568 411.138 396.91 411.506C397.252 411.873 397.701 412.057 398.256 412.057C398.598 412.057 398.93 411.974 399.25 411.807C399.571 411.64 399.834 411.392 400.039 411.063C400.248 410.73 400.353 410.313 400.353 409.813ZM406.57 400.823V413.955H404.249V400.823H406.57ZM412.505 414.147C411.517 414.147 410.665 413.942 409.946 413.532C409.232 413.117 408.683 412.531 408.298 411.775C407.914 411.014 407.721 410.118 407.721 409.088C407.721 408.075 407.914 407.186 408.298 406.421C408.687 405.651 409.23 405.053 409.927 404.625C410.624 404.193 411.443 403.977 412.383 403.977C412.99 403.977 413.563 404.076 414.102 404.272C414.644 404.465 415.123 404.764 415.538 405.17C415.957 405.576 416.286 406.093 416.525 406.722C416.765 407.346 416.885 408.09 416.885 408.953V409.665H408.811V408.101H414.659C414.655 407.656 414.559 407.261 414.371 406.914C414.183 406.564 413.92 406.288 413.582 406.087C413.249 405.886 412.86 405.786 412.415 405.786C411.941 405.786 411.524 405.901 411.165 406.132C410.806 406.359 410.526 406.658 410.325 407.03C410.128 407.397 410.028 407.801 410.023 408.242V409.607C410.023 410.18 410.128 410.672 410.338 411.082C410.547 411.488 410.84 411.8 411.216 412.018C411.592 412.232 412.033 412.339 412.537 412.339C412.875 412.339 413.18 412.292 413.454 412.198C413.728 412.1 413.965 411.957 414.166 411.768C414.367 411.58 414.518 411.347 414.621 411.069L416.788 411.313C416.652 411.886 416.391 412.386 416.006 412.814C415.626 413.237 415.138 413.566 414.544 413.801C413.95 414.032 413.27 414.147 412.505 414.147Z" fill="#232323"/>
<path d="M349.583 496.628C350.364 496.634 351.133 496.776 351.891 497.056C352.649 497.335 353.333 497.791 353.943 498.424C354.559 499.056 355.049 499.911 355.414 500.989C355.784 502.06 355.972 503.394 355.978 504.99C355.978 506.523 355.824 507.888 355.516 509.085C355.209 510.276 354.767 511.282 354.191 512.103C353.621 512.924 352.929 513.548 352.114 513.976C351.299 514.403 350.381 514.617 349.361 514.617C348.318 514.617 347.391 514.412 346.582 514.001C345.773 513.591 345.114 513.024 344.607 512.3C344.1 511.57 343.783 510.732 343.658 509.786H346.266C346.437 510.539 346.784 511.149 347.309 511.616C347.839 512.078 348.523 512.308 349.361 512.308C350.643 512.308 351.643 511.75 352.362 510.633C353.08 509.51 353.442 507.942 353.447 505.93H353.311C353.014 506.421 352.644 506.842 352.199 507.196C351.76 507.549 351.267 507.823 350.72 508.016C350.173 508.21 349.589 508.307 348.967 508.307C347.958 508.307 347.041 508.059 346.214 507.563C345.388 507.067 344.729 506.386 344.239 505.52C343.749 504.654 343.504 503.665 343.504 502.553C343.504 501.447 343.755 500.444 344.256 499.544C344.764 498.643 345.47 497.931 346.377 497.406C347.289 496.876 348.357 496.617 349.583 496.628ZM349.591 498.851C348.925 498.851 348.323 499.016 347.787 499.347C347.257 499.672 346.838 500.114 346.531 500.672C346.223 501.225 346.069 501.841 346.069 502.519C346.069 503.197 346.217 503.813 346.514 504.366C346.816 504.913 347.226 505.349 347.745 505.674C348.269 505.993 348.868 506.153 349.54 506.153C350.042 506.153 350.509 506.056 350.942 505.862C351.375 505.668 351.755 505.4 352.079 505.058C352.404 504.711 352.658 504.317 352.84 503.878C353.023 503.439 353.114 502.978 353.114 502.493C353.114 501.849 352.96 501.251 352.652 500.698C352.35 500.145 351.934 499.7 351.404 499.364C350.874 499.022 350.27 498.851 349.591 498.851ZM359.702 512.206C359.234 512.206 358.833 512.041 358.496 511.71C358.16 511.374 357.992 510.969 357.992 510.496C357.992 510.029 358.16 509.63 358.496 509.299C358.833 508.963 359.234 508.794 359.702 508.794C360.169 508.794 360.571 508.963 360.907 509.299C361.244 509.63 361.412 510.029 361.412 510.496C361.412 510.809 361.332 511.097 361.172 511.359C361.018 511.616 360.813 511.821 360.557 511.975C360.3 512.129 360.015 512.206 359.702 512.206ZM359.702 503.434C359.234 503.434 358.833 503.268 358.496 502.938C358.16 502.602 357.992 502.197 357.992 501.724C357.992 501.256 358.16 500.857 358.496 500.527C358.833 500.191 359.234 500.022 359.702 500.022C360.169 500.022 360.571 500.191 360.907 500.527C361.244 500.857 361.412 501.256 361.412 501.724C361.412 502.037 361.332 502.325 361.172 502.587C361.018 502.844 360.813 503.049 360.557 503.203C360.3 503.357 360.015 503.434 359.702 503.434ZM369.814 514.668C368.463 514.662 367.309 514.306 366.352 513.599C365.394 512.893 364.662 511.864 364.154 510.513C363.647 509.162 363.393 507.535 363.393 505.631C363.393 503.733 363.647 502.111 364.154 500.766C364.667 499.421 365.403 498.395 366.36 497.688C367.323 496.982 368.475 496.628 369.814 496.628C371.154 496.628 372.302 496.984 373.26 497.697C374.217 498.404 374.95 499.43 375.457 500.775C375.97 502.114 376.227 503.733 376.227 505.631C376.227 507.541 375.973 509.171 375.466 510.522C374.958 511.867 374.226 512.896 373.268 513.608C372.311 514.315 371.159 514.668 369.814 514.668ZM369.814 512.385C371 512.385 371.926 511.807 372.593 510.65C373.266 509.493 373.602 507.82 373.602 505.631C373.602 504.178 373.448 502.949 373.14 501.946C372.838 500.937 372.402 500.173 371.832 499.655C371.268 499.13 370.595 498.868 369.814 498.868C368.634 498.868 367.708 499.45 367.036 500.612C366.363 501.775 366.024 503.448 366.018 505.631C366.018 507.09 366.169 508.324 366.471 509.333C366.779 510.336 367.215 511.097 367.779 511.616C368.344 512.129 369.022 512.385 369.814 512.385ZM384.272 514.668C382.921 514.662 381.767 514.306 380.81 513.599C379.852 512.893 379.12 511.864 378.612 510.513C378.105 509.162 377.851 507.535 377.851 505.631C377.851 503.733 378.105 502.111 378.612 500.766C379.125 499.421 379.861 498.395 380.818 497.688C381.781 496.982 382.933 496.628 384.272 496.628C385.612 496.628 386.76 496.984 387.718 497.697C388.675 498.404 389.408 499.43 389.915 500.775C390.428 502.114 390.685 503.733 390.685 505.631C390.685 507.541 390.431 509.171 389.924 510.522C389.416 511.867 388.684 512.896 387.726 513.608C386.769 514.315 385.617 514.668 384.272 514.668ZM384.272 512.385C385.458 512.385 386.384 511.807 387.051 510.65C387.724 509.493 388.06 507.82 388.06 505.631C388.06 504.178 387.906 502.949 387.598 501.946C387.296 500.937 386.86 500.173 386.29 499.655C385.726 499.13 385.053 498.868 384.272 498.868C383.092 498.868 382.166 499.45 381.494 500.612C380.821 501.775 380.482 503.448 380.476 505.631C380.476 507.09 380.627 508.324 380.929 509.333C381.237 510.336 381.673 511.097 382.237 511.616C382.802 512.129 383.48 512.385 384.272 512.385Z" fill="#232323"/>
<path d="M350.404 558.061V575.571H347.753V560.712H347.651L343.461 563.448V560.917L347.83 558.061H350.404ZM360.7 558.061V575.571H358.05V560.712H357.947L353.758 563.448V560.917L358.127 558.061H360.7ZM366.072 573.4C365.604 573.4 365.202 573.234 364.866 572.904C364.53 572.567 364.362 572.163 364.362 571.69C364.362 571.222 364.53 570.823 364.866 570.493C365.202 570.156 365.604 569.988 366.072 569.988C366.539 569.988 366.941 570.156 367.277 570.493C367.613 570.823 367.782 571.222 367.782 571.69C367.782 572.003 367.702 572.291 367.542 572.553C367.388 572.81 367.183 573.015 366.927 573.169C366.67 573.323 366.385 573.4 366.072 573.4ZM366.072 564.627C365.604 564.627 365.202 564.462 364.866 564.132C364.53 563.795 364.362 563.391 364.362 562.918C364.362 562.45 364.53 562.051 364.866 561.721C365.202 561.384 365.604 561.216 366.072 561.216C366.539 561.216 366.941 561.384 367.277 561.721C367.613 562.051 367.782 562.45 367.782 562.918C367.782 563.231 367.702 563.519 367.542 563.781C367.388 564.038 367.183 564.243 366.927 564.397C366.67 564.551 366.385 564.627 366.072 564.627ZM376.184 575.862C374.833 575.856 373.679 575.5 372.722 574.793C371.764 574.086 371.031 573.058 370.524 571.707C370.017 570.356 369.763 568.729 369.763 566.825C369.763 564.927 370.017 563.305 370.524 561.96C371.037 560.615 371.772 559.589 372.73 558.882C373.693 558.175 374.845 557.822 376.184 557.822C377.524 557.822 378.672 558.178 379.63 558.891C380.587 559.597 381.32 560.623 381.827 561.969C382.34 563.308 382.597 564.927 382.597 566.825C382.597 568.734 382.343 570.364 381.836 571.715C381.328 573.06 380.596 574.089 379.638 574.802C378.681 575.509 377.529 575.862 376.184 575.862ZM376.184 573.579C377.37 573.579 378.296 573.001 378.963 571.844C379.635 570.686 379.972 569.014 379.972 566.825C379.972 565.371 379.818 564.143 379.51 563.14C379.208 562.131 378.772 561.367 378.202 560.848C377.638 560.324 376.965 560.062 376.184 560.062C375.004 560.062 374.078 560.643 373.405 561.806C372.733 562.969 372.394 564.642 372.388 566.825C372.388 568.284 372.539 569.518 372.841 570.527C373.149 571.53 373.585 572.291 374.149 572.81C374.714 573.323 375.392 573.579 376.184 573.579ZM390.642 575.862C389.291 575.856 388.137 575.5 387.179 574.793C386.222 574.086 385.489 573.058 384.982 571.707C384.475 570.356 384.221 568.729 384.221 566.825C384.221 564.927 384.475 563.305 384.982 561.96C385.495 560.615 386.23 559.589 387.188 558.882C388.151 558.175 389.303 557.822 390.642 557.822C391.982 557.822 393.13 558.178 394.088 558.891C395.045 559.597 395.778 560.623 396.285 561.969C396.798 563.308 397.054 564.927 397.054 566.825C397.054 568.734 396.801 570.364 396.294 571.715C395.786 573.06 395.054 574.089 394.096 574.802C393.139 575.509 391.987 575.862 390.642 575.862ZM390.642 573.579C391.828 573.579 392.754 573.001 393.421 571.844C394.093 570.686 394.43 569.014 394.43 566.825C394.43 565.371 394.276 564.143 393.968 563.14C393.666 562.131 393.23 561.367 392.66 560.848C392.096 560.324 391.423 560.062 390.642 560.062C389.462 560.062 388.536 560.643 387.863 561.806C387.191 562.969 386.852 564.642 386.846 566.825C386.846 568.284 386.997 569.518 387.299 570.527C387.607 571.53 388.043 572.291 388.607 572.81C389.172 573.323 389.85 573.579 390.642 573.579Z" fill="#232323"/>
<rect x="458.014" y="511.32" width="147.467" height="12.0381" rx="6.01905" fill="#E2E2E2"/>
<rect x="458.014" y="489.251" width="77.2444" height="12.0381" rx="6.01905" fill="#E2E2E2"/>
<rect x="457.583" y="550.444" width="77.2444" height="12.0381" rx="6.01905" fill="#E2E2E2"/>
<rect x="429.352" y="483.231" width="5.01587" height="45.1429" fill="#0984E3"/>
<rect x="428.922" y="544.425" width="5.01587" height="45.1429" fill="#F39C12"/>
<rect x="529.168" y="396.578" width="100.317" height="23.073" rx="5.51746" stroke="#232323" stroke-opacity="0.16" stroke-width="1.00317"/>
<rect x="540.705" y="402.096" width="77.2444" height="12.0381" rx="6.01905" fill="#E2E2E2"/>
<rect x="341.646" y="445.11" width="77.2444" height="12.0381" rx="6.01905" fill="#E2E2E2"/>
<rect x="398" y="32" width="342" height="316" rx="12" fill="white"/>
<path d="M430.406 64.5078C430.346 63.9496 430.094 63.5149 429.651 63.2038C429.212 62.8928 428.641 62.7372 427.938 62.7372C427.444 62.7372 427.02 62.8118 426.666 62.9609C426.313 63.1101 426.042 63.3125 425.854 63.5682C425.667 63.8239 425.571 64.1158 425.567 64.4439C425.567 64.7166 425.629 64.9531 425.752 65.1534C425.88 65.3537 426.053 65.5241 426.27 65.6648C426.487 65.8011 426.728 65.9162 426.992 66.0099C427.256 66.1037 427.523 66.1825 427.791 66.2464L429.018 66.5533C429.513 66.6683 429.988 66.8239 430.444 67.0199C430.904 67.2159 431.315 67.4631 431.678 67.7614C432.044 68.0597 432.334 68.4197 432.547 68.8416C432.76 69.2635 432.866 69.7578 432.866 70.3246C432.866 71.0916 432.67 71.767 432.278 72.3509C431.886 72.9304 431.32 73.3842 430.578 73.7124C429.841 74.0362 428.948 74.1982 427.9 74.1982C426.881 74.1982 425.997 74.0405 425.247 73.7251C424.501 73.4098 423.918 72.9496 423.496 72.3445C423.078 71.7393 422.852 71.0021 422.818 70.1328H425.151C425.185 70.5888 425.326 70.968 425.573 71.2706C425.82 71.5732 426.142 71.799 426.538 71.9482C426.939 72.0973 427.386 72.1719 427.881 72.1719C428.396 72.1719 428.848 72.0952 429.236 71.9418C429.628 71.7841 429.935 71.5668 430.156 71.2898C430.378 71.0085 430.491 70.6804 430.495 70.3054C430.491 69.9645 430.391 69.6832 430.195 69.4616C429.999 69.2358 429.724 69.0483 429.37 68.8991C429.021 68.7457 428.612 68.6094 428.143 68.4901L426.653 68.1065C425.575 67.8295 424.723 67.4098 424.097 66.8473C423.474 66.2805 423.163 65.5284 423.163 64.5909C423.163 63.8196 423.372 63.1442 423.79 62.5646C424.212 61.9851 424.785 61.5355 425.509 61.2159C426.234 60.892 427.054 60.7301 427.97 60.7301C428.899 60.7301 429.713 60.892 430.412 61.2159C431.115 61.5355 431.667 61.9808 432.067 62.5518C432.468 63.1186 432.675 63.7706 432.688 64.5078H430.406ZM438.971 64.1818V65.9716H433.327V64.1818H438.971ZM434.72 61.8295H437.034V71.0469C437.034 71.358 437.081 71.5966 437.175 71.7628C437.273 71.9247 437.401 72.0355 437.558 72.0952C437.716 72.1548 437.891 72.1847 438.083 72.1847C438.227 72.1847 438.36 72.174 438.479 72.1527C438.602 72.1314 438.696 72.1122 438.76 72.0952L439.15 73.9041C439.026 73.9467 438.85 73.9936 438.62 74.0447C438.394 74.0959 438.117 74.1257 437.789 74.1342C437.209 74.1513 436.687 74.0639 436.222 73.8722C435.758 73.6761 435.389 73.3736 435.117 72.9645C434.848 72.5554 434.716 72.044 434.72 71.4304V61.8295ZM442.922 74.1982C442.299 74.1982 441.739 74.0874 441.24 73.8658C440.746 73.6399 440.354 73.3075 440.064 72.8686C439.779 72.4297 439.636 71.8885 439.636 71.245C439.636 70.6911 439.738 70.233 439.943 69.8707C440.147 69.5085 440.427 69.2188 440.78 69.0014C441.134 68.7841 441.532 68.62 441.976 68.5092C442.423 68.3942 442.885 68.3111 443.363 68.2599C443.938 68.2003 444.405 68.147 444.762 68.1001C445.12 68.049 445.38 67.9723 445.542 67.87C445.708 67.7635 445.792 67.5994 445.792 67.3778V67.3395C445.792 66.858 445.649 66.4851 445.363 66.2209C445.078 65.9567 444.667 65.8246 444.13 65.8246C443.563 65.8246 443.113 65.9482 442.781 66.1953C442.453 66.4425 442.231 66.7344 442.116 67.071L439.956 66.7642C440.126 66.1676 440.407 65.669 440.799 65.2685C441.191 64.8636 441.671 64.5611 442.238 64.3608C442.804 64.1562 443.431 64.054 444.117 64.054C444.59 64.054 445.061 64.1094 445.53 64.2202C445.998 64.331 446.427 64.5142 446.814 64.7699C447.202 65.0213 447.513 65.3643 447.748 65.799C447.986 66.2337 448.105 66.777 448.105 67.429V74H445.881V72.6513H445.804C445.664 72.924 445.466 73.1797 445.21 73.4183C444.958 73.6527 444.641 73.8423 444.257 73.9872C443.878 74.1278 443.433 74.1982 442.922 74.1982ZM443.522 72.4979C443.987 72.4979 444.39 72.4062 444.73 72.223C445.071 72.0355 445.333 71.7884 445.517 71.4815C445.704 71.1747 445.798 70.8402 445.798 70.478V69.321C445.726 69.3807 445.602 69.4361 445.427 69.4872C445.257 69.5384 445.065 69.5831 444.852 69.6214C444.639 69.6598 444.428 69.6939 444.219 69.7237C444.01 69.7536 443.829 69.7791 443.676 69.8004C443.331 69.8473 443.022 69.924 442.749 70.0305C442.476 70.1371 442.261 70.2862 442.103 70.478C441.946 70.6655 441.867 70.9084 441.867 71.2067C441.867 71.6328 442.022 71.9545 442.333 72.1719C442.645 72.3892 443.041 72.4979 443.522 72.4979ZM454.525 64.1818V65.9716H448.881V64.1818H454.525ZM450.274 61.8295H452.588V71.0469C452.588 71.358 452.635 71.5966 452.729 71.7628C452.827 71.9247 452.955 72.0355 453.112 72.0952C453.27 72.1548 453.445 72.1847 453.636 72.1847C453.781 72.1847 453.913 72.174 454.033 72.1527C454.156 72.1314 454.25 72.1122 454.314 72.0952L454.704 73.9041C454.58 73.9467 454.403 73.9936 454.173 74.0447C453.947 74.0959 453.67 74.1257 453.342 74.1342C452.763 74.1513 452.241 74.0639 451.776 73.8722C451.312 73.6761 450.943 73.3736 450.67 72.9645C450.402 72.5554 450.27 72.044 450.274 71.4304V61.8295ZM455.65 74V64.1818H457.964V74H455.65ZM456.813 62.7884C456.447 62.7884 456.132 62.6669 455.867 62.424C455.603 62.1768 455.471 61.8807 455.471 61.5355C455.471 61.1861 455.603 60.8899 455.867 60.647C456.132 60.3999 456.447 60.2763 456.813 60.2763C457.184 60.2763 457.5 60.3999 457.759 60.647C458.024 60.8899 458.156 61.1861 458.156 61.5355C458.156 61.8807 458.024 62.1768 457.759 62.424C457.5 62.6669 457.184 62.7884 456.813 62.7884ZM467.293 66.777L465.184 67.0071C465.124 66.794 465.02 66.5938 464.871 66.4062C464.726 66.2188 464.53 66.0675 464.283 65.9524C464.036 65.8374 463.733 65.7798 463.375 65.7798C462.894 65.7798 462.489 65.8842 462.161 66.093C461.837 66.3018 461.677 66.5724 461.681 66.9048C461.677 67.1903 461.781 67.4226 461.994 67.6016C462.212 67.7805 462.57 67.9276 463.068 68.0426L464.743 68.4006C465.672 68.6009 466.362 68.9183 466.814 69.353C467.27 69.7876 467.5 70.3565 467.504 71.0597C467.5 71.6776 467.319 72.223 466.961 72.696C466.607 73.1648 466.115 73.5312 465.484 73.7955C464.854 74.0597 464.129 74.1918 463.311 74.1918C462.109 74.1918 461.142 73.9403 460.409 73.4375C459.676 72.9304 459.239 72.2251 459.099 71.3217L461.355 71.1044C461.457 71.5476 461.675 71.8821 462.007 72.108C462.34 72.3338 462.772 72.4467 463.305 72.4467C463.854 72.4467 464.296 72.3338 464.628 72.108C464.965 71.8821 465.133 71.603 465.133 71.2706C465.133 70.9893 465.024 70.7571 464.807 70.5739C464.594 70.3906 464.261 70.25 463.81 70.152L462.135 69.8004C461.193 69.6044 460.497 69.2741 460.045 68.8097C459.593 68.3409 459.369 67.7486 459.374 67.0327C459.369 66.4276 459.533 65.9034 459.866 65.4602C460.202 65.0128 460.669 64.6676 461.266 64.4247C461.867 64.1776 462.559 64.054 463.343 64.054C464.494 64.054 465.399 64.299 466.06 64.7891C466.725 65.2791 467.136 65.9418 467.293 66.777ZM473.505 64.1818V65.9716H467.861V64.1818H473.505ZM469.254 61.8295H471.568V71.0469C471.568 71.358 471.615 71.5966 471.709 71.7628C471.807 71.9247 471.935 72.0355 472.092 72.0952C472.25 72.1548 472.425 72.1847 472.617 72.1847C472.761 72.1847 472.894 72.174 473.013 72.1527C473.136 72.1314 473.23 72.1122 473.294 72.0952L473.684 73.9041C473.56 73.9467 473.384 73.9936 473.153 74.0447C472.928 74.0959 472.651 74.1257 472.323 74.1342C471.743 74.1513 471.221 74.0639 470.756 73.8722C470.292 73.6761 469.923 73.3736 469.651 72.9645C469.382 72.5554 469.25 72.044 469.254 71.4304V61.8295ZM474.63 74V64.1818H476.944V74H474.63ZM475.794 62.7884C475.427 62.7884 475.112 62.6669 474.848 62.424C474.583 62.1768 474.451 61.8807 474.451 61.5355C474.451 61.1861 474.583 60.8899 474.848 60.647C475.112 60.3999 475.427 60.2763 475.794 60.2763C476.164 60.2763 476.48 60.3999 476.74 60.647C477.004 60.8899 477.136 61.1861 477.136 61.5355C477.136 61.8807 477.004 62.1768 476.74 62.424C476.48 62.6669 476.164 62.7884 475.794 62.7884ZM482.796 74.1918C481.816 74.1918 480.975 73.9766 480.271 73.5462C479.573 73.1158 479.033 72.5213 478.654 71.7628C478.279 71 478.092 70.1222 478.092 69.1293C478.092 68.1321 478.283 67.2521 478.667 66.4893C479.051 65.7223 479.592 65.1257 480.291 64.6996C480.994 64.2692 481.825 64.054 482.783 64.054C483.58 64.054 484.286 64.201 484.899 64.495C485.517 64.7848 486.009 65.196 486.376 65.7287C486.742 66.2571 486.951 66.875 487.002 67.5824H484.791C484.701 67.1094 484.488 66.7152 484.151 66.3999C483.819 66.0803 483.374 65.9205 482.815 65.9205C482.342 65.9205 481.927 66.0483 481.569 66.304C481.211 66.5554 480.932 66.9176 480.732 67.3906C480.536 67.8636 480.438 68.4304 480.438 69.0909C480.438 69.7599 480.536 70.3352 480.732 70.8168C480.928 71.294 481.203 71.6626 481.556 71.9226C481.914 72.1783 482.334 72.3061 482.815 72.3061C483.156 72.3061 483.461 72.2422 483.73 72.1143C484.002 71.9822 484.23 71.7926 484.413 71.5455C484.597 71.2983 484.722 70.9979 484.791 70.6442H487.002C486.947 71.3388 486.742 71.9545 486.389 72.4915C486.035 73.0241 485.553 73.4418 484.944 73.7443C484.335 74.0426 483.619 74.1918 482.796 74.1918ZM495.852 66.777L493.743 67.0071C493.683 66.794 493.579 66.5938 493.43 66.4062C493.285 66.2188 493.089 66.0675 492.842 65.9524C492.594 65.8374 492.292 65.7798 491.934 65.7798C491.452 65.7798 491.048 65.8842 490.719 66.093C490.396 66.3018 490.236 66.5724 490.24 66.9048C490.236 67.1903 490.34 67.4226 490.553 67.6016C490.771 67.7805 491.129 67.9276 491.627 68.0426L493.302 68.4006C494.231 68.6009 494.921 68.9183 495.373 69.353C495.829 69.7876 496.059 70.3565 496.063 71.0597C496.059 71.6776 495.878 72.223 495.52 72.696C495.166 73.1648 494.674 73.5312 494.043 73.7955C493.413 74.0597 492.688 74.1918 491.87 74.1918C490.668 74.1918 489.701 73.9403 488.968 73.4375C488.235 72.9304 487.798 72.2251 487.658 71.3217L489.914 71.1044C490.016 71.5476 490.234 71.8821 490.566 72.108C490.898 72.3338 491.331 72.4467 491.864 72.4467C492.413 72.4467 492.854 72.3338 493.187 72.108C493.523 71.8821 493.692 71.603 493.692 71.2706C493.692 70.9893 493.583 70.7571 493.366 70.5739C493.153 70.3906 492.82 70.25 492.369 70.152L490.694 69.8004C489.752 69.6044 489.055 69.2741 488.604 68.8097C488.152 68.3409 487.928 67.7486 487.932 67.0327C487.928 66.4276 488.092 65.9034 488.425 65.4602C488.761 65.0128 489.228 64.6676 489.825 64.4247C490.425 64.1776 491.118 64.054 491.902 64.054C493.053 64.054 493.958 64.299 494.619 64.7891C495.283 65.2791 495.695 65.9418 495.852 66.777Z" fill="#232323"/>
<g clip-path="url(#clip1_353_1766)">
<rect x="422" y="148" width="98.7805" height="100" rx="6" fill="#757575"/>
<rect x="380" y="148" width="198" height="132" fill="#D9D9D9"/>
</g>
<path d="M534.072 187V173.909H536.443V179.451H542.509V173.909H544.887V187H542.509V181.439H536.443V187H534.072ZM546.554 187V177.182H548.868V187H546.554ZM547.717 175.788C547.351 175.788 547.036 175.667 546.771 175.424C546.507 175.177 546.375 174.881 546.375 174.536C546.375 174.186 546.507 173.89 546.771 173.647C547.036 173.4 547.351 173.276 547.717 173.276C548.088 173.276 548.403 173.4 548.663 173.647C548.928 173.89 549.06 174.186 549.06 174.536C549.06 174.881 548.928 175.177 548.663 175.424C548.403 175.667 548.088 175.788 547.717 175.788ZM550.437 187V177.182H552.681V178.818H552.783C552.962 178.251 553.269 177.815 553.704 177.508C554.143 177.197 554.643 177.041 555.206 177.041C555.334 177.041 555.476 177.048 555.634 177.06C555.796 177.069 555.93 177.084 556.037 177.105V179.234C555.939 179.2 555.783 179.17 555.57 179.144C555.361 179.114 555.159 179.099 554.963 179.099C554.541 179.099 554.162 179.191 553.825 179.374C553.493 179.553 553.231 179.803 553.039 180.122C552.847 180.442 552.751 180.81 552.751 181.228V187H550.437ZM559.414 187.198C558.791 187.198 558.231 187.087 557.732 186.866C557.238 186.64 556.846 186.308 556.556 185.869C556.271 185.43 556.128 184.888 556.128 184.245C556.128 183.691 556.23 183.233 556.435 182.871C556.639 182.509 556.919 182.219 557.272 182.001C557.626 181.784 558.024 181.62 558.468 181.509C558.915 181.394 559.377 181.311 559.855 181.26C560.43 181.2 560.897 181.147 561.254 181.1C561.612 181.049 561.872 180.972 562.034 180.87C562.2 180.763 562.284 180.599 562.284 180.378V180.339C562.284 179.858 562.141 179.485 561.855 179.221C561.57 178.957 561.159 178.825 560.622 178.825C560.055 178.825 559.605 178.948 559.273 179.195C558.945 179.442 558.723 179.734 558.608 180.071L556.448 179.764C556.618 179.168 556.899 178.669 557.291 178.268C557.683 177.864 558.163 177.561 558.73 177.361C559.296 177.156 559.923 177.054 560.609 177.054C561.082 177.054 561.553 177.109 562.022 177.22C562.49 177.331 562.919 177.514 563.306 177.77C563.694 178.021 564.005 178.364 564.24 178.799C564.478 179.234 564.597 179.777 564.597 180.429V187H562.373V185.651H562.296C562.156 185.924 561.958 186.18 561.702 186.418C561.45 186.653 561.133 186.842 560.749 186.987C560.37 187.128 559.925 187.198 559.414 187.198ZM560.014 185.498C560.479 185.498 560.882 185.406 561.222 185.223C561.563 185.036 561.825 184.788 562.009 184.482C562.196 184.175 562.29 183.84 562.29 183.478V182.321C562.218 182.381 562.094 182.436 561.919 182.487C561.749 182.538 561.557 182.583 561.344 182.621C561.131 182.66 560.92 182.694 560.711 182.724C560.502 182.754 560.321 182.779 560.168 182.8C559.823 182.847 559.514 182.924 559.241 183.031C558.968 183.137 558.753 183.286 558.595 183.478C558.438 183.665 558.359 183.908 558.359 184.207C558.359 184.633 558.514 184.955 558.825 185.172C559.137 185.389 559.533 185.498 560.014 185.498ZM565.986 187V185.53L571.049 179.183V179.099H566.153V177.182H573.881V178.761L569.061 184.999V185.082H574.047V187H565.986ZM581.669 182.871V177.182H583.983V187H581.74V185.255H581.637C581.416 185.805 581.052 186.254 580.544 186.604C580.042 186.953 579.422 187.128 578.684 187.128C578.041 187.128 577.472 186.985 576.978 186.7C576.488 186.41 576.104 185.99 575.827 185.44C575.55 184.886 575.412 184.217 575.412 183.433V177.182H577.726V183.075C577.726 183.697 577.896 184.192 578.237 184.558C578.578 184.925 579.025 185.108 579.579 185.108C579.92 185.108 580.25 185.025 580.57 184.859C580.89 184.692 581.152 184.445 581.356 184.117C581.565 183.785 581.669 183.369 581.669 182.871ZM587.662 183.919L587.656 181.126H588.027L591.555 177.182H594.259L589.919 182.014H589.439L587.662 183.919ZM585.553 187V173.909H587.867V187H585.553ZM591.715 187L588.519 182.532L590.078 180.902L594.482 187H591.715ZM594.991 187V177.182H597.305V187H594.991ZM596.154 175.788C595.788 175.788 595.472 175.667 595.208 175.424C594.944 175.177 594.812 174.881 594.812 174.536C594.812 174.186 594.944 173.89 595.208 173.647C595.472 173.4 595.788 173.276 596.154 173.276C596.525 173.276 596.84 173.4 597.1 173.647C597.364 173.89 597.497 174.186 597.497 174.536C597.497 174.881 597.364 175.177 597.1 175.424C596.84 175.667 596.525 175.788 596.154 175.788ZM602.631 187V173.909H605.003V179.924H605.163L610.27 173.909H613.165L608.103 179.783L613.21 187H610.359L606.454 181.388L605.003 183.101V187H602.631ZM616.726 187.198C616.104 187.198 615.543 187.087 615.045 186.866C614.551 186.64 614.159 186.308 613.869 185.869C613.583 185.43 613.44 184.888 613.44 184.245C613.44 183.691 613.543 183.233 613.747 182.871C613.952 182.509 614.231 182.219 614.585 182.001C614.938 181.784 615.337 181.62 615.78 181.509C616.227 181.394 616.69 181.311 617.167 181.26C617.742 181.2 618.209 181.147 618.567 181.1C618.925 181.049 619.185 180.972 619.347 180.87C619.513 180.763 619.596 180.599 619.596 180.378V180.339C619.596 179.858 619.453 179.485 619.168 179.221C618.882 178.957 618.471 178.825 617.934 178.825C617.367 178.825 616.918 178.948 616.585 179.195C616.257 179.442 616.036 179.734 615.921 180.071L613.76 179.764C613.931 179.168 614.212 178.669 614.604 178.268C614.996 177.864 615.475 177.561 616.042 177.361C616.609 177.156 617.235 177.054 617.921 177.054C618.394 177.054 618.865 177.109 619.334 177.22C619.803 177.331 620.231 177.514 620.619 177.77C621.007 178.021 621.318 178.364 621.552 178.799C621.791 179.234 621.91 179.777 621.91 180.429V187H619.685V185.651H619.609C619.468 185.924 619.27 186.18 619.014 186.418C618.763 186.653 618.445 186.842 618.062 186.987C617.683 187.128 617.237 187.198 616.726 187.198ZM617.327 185.498C617.791 185.498 618.194 185.406 618.535 185.223C618.876 185.036 619.138 184.788 619.321 184.482C619.509 184.175 619.602 183.84 619.602 183.478V182.321C619.53 182.381 619.406 182.436 619.232 182.487C619.061 182.538 618.869 182.583 618.656 182.621C618.443 182.66 618.232 182.694 618.024 182.724C617.815 182.754 617.634 182.779 617.48 182.8C617.135 182.847 616.826 182.924 616.553 183.031C616.281 183.137 616.065 183.286 615.908 183.478C615.75 183.665 615.671 183.908 615.671 184.207C615.671 184.633 615.827 184.955 616.138 185.172C616.449 185.389 616.845 185.498 617.327 185.498ZM625.741 181.247V187H623.427V177.182H625.638V178.85H625.753C625.979 178.3 626.339 177.864 626.834 177.54C627.332 177.216 627.948 177.054 628.681 177.054C629.358 177.054 629.949 177.199 630.451 177.489C630.959 177.778 631.351 178.198 631.628 178.748C631.909 179.298 632.047 179.964 632.043 180.749V187H629.729V181.107C629.729 180.45 629.559 179.937 629.218 179.566C628.881 179.195 628.415 179.01 627.818 179.01C627.413 179.01 627.053 179.099 626.738 179.278C626.427 179.453 626.182 179.707 626.003 180.039C625.828 180.371 625.741 180.774 625.741 181.247ZM636.411 187.198C635.788 187.198 635.228 187.087 634.73 186.866C634.235 186.64 633.843 186.308 633.553 185.869C633.268 185.43 633.125 184.888 633.125 184.245C633.125 183.691 633.227 183.233 633.432 182.871C633.637 182.509 633.916 182.219 634.269 182.001C634.623 181.784 635.021 181.62 635.465 181.509C635.912 181.394 636.374 181.311 636.852 181.26C637.427 181.2 637.894 181.147 638.252 181.1C638.61 181.049 638.869 180.972 639.031 180.87C639.198 180.763 639.281 180.599 639.281 180.378V180.339C639.281 179.858 639.138 179.485 638.852 179.221C638.567 178.957 638.156 178.825 637.619 178.825C637.052 178.825 636.602 178.948 636.27 179.195C635.942 179.442 635.72 179.734 635.605 180.071L633.445 179.764C633.615 179.168 633.896 178.669 634.288 178.268C634.681 177.864 635.16 177.561 635.727 177.361C636.293 177.156 636.92 177.054 637.606 177.054C638.079 177.054 638.55 177.109 639.019 177.22C639.487 177.331 639.916 177.514 640.303 177.77C640.691 178.021 641.002 178.364 641.237 178.799C641.475 179.234 641.595 179.777 641.595 180.429V187H639.37V185.651H639.293C639.153 185.924 638.955 186.18 638.699 186.418C638.448 186.653 638.13 186.842 637.747 186.987C637.367 187.128 636.922 187.198 636.411 187.198ZM637.012 185.498C637.476 185.498 637.879 185.406 638.22 185.223C638.561 185.036 638.823 184.788 639.006 184.482C639.193 184.175 639.287 183.84 639.287 183.478V182.321C639.215 182.381 639.091 182.436 638.916 182.487C638.746 182.538 638.554 182.583 638.341 182.621C638.128 182.66 637.917 182.694 637.708 182.724C637.499 182.754 637.318 182.779 637.165 182.8C636.82 182.847 636.511 182.924 636.238 183.031C635.965 183.137 635.75 183.286 635.592 183.478C635.435 183.665 635.356 183.908 635.356 184.207C635.356 184.633 635.512 184.955 635.823 185.172C636.134 185.389 636.53 185.498 637.012 185.498Z" fill="#232323"/>
<rect x="422" y="109.696" width="104.877" height="8.5614" rx="4.2807" fill="#E2E2E2"/>
<rect x="422" y="94" width="221" height="9" rx="4.5" fill="#E2E2E2"/>
<rect x="533" y="216" width="104.877" height="8.5614" rx="4.2807" fill="#E2E2E2"/>
<rect x="533" y="199" width="135" height="9" rx="4.5" fill="#E2E2E2"/>
<rect x="523" y="270" width="72" height="9" rx="4.5" fill="#D7D7D7"/>
<rect x="422" y="270" width="72" height="9" rx="4.5" fill="#D7D7D7"/>
<rect x="523" y="292" width="51" height="9" rx="4.5" fill="#D7D7D7"/>
<rect x="579" y="292" width="9" height="9" rx="4.5" fill="#D7D7D7"/>
<rect x="422" y="292" width="51" height="9" rx="4.5" fill="#D7D7D7"/>
<rect x="478" y="292" width="9" height="9" rx="4.5" fill="#D7D7D7"/>
<rect x="523" y="315" width="72" height="9" rx="4.5" fill="#D7D7D7"/>
<rect x="422" y="315" width="72" height="9" rx="4.5" fill="#D7D7D7"/>
<rect x="-48" y="372" width="342" height="142" rx="12" fill="white"/>
<path d="M-15.3374 400.909V414H-17.7088V400.909H-15.3374ZM-11.3677 408.247V414H-13.6816V404.182H-11.47V405.85H-11.3549C-11.1291 405.3 -10.769 404.864 -10.2747 404.54C-9.77609 404.216 -9.16032 404.054 -8.42736 404.054C-7.74981 404.054 -7.15961 404.199 -6.65677 404.489C-6.14967 404.778 -5.75762 405.198 -5.48063 405.748C-5.19938 406.298 -5.06089 406.964 -5.06515 407.749V414H-7.37907V408.107C-7.37907 407.45 -7.54952 406.937 -7.89043 406.566C-8.22708 406.195 -8.6937 406.01 -9.29029 406.01C-9.69512 406.01 -10.0552 406.099 -10.3705 406.278C-10.6816 406.453 -10.9267 406.707 -11.1056 407.039C-11.2803 407.371 -11.3677 407.774 -11.3677 408.247ZM1.37982 404.182V405.972H-4.26435V404.182H1.37982ZM-2.87089 401.83H-0.556967V411.047C-0.556967 411.358 -0.510092 411.597 -0.416342 411.763C-0.318331 411.925 -0.19049 412.036 -0.0328194 412.095C0.124851 412.155 0.299567 412.185 0.491328 412.185C0.636215 412.185 0.768317 412.174 0.887635 412.153C1.01121 412.131 1.10496 412.112 1.16889 412.095L1.5588 413.904C1.43522 413.947 1.25837 413.994 1.02826 414.045C0.802408 414.096 0.525419 414.126 0.197294 414.134C-0.382251 414.151 -0.904268 414.064 -1.36876 413.872C-1.83325 413.676 -2.20185 413.374 -2.47458 412.964C-2.74305 412.555 -2.87515 412.044 -2.87089 411.43V401.83ZM6.74614 414.192C5.76176 414.192 4.91162 413.987 4.19571 413.578C3.48406 413.165 2.93648 412.581 2.55295 411.827C2.16943 411.068 1.97767 410.175 1.97767 409.148C1.97767 408.138 2.16943 407.252 2.55295 406.489C2.94074 405.722 3.48193 405.126 4.17653 404.7C4.87114 404.269 5.68719 404.054 6.62469 404.054C7.2298 404.054 7.80082 404.152 8.33776 404.348C8.87895 404.54 9.35622 404.838 9.76957 405.243C10.1872 405.648 10.5153 406.163 10.7539 406.79C10.9926 407.412 11.1119 408.153 11.1119 409.014V409.724H3.06432V408.164H8.89386C8.8896 407.721 8.79372 407.327 8.60622 406.982C8.41872 406.632 8.15665 406.357 7.82 406.157C7.48761 405.957 7.09983 405.857 6.65665 405.857C6.18364 405.857 5.76815 405.972 5.4102 406.202C5.05224 406.428 4.77312 406.726 4.57284 407.097C4.37682 407.463 4.27668 407.866 4.27241 408.305V409.666C4.27241 410.237 4.37682 410.727 4.58562 411.136C4.79443 411.541 5.08634 411.852 5.46134 412.07C5.83633 412.283 6.27526 412.389 6.7781 412.389C7.11474 412.389 7.41943 412.342 7.69216 412.249C7.96489 412.151 8.20139 412.008 8.40168 411.82C8.60196 411.633 8.75324 411.401 8.85551 411.124L11.016 411.366C10.8797 411.937 10.6197 412.436 10.2362 412.862C9.85693 413.284 9.37114 413.612 8.77881 413.847C8.18648 414.077 7.50892 414.192 6.74614 414.192ZM12.2595 414V404.182H14.5031V405.818H14.6053C14.7843 405.251 15.0911 404.815 15.5258 404.508C15.9647 404.197 16.4654 404.041 17.0279 404.041C17.1558 404.041 17.2985 404.048 17.4562 404.06C17.6181 404.069 17.7524 404.084 17.8589 404.105V406.234C17.7609 406.2 17.6053 406.17 17.3923 406.144C17.1835 406.114 16.9811 406.099 16.785 406.099C16.3632 406.099 15.9839 406.191 15.6473 406.374C15.3149 406.553 15.0528 406.803 14.861 407.122C14.6693 407.442 14.5734 407.81 14.5734 408.228V414H12.2595ZM20.9001 408.247V414H18.5862V404.182H20.7978V405.85H20.9129C21.1387 405.3 21.4988 404.864 21.9931 404.54C22.4917 404.216 23.1075 404.054 23.8404 404.054C24.518 404.054 25.1082 404.199 25.611 404.489C26.1181 404.778 26.5102 405.198 26.7872 405.748C27.0684 406.298 27.2069 406.964 27.2027 407.749V414H24.8887V408.107C24.8887 407.45 24.7183 406.937 24.3774 406.566C24.0407 406.195 23.5741 406.01 22.9775 406.01C22.5727 406.01 22.2126 406.099 21.8973 406.278C21.5862 406.453 21.3412 406.707 21.1622 407.039C20.9875 407.371 20.9001 407.774 20.9001 408.247ZM31.5702 414.198C30.9481 414.198 30.3877 414.087 29.8891 413.866C29.3948 413.64 29.0027 413.308 28.713 412.869C28.4275 412.43 28.2847 411.888 28.2847 411.245C28.2847 410.691 28.387 410.233 28.5915 409.871C28.7961 409.509 29.0752 409.219 29.4289 409.001C29.7826 408.784 30.181 408.62 30.6242 408.509C31.0716 408.394 31.534 408.311 32.0113 408.26C32.5866 408.2 33.0532 408.147 33.4111 408.1C33.7691 408.049 34.029 407.972 34.191 407.87C34.3572 407.763 34.4402 407.599 34.4402 407.378V407.339C34.4402 406.858 34.2975 406.485 34.012 406.221C33.7265 405.957 33.3152 405.825 32.7783 405.825C32.2116 405.825 31.762 405.948 31.4296 406.195C31.1015 406.442 30.8799 406.734 30.7648 407.071L28.6043 406.764C28.7748 406.168 29.056 405.669 29.4481 405.268C29.8401 404.864 30.3195 404.561 30.8863 404.361C31.453 404.156 32.0795 404.054 32.7655 404.054C33.2385 404.054 33.7094 404.109 34.1782 404.22C34.6469 404.331 35.0752 404.514 35.463 404.77C35.8508 405.021 36.1618 405.364 36.3962 405.799C36.6349 406.234 36.7542 406.777 36.7542 407.429V414H34.5297V412.651H34.453C34.3124 412.924 34.1143 413.18 33.8586 413.418C33.6072 413.653 33.2897 413.842 32.9062 413.987C32.5269 414.128 32.0816 414.198 31.5702 414.198ZM32.1711 412.498C32.6356 412.498 33.0383 412.406 33.3792 412.223C33.7201 412.036 33.9822 411.788 34.1654 411.482C34.3529 411.175 34.4466 410.84 34.4466 410.478V409.321C34.3742 409.381 34.2506 409.436 34.0759 409.487C33.9054 409.538 33.7137 409.583 33.5006 409.621C33.2875 409.66 33.0766 409.694 32.8678 409.724C32.659 409.754 32.4779 409.779 32.3245 409.8C31.9793 409.847 31.6704 409.924 31.3976 410.031C31.1249 410.137 30.9097 410.286 30.752 410.478C30.5944 410.665 30.5155 410.908 30.5155 411.207C30.5155 411.633 30.6711 411.955 30.9822 412.172C31.2932 412.389 31.6895 412.498 32.1711 412.498ZM40.5848 400.909V414H38.2709V400.909H40.5848ZM47.5925 414H45.0612L49.6699 400.909H52.5974L57.2125 414H54.6812L51.1848 403.594H51.0825L47.5925 414ZM47.6756 408.867H54.579V410.772H47.6756V408.867ZM62.3119 404.182V405.972H56.6678V404.182H62.3119ZM58.0612 401.83H60.3751V411.047C60.3751 411.358 60.422 411.597 60.5158 411.763C60.6138 411.925 60.7416 412.036 60.8993 412.095C61.057 412.155 61.2317 412.185 61.4234 412.185C61.5683 412.185 61.7004 412.174 61.8197 412.153C61.9433 412.131 62.0371 412.112 62.101 412.095L62.4909 413.904C62.3673 413.947 62.1905 413.994 61.9604 414.045C61.7345 414.096 61.4575 414.126 61.1294 414.134C60.5499 414.151 60.0278 414.064 59.5634 413.872C59.0989 413.676 58.7303 413.374 58.4575 412.964C58.1891 412.555 58.057 412.044 58.0612 411.43V401.83ZM68.3398 404.182V405.972H62.6956V404.182H68.3398ZM64.0891 401.83H66.403V411.047C66.403 411.358 66.4499 411.597 66.5437 411.763C66.6417 411.925 66.7695 412.036 66.9272 412.095C67.0848 412.155 67.2596 412.185 67.4513 412.185C67.5962 412.185 67.7283 412.174 67.8476 412.153C67.9712 412.131 68.065 412.112 68.1289 412.095L68.5188 413.904C68.3952 413.947 68.2184 413.994 67.9883 414.045C67.7624 414.096 67.4854 414.126 67.1573 414.134C66.5777 414.151 66.0557 414.064 65.5912 413.872C65.1268 413.676 64.7581 413.374 64.4854 412.964C64.2169 412.555 64.0848 412.044 64.0891 411.43V401.83ZM73.7061 414.192C72.7218 414.192 71.8716 413.987 71.1557 413.578C70.4441 413.165 69.8965 412.581 69.513 411.827C69.1294 411.068 68.9377 410.175 68.9377 409.148C68.9377 408.138 69.1294 407.252 69.513 406.489C69.9007 405.722 70.4419 405.126 71.1365 404.7C71.8311 404.269 72.6472 404.054 73.5847 404.054C74.1898 404.054 74.7608 404.152 75.2978 404.348C75.8389 404.54 76.3162 404.838 76.7296 405.243C77.1472 405.648 77.4753 406.163 77.7139 406.79C77.9526 407.412 78.0719 408.153 78.0719 409.014V409.724H70.0243V408.164H75.8539C75.8496 407.721 75.7537 407.327 75.5662 406.982C75.3787 406.632 75.1166 406.357 74.78 406.157C74.4476 405.957 74.0598 405.857 73.6166 405.857C73.1436 405.857 72.7282 405.972 72.3702 406.202C72.0122 406.428 71.7331 406.726 71.5328 407.097C71.3368 407.463 71.2367 407.866 71.2324 408.305V409.666C71.2324 410.237 71.3368 410.727 71.5456 411.136C71.7544 411.541 72.0463 411.852 72.4213 412.07C72.7963 412.283 73.2353 412.389 73.7381 412.389C74.0747 412.389 74.3794 412.342 74.6522 412.249C74.9249 412.151 75.1614 412.008 75.3617 411.82C75.562 411.633 75.7132 411.401 75.8155 411.124L77.976 411.366C77.8397 411.937 77.5797 412.436 77.1962 412.862C76.8169 413.284 76.3311 413.612 75.7388 413.847C75.1465 414.077 74.4689 414.192 73.7061 414.192ZM81.5334 408.247V414H79.2195V404.182H81.4311V405.85H81.5462C81.772 405.3 82.1321 404.864 82.6264 404.54C83.125 404.216 83.7408 404.054 84.4737 404.054C85.1513 404.054 85.7415 404.199 86.2443 404.489C86.7514 404.778 87.1435 405.198 87.4205 405.748C87.7017 406.298 87.8402 406.964 87.8359 407.749V414H85.522V408.107C85.522 407.45 85.3516 406.937 85.0107 406.566C84.674 406.195 84.2074 406.01 83.6108 406.01C83.206 406.01 82.8459 406.099 82.5305 406.278C82.2195 406.453 81.9744 406.707 81.7955 407.039C81.6207 407.371 81.5334 407.774 81.5334 408.247ZM93.0217 414.173C92.2504 414.173 91.56 413.974 90.9507 413.578C90.3413 413.182 89.8598 412.607 89.5061 411.852C89.1524 411.098 88.9755 410.182 88.9755 409.104C88.9755 408.013 89.1545 407.092 89.5125 406.342C89.8747 405.588 90.3626 405.019 90.9762 404.636C91.5899 404.248 92.2738 404.054 93.0281 404.054C93.6034 404.054 94.0764 404.152 94.4471 404.348C94.8179 404.54 95.1119 404.772 95.3292 405.045C95.5465 405.313 95.7149 405.567 95.8342 405.805H95.9301V400.909H98.2504V414H95.9748V412.453H95.8342C95.7149 412.692 95.5423 412.945 95.3164 413.214C95.0906 413.478 94.7923 413.704 94.4215 413.891C94.0508 414.079 93.5842 414.173 93.0217 414.173ZM93.6673 412.274C94.1573 412.274 94.575 412.142 94.9201 411.878C95.2653 411.609 95.5274 411.237 95.7063 410.759C95.8853 410.282 95.9748 409.726 95.9748 409.091C95.9748 408.456 95.8853 407.904 95.7063 407.435C95.5316 406.967 95.2717 406.602 94.9265 406.342C94.5856 406.082 94.1659 405.952 93.6673 405.952C93.1517 405.952 92.7213 406.087 92.3761 406.355C92.0309 406.624 91.771 406.994 91.5963 407.467C91.4215 407.94 91.3342 408.482 91.3342 409.091C91.3342 409.705 91.4215 410.252 91.5963 410.734C91.7752 411.211 92.0373 411.588 92.3825 411.865C92.7319 412.138 93.1602 412.274 93.6673 412.274ZM102.731 414.198C102.109 414.198 101.549 414.087 101.05 413.866C100.556 413.64 100.164 413.308 99.8741 412.869C99.5886 412.43 99.4459 411.888 99.4459 411.245C99.4459 410.691 99.5482 410.233 99.7527 409.871C99.9572 409.509 100.236 409.219 100.59 409.001C100.944 408.784 101.342 408.62 101.785 408.509C102.233 408.394 102.695 408.311 103.172 408.26C103.748 408.2 104.214 408.147 104.572 408.1C104.93 408.049 105.19 407.972 105.352 407.87C105.518 407.763 105.601 407.599 105.601 407.378V407.339C105.601 406.858 105.459 406.485 105.173 406.221C104.888 405.957 104.476 405.825 103.939 405.825C103.373 405.825 102.923 405.948 102.591 406.195C102.263 406.442 102.041 406.734 101.926 407.071L99.7655 406.764C99.9359 406.168 100.217 405.669 100.609 405.268C101.001 404.864 101.481 404.561 102.047 404.361C102.614 404.156 103.241 404.054 103.927 404.054C104.4 404.054 104.871 404.109 105.339 404.22C105.808 404.331 106.236 404.514 106.624 404.77C107.012 405.021 107.323 405.364 107.557 405.799C107.796 406.234 107.915 406.777 107.915 407.429V414H105.691V412.651H105.614C105.474 412.924 105.275 413.18 105.02 413.418C104.768 413.653 104.451 413.842 104.067 413.987C103.688 414.128 103.243 414.198 102.731 414.198ZM103.332 412.498C103.797 412.498 104.199 412.406 104.54 412.223C104.881 412.036 105.143 411.788 105.327 411.482C105.514 411.175 105.608 410.84 105.608 410.478V409.321C105.535 409.381 105.412 409.436 105.237 409.487C105.067 409.538 104.875 409.583 104.662 409.621C104.449 409.66 104.238 409.694 104.029 409.724C103.82 409.754 103.639 409.779 103.486 409.8C103.14 409.847 102.832 409.924 102.559 410.031C102.286 410.137 102.071 410.286 101.913 410.478C101.756 410.665 101.677 410.908 101.677 411.207C101.677 411.633 101.832 411.955 102.143 412.172C102.454 412.389 102.851 412.498 103.332 412.498ZM111.746 408.247V414H109.432V404.182H111.644V405.85H111.759C111.985 405.3 112.345 404.864 112.839 404.54C113.338 404.216 113.953 404.054 114.686 404.054C115.364 404.054 115.954 404.199 116.457 404.489C116.964 404.778 117.356 405.198 117.633 405.748C117.914 406.298 118.053 406.964 118.049 407.749V414H115.735V408.107C115.735 407.45 115.564 406.937 115.223 406.566C114.887 406.195 114.42 406.01 113.823 406.01C113.419 406.01 113.058 406.099 112.743 406.278C112.432 406.453 112.187 406.707 112.008 407.039C111.833 407.371 111.746 407.774 111.746 408.247ZM123.873 414.192C122.893 414.192 122.052 413.977 121.349 413.546C120.65 413.116 120.111 412.521 119.731 411.763C119.356 411 119.169 410.122 119.169 409.129C119.169 408.132 119.361 407.252 119.744 406.489C120.128 405.722 120.669 405.126 121.368 404.7C122.071 404.269 122.902 404.054 123.861 404.054C124.658 404.054 125.363 404.201 125.976 404.495C126.594 404.785 127.087 405.196 127.453 405.729C127.819 406.257 128.028 406.875 128.079 407.582H125.868C125.778 407.109 125.565 406.715 125.229 406.4C124.896 406.08 124.451 405.92 123.893 405.92C123.42 405.92 123.004 406.048 122.646 406.304C122.288 406.555 122.009 406.918 121.809 407.391C121.613 407.864 121.515 408.43 121.515 409.091C121.515 409.76 121.613 410.335 121.809 410.817C122.005 411.294 122.28 411.663 122.633 411.923C122.991 412.178 123.411 412.306 123.893 412.306C124.234 412.306 124.538 412.242 124.807 412.114C125.079 411.982 125.307 411.793 125.491 411.545C125.674 411.298 125.8 410.998 125.868 410.644H128.079C128.024 411.339 127.819 411.955 127.466 412.491C127.112 413.024 126.631 413.442 126.021 413.744C125.412 414.043 124.696 414.192 123.873 414.192ZM133.516 414.192C132.532 414.192 131.682 413.987 130.966 413.578C130.254 413.165 129.706 412.581 129.323 411.827C128.939 411.068 128.748 410.175 128.748 409.148C128.748 408.138 128.939 407.252 129.323 406.489C129.711 405.722 130.252 405.126 130.946 404.7C131.641 404.269 132.457 404.054 133.395 404.054C134 404.054 134.571 404.152 135.108 404.348C135.649 404.54 136.126 404.838 136.539 405.243C136.957 405.648 137.285 406.163 137.524 406.79C137.763 407.412 137.882 408.153 137.882 409.014V409.724H129.834V408.164H135.664C135.66 407.721 135.564 407.327 135.376 406.982C135.189 406.632 134.927 406.357 134.59 406.157C134.258 405.957 133.87 405.857 133.427 405.857C132.954 405.857 132.538 405.972 132.18 406.202C131.822 406.428 131.543 406.726 131.343 407.097C131.147 407.463 131.047 407.866 131.042 408.305V409.666C131.042 410.237 131.147 410.727 131.356 411.136C131.564 411.541 131.856 411.852 132.231 412.07C132.606 412.283 133.045 412.389 133.548 412.389C133.885 412.389 134.189 412.342 134.462 412.249C134.735 412.151 134.971 412.008 135.172 411.82C135.372 411.633 135.523 411.401 135.625 411.124L137.786 411.366C137.65 411.937 137.39 412.436 137.006 412.862C136.627 413.284 136.141 413.612 135.549 413.847C134.956 414.077 134.279 414.192 133.516 414.192Z" fill="#232323"/>
<path d="M-5.97443 481.398C-8.01989 481.398 -9.83807 481.047 -11.429 480.347C-13.0104 479.646 -14.2604 478.67 -15.179 477.42C-16.0975 476.17 -16.5852 474.726 -16.642 473.088H-11.3011C-11.2538 473.874 -10.9934 474.561 -10.5199 475.148C-10.0464 475.725 -9.41667 476.175 -8.63068 476.497C-7.8447 476.819 -6.96401 476.98 -5.98864 476.98C-4.94697 476.98 -4.02367 476.8 -3.21875 476.44C-2.41383 476.071 -1.78409 475.56 -1.32955 474.906C-0.874999 474.253 -0.652461 473.5 -0.661931 472.648C-0.652461 471.767 -0.879734 470.991 -1.34375 470.318C-1.80777 469.646 -2.48011 469.12 -3.3608 468.741C-4.23201 468.363 -5.28314 468.173 -6.5142 468.173H-9.08523V464.111H-6.5142C-5.50095 464.111 -4.61553 463.936 -3.85795 463.585C-3.09091 463.235 -2.48958 462.742 -2.05398 462.108C-1.61837 461.464 -1.4053 460.721 -1.41477 459.878C-1.4053 459.054 -1.58996 458.339 -1.96875 457.733C-2.33807 457.117 -2.86364 456.639 -3.54545 456.298C-4.2178 455.957 -5.00852 455.787 -5.91761 455.787C-6.80776 455.787 -7.63163 455.948 -8.3892 456.27C-9.14678 456.592 -9.75758 457.051 -10.2216 457.648C-10.6856 458.235 -10.9318 458.936 -10.9602 459.75H-16.0312C-15.9934 458.121 -15.5246 456.691 -14.625 455.46C-13.7159 454.22 -12.5038 453.254 -10.9886 452.562C-9.47348 451.862 -7.77367 451.511 -5.8892 451.511C-3.94792 451.511 -2.26231 451.876 -0.832386 452.605C0.607008 453.325 1.7197 454.295 2.50568 455.517C3.29167 456.739 3.68466 458.088 3.68466 459.565C3.69413 461.204 3.21117 462.577 2.2358 463.685C1.26989 464.793 0.000947475 465.517 -1.57102 465.858V466.085C0.474432 466.369 2.04167 467.127 3.13068 468.358C4.22917 469.58 4.77367 471.099 4.7642 472.918C4.7642 474.546 4.30019 476.005 3.37216 477.293C2.4536 478.571 1.18466 479.575 -0.434659 480.304C-2.04451 481.033 -3.8911 481.398 -5.97443 481.398Z" fill="#232323"/>
<path d="M238 471.667H222C218.48 471.667 215.547 471.32 213.067 470.573C212.16 470.307 211.574 469.427 211.627 468.493C212.294 460.52 220.374 454.253 230 454.253C239.627 454.253 247.68 460.493 248.374 468.493C248.454 469.453 247.867 470.307 246.934 470.573C244.454 471.32 241.52 471.667 238 471.667ZM215.92 467.16C217.68 467.507 219.68 467.667 222 467.667H238C240.32 467.667 242.32 467.507 244.08 467.16C242.667 462.04 236.827 458.253 230 458.253C223.174 458.253 217.334 462.04 215.92 467.16Z" fill="#C6D1DF"/>
<path d="M238 416.333H222C208.667 416.333 203.333 421.667 203.333 435V451C203.333 461.08 206.373 466.6 213.627 468.653C214.213 461.72 221.333 456.253 230 456.253C238.667 456.253 245.787 461.72 246.373 468.653C253.627 466.6 256.667 461.08 256.667 451V435C256.667 421.667 251.333 416.333 238 416.333ZM230 448.787C224.72 448.787 220.453 444.493 220.453 439.213C220.453 433.933 224.72 429.667 230 429.667C235.28 429.667 239.547 433.933 239.547 439.213C239.547 444.493 235.28 448.787 230 448.787Z" stroke="#C6D1DF" stroke-width="4.5" stroke-linecap="round" stroke-linejoin="round"/>
<path d="M230 450.787C223.626 450.787 218.453 445.587 218.453 439.213C218.453 432.84 223.626 427.667 230 427.667C236.373 427.667 241.546 432.84 241.546 439.213C241.546 445.587 236.373 450.787 230 450.787ZM230 431.667C225.84 431.667 222.453 435.053 222.453 439.213C222.453 443.4 225.84 446.787 230 446.787C234.16 446.787 237.546 443.4 237.546 439.213C237.546 435.053 234.16 431.667 230 431.667Z" fill="#C6D1DF"/>
<g filter="url(#filter0_d_353_1766)">
<g clip-path="url(#clip2_353_1766)">
<rect x="32" y="32" width="342" height="316" rx="12" fill="white"/>
<path d="M64.4055 64.5078C64.3459 63.9496 64.0945 63.5149 63.6513 63.2038C63.2124 62.8928 62.6413 62.7372 61.9382 62.7372C61.4439 62.7372 61.0199 62.8118 60.6662 62.9609C60.3125 63.1101 60.0419 63.3125 59.8544 63.5682C59.6669 63.8239 59.571 64.1158 59.5668 64.4439C59.5668 64.7166 59.6286 64.9531 59.7521 65.1534C59.88 65.3537 60.0526 65.5241 60.2699 65.6648C60.4872 65.8011 60.728 65.9162 60.9922 66.0099C61.2564 66.1037 61.5227 66.1825 61.7912 66.2464L63.0185 66.5533C63.5128 66.6683 63.9879 66.8239 64.4439 67.0199C64.9041 67.2159 65.3153 67.4631 65.6776 67.7614C66.044 68.0597 66.3338 68.4197 66.5469 68.8416C66.7599 69.2635 66.8665 69.7578 66.8665 70.3246C66.8665 71.0916 66.6705 71.767 66.2784 72.3509C65.8864 72.9304 65.3196 73.3842 64.5781 73.7124C63.8409 74.0362 62.9482 74.1982 61.8999 74.1982C60.8814 74.1982 59.9972 74.0405 59.2472 73.7251C58.5014 73.4098 57.9176 72.9496 57.4957 72.3445C57.0781 71.7393 56.8523 71.0021 56.8182 70.1328H59.1513C59.1854 70.5888 59.326 70.968 59.5732 71.2706C59.8203 71.5732 60.142 71.799 60.5384 71.9482C60.9389 72.0973 61.3864 72.1719 61.8807 72.1719C62.3963 72.1719 62.848 72.0952 63.2358 71.9418C63.6278 71.7841 63.9347 71.5668 64.1562 71.2898C64.3778 71.0085 64.4908 70.6804 64.495 70.3054C64.4908 69.9645 64.3906 69.6832 64.1946 69.4616C63.9986 69.2358 63.7237 69.0483 63.37 68.8991C63.0206 68.7457 62.6115 68.6094 62.1428 68.4901L60.6534 68.1065C59.5753 67.8295 58.723 67.4098 58.0966 66.8473C57.4744 66.2805 57.1634 65.5284 57.1634 64.5909C57.1634 63.8196 57.3722 63.1442 57.7898 62.5646C58.2116 61.9851 58.7848 61.5355 59.5092 61.2159C60.2337 60.892 61.054 60.7301 61.9702 60.7301C62.8991 60.7301 63.7131 60.892 64.4119 61.2159C65.1151 61.5355 65.6669 61.9808 66.0675 62.5518C66.468 63.1186 66.6747 63.7706 66.6875 64.5078H64.4055ZM72.9711 64.1818V65.9716H67.3269V64.1818H72.9711ZM68.7204 61.8295H71.0343V71.0469C71.0343 71.358 71.0812 71.5966 71.1749 71.7628C71.2729 71.9247 71.4008 72.0355 71.5584 72.0952C71.7161 72.1548 71.8908 72.1847 72.0826 72.1847C72.2275 72.1847 72.3596 72.174 72.4789 72.1527C72.6025 72.1314 72.6962 72.1122 72.7601 72.0952L73.15 73.9041C73.0265 73.9467 72.8496 73.9936 72.6195 74.0447C72.3937 74.0959 72.1167 74.1257 71.7885 74.1342C71.209 74.1513 70.687 74.0639 70.2225 73.8722C69.758 73.6761 69.3894 73.3736 69.1167 72.9645C68.8482 72.5554 68.7161 72.044 68.7204 71.4304V61.8295ZM76.9215 74.1982C76.2994 74.1982 75.739 74.0874 75.2404 73.8658C74.7461 73.6399 74.3541 73.3075 74.0643 72.8686C73.7788 72.4297 73.636 71.8885 73.636 71.245C73.636 70.6911 73.7383 70.233 73.9429 69.8707C74.1474 69.5085 74.4265 69.2188 74.7802 69.0014C75.1339 68.7841 75.5323 68.62 75.9755 68.5092C76.423 68.3942 76.8853 68.3111 77.3626 68.2599C77.9379 68.2003 78.4045 68.147 78.7625 68.1001C79.1204 68.049 79.3804 67.9723 79.5423 67.87C79.7085 67.7635 79.7916 67.5994 79.7916 67.3778V67.3395C79.7916 66.858 79.6488 66.4851 79.3633 66.2209C79.0778 65.9567 78.6666 65.8246 78.1296 65.8246C77.5629 65.8246 77.1133 65.9482 76.7809 66.1953C76.4528 66.4425 76.2312 66.7344 76.1161 67.071L73.9556 66.7642C74.1261 66.1676 74.4073 65.669 74.7994 65.2685C75.1914 64.8636 75.6708 64.5611 76.2376 64.3608C76.8044 64.1562 77.4308 64.054 78.1169 64.054C78.5899 64.054 79.0608 64.1094 79.5295 64.2202C79.9983 64.331 80.4265 64.5142 80.8143 64.7699C81.2021 65.0213 81.5132 65.3643 81.7475 65.799C81.9862 66.2337 82.1055 66.777 82.1055 67.429V74H79.8811V72.6513H79.8044C79.6637 72.924 79.4656 73.1797 79.2099 73.4183C78.9585 73.6527 78.641 73.8423 78.2575 73.9872C77.8782 74.1278 77.4329 74.1982 76.9215 74.1982ZM77.5224 72.4979C77.9869 72.4979 78.3896 72.4062 78.7305 72.223C79.0714 72.0355 79.3335 71.7884 79.5167 71.4815C79.7042 71.1747 79.798 70.8402 79.798 70.478V69.321C79.7255 69.3807 79.6019 69.4361 79.4272 69.4872C79.2568 69.5384 79.065 69.5831 78.8519 69.6214C78.6389 69.6598 78.4279 69.6939 78.2191 69.7237C78.0103 69.7536 77.8292 69.7791 77.6758 69.8004C77.3306 69.8473 77.0217 69.924 76.749 70.0305C76.4762 70.1371 76.261 70.2862 76.1034 70.478C75.9457 70.6655 75.8669 70.9084 75.8669 71.2067C75.8669 71.6328 76.0224 71.9545 76.3335 72.1719C76.6446 72.3892 77.0409 72.4979 77.5224 72.4979ZM88.5249 64.1818V65.9716H82.8807V64.1818H88.5249ZM84.2742 61.8295H86.5881V71.0469C86.5881 71.358 86.635 71.5966 86.7287 71.7628C86.8267 71.9247 86.9546 72.0355 87.1123 72.0952C87.2699 72.1548 87.4446 72.1847 87.6364 72.1847C87.7813 72.1847 87.9134 72.174 88.0327 72.1527C88.1563 72.1314 88.25 72.1122 88.314 72.0952L88.7039 73.9041C88.5803 73.9467 88.4035 73.9936 88.1733 74.0447C87.9475 74.0959 87.6705 74.1257 87.3424 74.1342C86.7628 74.1513 86.2408 74.0639 85.7763 73.8722C85.3118 73.6761 84.9432 73.3736 84.6705 72.9645C84.402 72.5554 84.2699 72.044 84.2742 71.4304V61.8295ZM89.6501 74V64.1818H91.964V74H89.6501ZM90.8134 62.7884C90.447 62.7884 90.1316 62.6669 89.8674 62.424C89.6032 62.1768 89.4711 61.8807 89.4711 61.5355C89.4711 61.1861 89.6032 60.8899 89.8674 60.647C90.1316 60.3999 90.447 60.2763 90.8134 60.2763C91.1842 60.2763 91.4995 60.3999 91.7595 60.647C92.0237 60.8899 92.1558 61.1861 92.1558 61.5355C92.1558 61.8807 92.0237 62.1768 91.7595 62.424C91.4995 62.6669 91.1842 62.7884 90.8134 62.7884ZM101.293 66.777L99.184 67.0071C99.1244 66.794 99.02 66.5938 98.8708 66.4062C98.7259 66.2188 98.5299 66.0675 98.2827 65.9524C98.0356 65.8374 97.733 65.7798 97.3751 65.7798C96.8935 65.7798 96.4887 65.8842 96.1606 66.093C95.8367 66.3018 95.6769 66.5724 95.6812 66.9048C95.6769 67.1903 95.7813 67.4226 95.9944 67.6016C96.2117 67.7805 96.5697 67.9276 97.0683 68.0426L98.743 68.4006C99.6719 68.6009 100.362 68.9183 100.814 69.353C101.27 69.7876 101.5 70.3565 101.504 71.0597C101.5 71.6776 101.319 72.223 100.961 72.696C100.607 73.1648 100.115 73.5312 99.4844 73.7955C98.8538 74.0597 98.1293 74.1918 97.3112 74.1918C96.1094 74.1918 95.1421 73.9403 94.4092 73.4375C93.6762 72.9304 93.2394 72.2251 93.0988 71.3217L95.3552 71.1044C95.4575 71.5476 95.6748 71.8821 96.0072 72.108C96.3396 72.3338 96.7721 72.4467 97.3048 72.4467C97.8545 72.4467 98.2955 72.3338 98.6279 72.108C98.9646 71.8821 99.1329 71.603 99.1329 71.2706C99.1329 70.9893 99.0242 70.7571 98.8069 70.5739C98.5938 70.3906 98.2614 70.25 97.8097 70.152L96.135 69.8004C95.1933 69.6044 94.4965 69.2741 94.0448 68.8097C93.5931 68.3409 93.3694 67.7486 93.3737 67.0327C93.3694 66.4276 93.5335 65.9034 93.8658 65.4602C94.2025 65.0128 94.6691 64.6676 95.2657 64.4247C95.8665 64.1776 96.559 64.054 97.3431 64.054C98.4937 64.054 99.3992 64.299 100.06 64.7891C100.725 65.2791 101.136 65.9418 101.293 66.777ZM107.505 64.1818V65.9716H101.861V64.1818H107.505ZM103.254 61.8295H105.568V71.0469C105.568 71.358 105.615 71.5966 105.709 71.7628C105.807 71.9247 105.935 72.0355 106.092 72.0952C106.25 72.1548 106.425 72.1847 106.617 72.1847C106.761 72.1847 106.894 72.174 107.013 72.1527C107.136 72.1314 107.23 72.1122 107.294 72.0952L107.684 73.9041C107.56 73.9467 107.384 73.9936 107.153 74.0447C106.928 74.0959 106.651 74.1257 106.323 74.1342C105.743 74.1513 105.221 74.0639 104.756 73.8722C104.292 73.6761 103.923 73.3736 103.651 72.9645C103.382 72.5554 103.25 72.044 103.254 71.4304V61.8295ZM108.63 74V64.1818H110.944V74H108.63ZM109.794 62.7884C109.427 62.7884 109.112 62.6669 108.848 62.424C108.583 62.1768 108.451 61.8807 108.451 61.5355C108.451 61.1861 108.583 60.8899 108.848 60.647C109.112 60.3999 109.427 60.2763 109.794 60.2763C110.164 60.2763 110.48 60.3999 110.74 60.647C111.004 60.8899 111.136 61.1861 111.136 61.5355C111.136 61.8807 111.004 62.1768 110.74 62.424C110.48 62.6669 110.164 62.7884 109.794 62.7884ZM116.796 74.1918C115.816 74.1918 114.975 73.9766 114.271 73.5462C113.573 73.1158 113.033 72.5213 112.654 71.7628C112.279 71 112.092 70.1222 112.092 69.1293C112.092 68.1321 112.283 67.2521 112.667 66.4893C113.051 65.7223 113.592 65.1257 114.291 64.6996C114.994 64.2692 115.825 64.054 116.783 64.054C117.58 64.054 118.286 64.201 118.899 64.495C119.517 64.7848 120.009 65.196 120.376 65.7287C120.742 66.2571 120.951 66.875 121.002 67.5824H118.791C118.701 67.1094 118.488 66.7152 118.151 66.3999C117.819 66.0803 117.374 65.9205 116.815 65.9205C116.342 65.9205 115.927 66.0483 115.569 66.304C115.211 66.5554 114.932 66.9176 114.732 67.3906C114.536 67.8636 114.438 68.4304 114.438 69.0909C114.438 69.7599 114.536 70.3352 114.732 70.8168C114.928 71.294 115.203 71.6626 115.556 71.9226C115.914 72.1783 116.334 72.3061 116.815 72.3061C117.156 72.3061 117.461 72.2422 117.73 72.1143C118.002 71.9822 118.23 71.7926 118.413 71.5455C118.597 71.2983 118.722 70.9979 118.791 70.6442H121.002C120.947 71.3388 120.742 71.9545 120.389 72.4915C120.035 73.0241 119.553 73.4418 118.944 73.7443C118.335 74.0426 117.619 74.1918 116.796 74.1918ZM129.852 66.777L127.743 67.0071C127.683 66.794 127.579 66.5938 127.43 66.4062C127.285 66.2188 127.089 66.0675 126.842 65.9524C126.594 65.8374 126.292 65.7798 125.934 65.7798C125.452 65.7798 125.048 65.8842 124.719 66.093C124.396 66.3018 124.236 66.5724 124.24 66.9048C124.236 67.1903 124.34 67.4226 124.553 67.6016C124.771 67.7805 125.129 67.9276 125.627 68.0426L127.302 68.4006C128.231 68.6009 128.921 68.9183 129.373 69.353C129.829 69.7876 130.059 70.3565 130.063 71.0597C130.059 71.6776 129.878 72.223 129.52 72.696C129.166 73.1648 128.674 73.5312 128.043 73.7955C127.413 74.0597 126.688 74.1918 125.87 74.1918C124.668 74.1918 123.701 73.9403 122.968 73.4375C122.235 72.9304 121.798 72.2251 121.658 71.3217L123.914 71.1044C124.016 71.5476 124.234 71.8821 124.566 72.108C124.898 72.3338 125.331 72.4467 125.864 72.4467C126.413 72.4467 126.854 72.3338 127.187 72.108C127.523 71.8821 127.692 71.603 127.692 71.2706C127.692 70.9893 127.583 70.7571 127.366 70.5739C127.153 70.3906 126.82 70.25 126.369 70.152L124.694 69.8004C123.752 69.6044 123.055 69.2741 122.604 68.8097C122.152 68.3409 121.928 67.7486 121.932 67.0327C121.928 66.4276 122.092 65.9034 122.425 65.4602C122.761 65.0128 123.228 64.6676 123.825 64.4247C124.425 64.1776 125.118 64.054 125.902 64.054C127.053 64.054 127.958 64.299 128.619 64.7891C129.283 65.2791 129.695 65.9418 129.852 66.777Z" fill="#232323"/>
<rect x="56" y="116.07" width="147.467" height="12.0381" rx="6.01905" fill="#E2E2E2"/>
<rect x="56" y="94" width="211" height="12" rx="6" fill="#E2E2E2"/>
<rect x="56" y="150.128" width="11.7449" height="11.7449" rx="1.95749" fill="#46B544"/>
<rect x="73.6174" y="150" width="68" height="12" rx="6" fill="#E2E2E2"/>
<rect x="164.64" y="150.128" width="11.7449" height="11.7449" rx="1.95749" fill="#0984E3"/>
<rect x="182.258" y="150" width="68" height="12" rx="6" fill="#E2E2E2"/>
<rect x="266.43" y="150.128" width="11.7449" height="11.7449" rx="1.95749" fill="#F39C12"/>
<rect x="284.048" y="150" width="68" height="12" rx="6" fill="#E2E2E2"/>
<path d="M100.465 324L118.119 293.922C123.673 284.46 133.824 278.648 144.796 278.648V278.648C155.271 278.648 165.034 273.347 170.739 264.561L179.58 250.946C183.733 244.55 190.841 240.69 198.468 240.69V240.69C205.376 240.69 211.901 243.86 216.171 249.29L251.565 294.302C253.583 296.868 256.666 298.366 259.931 298.366V298.366C264.005 298.366 267.722 296.04 269.503 292.375L296.788 236.224C299.123 231.417 303.998 228.366 309.342 228.366V228.366C314.572 228.366 319.363 225.443 321.755 220.792L322.296 219.739C325.02 214.442 330.477 211.113 336.433 211.113H338.183C344.017 211.113 349.519 213.826 353.07 218.453L375.51 247.694C378.323 251.359 382.68 253.507 387.3 253.507V253.507C392.269 253.507 396.909 255.99 399.665 260.125L405.914 269.498C409.725 275.214 416.141 278.648 423.011 278.648V278.648C430.517 278.648 437.425 274.555 441.031 267.973L461.623 230.385C464.47 225.188 469.923 221.958 475.848 221.958V221.958C481.777 221.958 487.234 225.193 490.079 230.395L499.225 247.119C501.379 251.058 505.51 253.507 510 253.507V253.507C514.608 253.507 518.829 256.087 520.93 260.189L536.16 289.925C537.419 292.383 539.949 293.93 542.711 293.93V293.93C545.905 293.93 548.735 291.869 549.716 288.829L550.535 286.289C552.004 281.735 556.243 278.648 561.029 278.648H578.341C585.133 278.648 591.306 274.704 594.162 268.542V268.542C597.018 262.38 603.192 258.437 609.983 258.437H629.055C648.335 258.437 665.686 246.733 672.908 228.856L683.273 203.197C687.96 191.595 699.22 184 711.733 184V184" stroke="#46B544" stroke-width="1.47887"/>
<path d="M99.9718 273.225L116.899 246.063C119.555 241.802 124.221 239.211 129.242 239.211V239.211C134.593 239.211 139.511 242.149 142.048 246.86L143.106 248.824C146.294 254.745 152.475 258.437 159.199 258.437H180.817H198.065C205.416 258.437 212.236 262.266 216.063 268.542V268.542C219.89 274.819 226.71 278.648 234.061 278.648H242.027C256.545 278.648 269.58 269.751 274.87 256.232L282.894 235.725C286.144 227.422 294.149 221.958 303.066 221.958V221.958C311.987 221.958 319.996 227.427 323.242 235.737L326.649 244.46C328.78 249.916 334.038 253.507 339.895 253.507V253.507C343.178 253.507 346.36 252.371 348.901 250.293L372.731 230.795C375.82 228.268 379.687 226.887 383.678 226.887V226.887C389.38 226.887 394.715 229.699 397.938 234.403L402.861 241.588C407.973 249.048 416.434 253.507 425.477 253.507V253.507C431.757 253.507 437.846 255.663 442.727 259.614L458.835 272.654C463.626 276.532 469.602 278.648 475.766 278.648V278.648C482.034 278.648 488.106 276.459 492.933 272.46L499.142 267.315C501.454 265.4 504.361 264.352 507.362 264.352V264.352C512.602 264.352 517.32 261.179 519.295 256.325L531.299 226.829C532.498 223.884 535.361 221.958 538.541 221.958V221.958C541.637 221.958 544.441 223.784 545.692 226.616L557.732 253.863C560.549 260.239 566.863 264.352 573.833 264.352V264.352C581.41 264.352 588.137 259.504 590.533 252.315L591.204 250.303C594.001 241.913 601.853 236.254 610.697 236.254H613.238C623.017 236.254 631.825 230.337 635.523 221.283L636.556 218.754C640.879 208.17 651.175 201.254 662.608 201.254H674.053C684.996 201.254 695.568 205.226 703.803 212.432L714.69 221.958" stroke="#0984E3" stroke-width="1.47887"/>
<path d="M98 296.394H121.169H128.266C134.531 296.394 140.617 298.475 145.57 302.31V302.31C150.524 306.144 156.61 308.225 162.874 308.225H164.153C174.597 308.225 184.384 303.129 190.373 294.573L194.74 288.335C198.99 282.264 206.026 278.648 213.437 278.648V278.648C219.044 278.648 224.513 280.76 228.634 284.563V284.563C232.754 288.367 238.156 290.479 243.764 290.479H252.252C260.34 290.479 268.273 292.708 275.178 296.921L289.755 305.815C292.338 307.391 295.305 308.225 298.331 308.225V308.225C305.064 308.225 311.119 304.126 313.619 297.875L322.814 274.886C324.883 269.715 329.892 266.324 335.462 266.324V266.324C341.175 266.324 346.28 269.888 348.249 275.251L351.339 283.669C355.44 294.842 368.739 299.468 378.89 293.254V293.254C381.854 291.439 385.262 290.479 388.737 290.479H397.581C404.099 290.479 410.472 292.408 415.895 296.024V296.024C424.615 301.837 435.577 303.165 445.432 299.603L466.723 291.908C469.338 290.962 472.099 290.479 474.88 290.479H477.788C482.679 290.479 487.343 292.536 490.641 296.148L493.62 299.411C495.02 300.943 496.999 301.817 499.075 301.817V301.817C501.088 301.817 503.013 300.996 504.406 299.543L517.865 285.512C522.675 280.497 529.323 277.662 536.272 277.662V277.662C541.999 277.662 547.559 279.589 552.057 283.133L561.38 290.479L571.979 300.766C575.931 304.601 581.221 306.746 586.727 306.746V306.746C592.282 306.746 597.614 304.564 601.574 300.67L617.866 284.649C622.42 280.171 628.551 277.662 634.937 277.662V277.662C641.778 277.662 648.304 274.783 652.917 269.731L662.66 259.061C665.03 256.465 668.383 254.986 671.898 254.986V254.986C676.408 254.986 680.569 257.414 682.789 261.34L692.014 277.662L693.507 280.481C698.047 289.058 706.957 294.422 716.662 294.422V294.422" stroke="#F39C12" stroke-width="1.47887"/>
<rect x="56" y="192" width="15" height="12" rx="6" fill="#E2E2E2"/>
<rect x="56" y="220" width="15" height="12" rx="6" fill="#E2E2E2"/>
<rect x="56" y="248" width="15" height="12" rx="6" fill="#E2E2E2"/>
<rect x="56" y="276" width="15" height="12" rx="6" fill="#E2E2E2"/>
<rect x="56" y="304" width="15" height="12" rx="6" fill="#E2E2E2"/>
<path d="M82 185V322.5" stroke="#232323" stroke-opacity="0.16"/>
</g>
</g>
<rect x="-48" y="538" width="342" height="142" rx="12" fill="white"/>
</g>
<defs>
<filter id="filter0_d_353_1766" x="-18.1587" y="-18.1587" width="502.508" height="476.508" filterUnits="userSpaceOnUse" color-interpolation-filters="sRGB">
<feFlood flood-opacity="0" result="BackgroundImageFix"/>
<feColorMatrix in="SourceAlpha" type="matrix" values="0 0 0 0 0 0 0 0 0 0 0 0 0 0 0 0 0 0 127 0" result="hardAlpha"/>
<feOffset dx="30.0952" dy="30.0952"/>
<feGaussianBlur stdDeviation="40.127"/>
<feComposite in2="hardAlpha" operator="out"/>
<feColorMatrix type="matrix" values="0 0 0 0 0.0726736 0 0 0 0 0.176881 0 0 0 0 0.379167 0 0 0 0.1 0"/>
<feBlend mode="normal" in2="BackgroundImageFix" result="effect1_dropShadow_353_1766"/>
<feBlend mode="normal" in="SourceGraphic" in2="effect1_dropShadow_353_1766" result="shape"/>
</filter>
<clipPath id="clip0_353_1766">
<rect width="592" height="559" rx="16" fill="white"/>
</clipPath>
<clipPath id="clip1_353_1766">
<rect x="422" y="148" width="98.7805" height="100" rx="6" fill="white"/>
</clipPath>
<clipPath id="clip2_353_1766">
<rect x="32" y="32" width="342" height="316" rx="12" fill="white"/>
</clipPath>
</defs>
</svg>
