<svg width="18" height="18" viewBox="0 0 18 18" fill="none" xmlns="http://www.w3.org/2000/svg">
<path d="M10.2974 2.63242L11.6174 5.27242C11.7974 5.63992 12.2774 5.99242 12.6824 6.05992L15.0749 6.45742C16.6049 6.71242 16.9649 7.82242 15.8624 8.91742L14.0024 10.7774C13.6874 11.0924 13.5149 11.6999 13.6124 12.1349L14.1449 14.4374C14.5649 16.2599 13.5974 16.9649 11.9849 16.0124L9.74243 14.6849C9.33743 14.4449 8.66993 14.4449 8.25743 14.6849L6.01493 16.0124C4.40993 16.9649 3.43493 16.2524 3.85493 14.4374L4.38743 12.1349C4.48493 11.6999 4.31243 11.0924 3.99743 10.7774L2.13743 8.91742C1.04243 7.82242 1.39493 6.71242 2.92493 6.45742L5.31743 6.05992C5.71493 5.99242 6.19493 5.63992 6.37493 5.27242L7.69493 2.63242C8.41493 1.19992 9.58493 1.19992 10.2974 2.63242Z" fill="#FFC236"/>
</svg>
